<svg width="491" height="624" viewBox="0 0 491 624" fill="none" xmlns="http://www.w3.org/2000/svg">
<path d="M44.4002 582.6V615.9H3.7002L11.9002 582.6H44.4002Z" stroke="#261E18" stroke-width="2" stroke-miterlimit="10"/>
<path d="M320.3 615.9H83.1001L130.7 582.6H311.3L320.3 615.9Z" stroke="#261E18" stroke-width="2" stroke-miterlimit="10"/>
<path d="M12.8002 578.9L11.9002 582.6L3.7002 615.9" stroke="#261E18" stroke-width="2" stroke-miterlimit="10"/>
<path d="M320.3 615.9L311.3 582.6L310.6 579.9" stroke="#261E18" stroke-width="2" stroke-miterlimit="10"/>
<path d="M1.90009 624.2C1.20009 627.7 0.600103 631.5 2.1001 634.8C3.7001 638.3 7.50009 640.4 11.2001 641.6C16.4001 643.2 22.2001 643.5 27.0001 641C33.5001 637.6 36.6001 630.2 39.6001 623.5C43.5001 614.6 48.0001 605.8 52.9001 597.4C57.2001 590 62.1001 581.5 59.6001 573.3C56.9001 564.6 46.9001 560.5 37.9001 558.8C24.4001 556.2 17.5001 561.8 14.0001 573.9C9.1001 590.5 5.20009 607.3 1.90009 624.2Z" fill="#B35F48" stroke="#120D0C" stroke-width="2" stroke-miterlimit="10"/>
<path d="M419.5 320.8C421.9 317.6 424.3 314.2 425.1 310.3C425.8 306.5 424.9 302.5 425.1 298.6C425.5 291.6 429.7 285.4 431.7 278.7C433 274.3 433.5 269.6 435.6 265.6C437 263 439.1 260.8 441.1 258.6C454.5 244.5 468.6 231.1 483.2 218.3C484.7 217 486.6 215.6 488.5 216.2C491.1 220.9 487.6 226.6 484.2 230.8C479.1 237.2 474 243.6 468.9 250.1C473.8 256.6 477.5 263.9 479.8 271.7C480.7 274.7 481.3 278.1 479.8 280.9C479 282.4 477.6 283.6 477.4 285.2C477.2 287.7 479.9 289.5 480.8 291.9C482 295.2 479.7 298.6 477.5 301.3C473.1 306.8 468.6 312.2 464.2 317.7C460.6 322.1 455.8 326.9 450.3 325.5C443.2 340.8 436.1 356.1 429 371.3C427.6 374.3 426.1 377.4 423.6 379.6C420.9 381.9 417.2 382.9 413.7 383.5C409.1 384.4 404.3 384.9 399.7 383.8C395.1 382.8 390.7 380 388.7 375.8C386.7 371.7 387.2 366.8 388.6 362.4C393.8 346.9 409.9 333.7 419.5 320.8Z" fill="#B35F48" stroke="#120D0C" stroke-width="2" stroke-miterlimit="10"/>
<path d="M429.7 285.6C435.1 281.5 440.6 277.4 446 273.4C447 272.7 448 271.9 449.1 271.5C450.4 271 451.9 270.9 453.3 270.8C458.8 270.4 464.4 270 469.9 269.6C470.5 269.6 471.2 269.5 471.8 269.7C473.1 270.2 473.6 271.8 473.6 273.1C473.6 276.9 470.7 280 467.8 282.3C463.6 285.8 458.8 288.5 453.7 290.5C453.4 290.2 453.3 289.8 453.5 289.4" stroke="#120D0C" stroke-width="2" stroke-miterlimit="10"/>
<path d="M461.8 256.5C465.1 253.7 468.2 250.5 471.1 247.2" stroke="#120D0C" stroke-width="2" stroke-miterlimit="10"/>
<path d="M461.6 287.4C461.6 289.3 463.1 291 465 291.6C466.8 292.1 468.8 291.7 470.5 290.8C472.2 289.9 473.6 288.6 475 287.3C475.9 286.4 476.8 285.6 477.7 284.7" stroke="#120D0C" stroke-width="2" stroke-miterlimit="10"/>
<path d="M463.7 255.8C464.6 260 465.3 264.2 465.8 268.4" stroke="#120D0C" stroke-width="2" stroke-miterlimit="10"/>
<path d="M465.3 291.3C464.1 292.8 463.3 294.8 463.5 296.8C463.7 298.8 465 300.7 466.9 301.2C468.3 301.6 469.7 301.3 471.1 300.9C473.7 300.2 476.3 299.2 478.7 297.9C479 297.8 479.2 297.2 478.8 297.2" stroke="#120D0C" stroke-width="2" stroke-miterlimit="10"/>
<path d="M468.5 301.3C467.3 301.9 466.6 303.3 466.3 304.6C466 305.9 466.2 307.3 466.4 308.7C466.4 309 466.5 309.3 466.7 309.5C466.9 309.7 467.2 309.7 467.5 309.7C468.5 309.7 469.4 309.8 470.4 309.7" stroke="#120D0C" stroke-width="2" stroke-miterlimit="10"/>
<path d="M445.4 316.2C450.9 313.6 454.5 308.2 457.1 302.7" stroke="#120D0C" stroke-width="2" stroke-miterlimit="10"/>
<path d="M449.5 326.9C444.6 325 440.4 321.1 438.3 316.2C439.2 317.7 440.7 318.8 442.1 319.9C445.6 322.6 449.4 325.4 453.9 325.4" fill="#120D0C"/>
<path d="M135.2 239.9C132.1 242.3 128.5 244.5 124.6 244.5C120.7 244.5 116.6 241.3 117 237.4C113.8 241.5 105.8 239.5 105 234.3C101.5 238.5 93.6998 237.5 91.3998 232.6C90.0998 233 88.8998 233.3 87.5998 233.6C82.8998 234.5 77.6998 233.8 74.0998 230.7C70.4998 227.6 69.1998 221.7 71.9998 217.9C67.6998 220.1 62.0998 219.2 58.6998 215.9C55.1998 212.6 54.1998 207 56.1998 202.7C52.7998 204.5 47.9998 203.1 46.0998 199.8C44.1998 196.5 45.3998 191.7 48.6998 189.6C45.2998 189 44.1998 183.5 47.0998 181.7C44.0998 182.2 41.9998 178.7 40.9998 175.8C39.5998 171.9 38.3998 167.9 37.1998 163.9C36.0998 160.1 35.2998 155.3 38.2998 152.8C33.5998 153.6 28.5998 150.4 27.3998 145.8C26.1998 141.2 28.9998 136 33.3998 134.4C28.3998 131.7 25.5998 125.6 26.7998 120.1C27.9998 114.6 32.9998 110.1 38.5998 109.7C33.1998 107 29.1998 101 30.0998 95.0003C30.9998 89.0003 37.7998 84.2003 43.3998 86.4003C39.9998 84.2003 38.4998 79.6003 39.8998 75.9003C41.2998 72.2003 45.4998 69.7003 49.3998 70.3003C45.5998 67.9003 45.4998 61.8003 48.4998 58.5003C51.4998 55.1003 56.4998 54.2003 60.9998 54.7003C57.6998 49.3003 58.1998 41.8003 62.1998 36.9003C66.1998 32.0003 73.3998 30.0003 79.3998 32.1003C79.5998 25.6003 84.6999 19.9003 90.6999 17.4003C96.7999 14.9003 103.6 15.2003 110 16.3003C112.2 9.60032 120.6 5.90032 127 8.70032C130.2 1.30032 142 -0.199682 146.9 6.20032C149.7 2.40032 154.9 0.500317 159.5 1.50032C164.1 2.60032 167.9 6.60032 168.7 11.2003C171.9 8.80032 176.7 9.00032 179.7 11.6003C190.6 5.50032 206.4 11.9003 210.1 23.9003C214.6 22.5003 219.2 21.1003 223.9 21.4003C228.6 21.7003 233.5 24.2003 235.2 28.6003C239.5 27.0003 244.1 25.6003 248.6 26.5003C253.1 27.4003 257.3 31.2003 257.2 35.8003C262.9 33.7003 269.8 35.4003 273.9 39.9003C278 44.4003 279 51.5003 276.4 56.9003C281.8 55.5003 288 58.2003 290.6 63.1003C293.3 68.0003 292.2 74.6003 288.2 78.4003C291.8 76.2003 297 77.5003 299.2 81.1003C301.4 84.7003 300.1 89.9003 296.5 92.0003C301.8 91.2003 307.3 95.4003 307.8 100.7C308.3 106 303.8 111.3 298.4 111.5C303.5 112 308.3 115.9 309.1 121C309.9 126.1 306.2 131.6 301.1 132.2C305.1 131.6 309.2 135.3 309 139.3C308.8 143.3 304.5 146.7 300.6 145.8C305.9 149.6 305.8 157.9 302.1 163.2C298.4 168.5 292.2 171.4 286.1 173.7C291.4 176.7 294 183.6 292 189.3C290 195 283.6 198.8 277.7 197.9C279.9 203.1 280.2 209.5 276.9 214.1C273.6 218.7 266.3 220.4 262.1 216.6C263.3 220.8 261.2 225.7 257.3 227.6C253.4 229.5 248.2 228.2 245.7 224.7C246 228.3 243.3 231.9 239.7 232.7C236.1 233.4 232.2 231.1 231.1 227.7C231.4 232.5 228.2 237.2 223.7 238.8C219.2 240.4 213.8 238.6 211 234.8C208.9 241.3 202.5 246.2 195.7 246.5C188.9 246.8 182 242.5 179.4 236.1C179.5 241 174 244.5 169.1 244.1C164.2 243.7 160.1 240.6 156.3 237.5C155.1 243.7 151.8 245.4 146.4 246.1C143.5 246.5 141.7 247.4 139 245.8C138.3 245.1 134 240.9 135.2 239.9Z" fill="#120D0C" stroke="#120D0C" stroke-miterlimit="10"/>
<path d="M100.4 98.2997C102 91.9997 104.8 86.0997 108 80.4997C115.9 66.2997 126.4 53.2997 140 44.4997C160.3 31.2997 187 28.6997 209.4 37.7997C231.8 46.8997 249.2 67.4997 254.2 91.0997C259.5 115.9 251.6 141.8 239.7 164.3C225.2 156 208.6 151.9 192 149.6C178.7 147.8 165.1 147.1 151.8 149.2C138.5 151.3 125.5 156.5 115.4 165.4C103 147.9 95.1001 119.4 100.4 98.2997Z" fill="#357370" stroke="#261E18" stroke-width="2" stroke-miterlimit="10"/>
<path d="M111.7 154.9C107.9 148 107.3 139.8 107.6 131.9C108.2 115.1 112.6 98.5002 120.1 83.5002C123.4 77.0002 127.4 70.7002 132.9 65.7002C140.4 58.9002 150.1 55.3002 159.8 52.4002C174.7 48.1002 190.4 45.4002 205.7 48.0002C221 50.6002 235.8 59.1002 243.2 72.8002C249.4 84.3002 249.8 98.0002 249.5 111.1C249.1 128.3 247.8 146 240.3 161.6C242.2 146.2 241.2 130.4 237.5 115.3C235.6 107.8 233 100.3 228.3 94.2002C222.1 86.1002 212.6 81.0002 202.6 79.0002C192.6 77.0002 182.3 77.9002 172.4 80.5002C163.7 82.7002 155.1 86.3002 148.4 92.3002C142.4 97.7002 138.2 104.8 134.2 111.8C129.8 119.4 125.4 127.3 124.6 136C124.2 140.1 127.6 149.2 124.7 151.5C124.4 151.8 109.7 151.4 111.7 154.9Z" fill="#C32C2E" stroke="#261E18" stroke-width="2" stroke-miterlimit="10"/>
<path d="M128.8 105.3C135.2 91.2004 144.8 78.1004 158.1 70.2004C166.2 65.5004 175.6 64.4004 184.7 64.1004C194.2 63.8004 204.8 62.7004 213.8 67.0004C222.7 71.2004 231.9 79.5004 236.3 88.4004C239.1 94.1004 240.6 100.2 241.6 106.4C243.7 118.4 244.3 130.7 243.4 142.9C243.2 146.2 238.3 146.2 238.1 142.9C237.3 134 236.5 125 233.8 116.6C231.1 108.1 226.1 100 218.7 95.1004C213.4 91.6004 207.2 90.0004 201.1 88.6004C189.7 86.0004 177.6 84.4004 166.3 87.6004C152.9 91.4004 142 101.8 135.5 114.1C129.7 125.2 127.6 137.1 126.5 149.3C126.3 151.1 124.5 152.3 122.8 151.5C120.9 150.7 118.9 150.2 117.8 148.6C115.5 145.2 117.8 140.3 118.7 136.7C121.3 125.9 124.3 115.3 128.8 105.3Z" fill="#DDA128" stroke="#261E18" stroke-width="2" stroke-miterlimit="10"/>
<path d="M113.9 134.4C115.612 134.4 117 131.848 117 128.7C117 125.552 115.612 123 113.9 123C112.188 123 110.8 125.552 110.8 128.7C110.8 131.848 112.188 134.4 113.9 134.4Z" fill="#5494CF"/>
<path d="M118.9 115.8C120.612 115.8 122 113.248 122 110.1C122 106.952 120.612 104.4 118.9 104.4C117.188 104.4 115.8 106.952 115.8 110.1C115.8 113.248 117.188 115.8 118.9 115.8Z" fill="#5494CF"/>
<path d="M125.2 97.4996C126.912 97.4996 128.3 94.9476 128.3 91.7996C128.3 88.6516 126.912 86.0996 125.2 86.0996C123.488 86.0996 122.1 88.6516 122.1 91.7996C122.1 94.9476 123.488 97.4996 125.2 97.4996Z" fill="#5494CF"/>
<path d="M137.4 80.4C139.112 80.4 140.5 77.848 140.5 74.7C140.5 71.552 139.112 69 137.4 69C135.688 69 134.3 71.552 134.3 74.7C134.3 77.848 135.688 80.4 137.4 80.4Z" fill="#5494CF"/>
<path d="M154.1 68.9996C155.812 68.9996 157.2 66.4476 157.2 63.2996C157.2 60.1516 155.812 57.5996 154.1 57.5996C152.388 57.5996 151 60.1516 151 63.2996C151 66.4476 152.388 68.9996 154.1 68.9996Z" fill="#5494CF"/>
<path d="M173 63.4C174.712 63.4 176.1 60.848 176.1 57.7C176.1 54.552 174.712 52 173 52C171.288 52 169.9 54.552 169.9 57.7C169.9 60.848 171.288 63.4 173 63.4Z" fill="#5494CF"/>
<path d="M191 60.8004C192.712 60.8004 194.1 58.2484 194.1 55.1004C194.1 51.9524 192.712 49.4004 191 49.4004C189.288 49.4004 187.9 51.9524 187.9 55.1004C187.9 58.2484 189.288 60.8004 191 60.8004Z" fill="#5494CF"/>
<path d="M208.9 63.1002C210.612 63.1002 212 60.5482 212 57.4002C212 54.2522 210.612 51.7002 208.9 51.7002C207.188 51.7002 205.8 54.2522 205.8 57.4002C205.8 60.5482 207.188 63.1002 208.9 63.1002Z" fill="#5494CF"/>
<path d="M225.6 72.1998C227.312 72.1998 228.7 69.6478 228.7 66.4998C228.7 63.3518 227.312 60.7998 225.6 60.7998C223.888 60.7998 222.5 63.3518 222.5 66.4998C222.5 69.6478 223.888 72.1998 225.6 72.1998Z" fill="#5494CF"/>
<path d="M239.5 85.9996C241.212 85.9996 242.6 83.4476 242.6 80.2996C242.6 77.1516 241.212 74.5996 239.5 74.5996C237.788 74.5996 236.4 77.1516 236.4 80.2996C236.4 83.4476 237.788 85.9996 239.5 85.9996Z" fill="#5494CF"/>
<path d="M245.8 108.8C247.125 108.8 248.2 106.248 248.2 103.1C248.2 99.9524 247.125 97.4004 245.8 97.4004C244.474 97.4004 243.4 99.9524 243.4 103.1C243.4 106.248 244.474 108.8 245.8 108.8Z" fill="#5494CF"/>
<path d="M245.8 128.7C246.684 128.7 247.4 126.819 247.4 124.5C247.4 122.18 246.684 120.3 245.8 120.3C244.917 120.3 244.2 122.18 244.2 124.5C244.2 126.819 244.917 128.7 245.8 128.7Z" fill="#5494CF"/>
<path d="M165.5 72.7003C161 72.2003 156.8 76.7003 157.5 81.1003C157.6 81.7003 157.8 82.2003 158.1 82.6003C159.1 83.6003 160.8 83.1003 162.1 82.5003C168.2 79.8003 174.2 76.9003 180.2 74.0003" fill="#010101"/>
<path d="M204.4 74.3999C199.4 71.6999 192.2 74.8999 190.8 80.3999C198.1 82.0999 205.6 82.6999 213 82.2999" fill="#010101"/>
<path d="M229.4 87.8996C227.9 87.4996 226.5 86.9996 225 86.5996C225.5 92.5996 230.1 97.9996 235.9 99.2996" fill="#010101"/>
<path d="M233.7 114.1C234.9 117.2 236 120.2 237.2 123.3Z" fill="#010101"/>
<path d="M236.8 110.2C237.6 115.1 238.4 120.1 239.3 125C239.5 126.5 240 128.2 241.3 128.8" fill="#010101"/>
<path d="M148.4 87.0996C142.5 91.3996 137.1 96.2996 132.3 101.8C135.2 102.1 138.2 101.6 140.9 100.4" fill="#010101"/>
<path d="M127.9 117.1C124.6 122.6 122.9 129.1 123.1 135.6C125.8 134.8 127.9 132.2 128.2 129.4" fill="#010101"/>
<path d="M253.1 197.5C253.8 198.8 254.3 200.2 254.1 201.6C253.7 204.1 251.2 205.7 248.7 206.1C246.2 206.5 243.7 206.1 241.2 206.4C240.4 206.5 239.6 206.6 238.8 206.5C238 206.4 237.2 205.8 237.1 205C236.9 204.1 237.6 203.3 238 202.4C238.6 201.2 238.6 199.7 238.9 198.4C239.5 195.8 242.1 188.6 244.9 189C248.1 189.4 251.7 195 253.1 197.5Z" fill="#FFC868" stroke="#261E18" stroke-width="2" stroke-miterlimit="10"/>
<path d="M246.5 186.9C246.3 187.5 246 188.1 245.6 188.6C244.4 189.9 242.3 190 240.9 189.1C237.9 187.2 237.8 181.5 241 179.7C245 177.4 247.5 183.9 246.5 186.9Z" fill="#FFC868" stroke="#261E18" stroke-width="2" stroke-miterlimit="10"/>
<path d="M148.5 250.1C148.5 252.2 148.4 254.3 147.5 256.1C146.6 257.9 144.9 259.1 143.2 260.2C134.3 266.2 124.7 271.1 114.6 274.8C120.5 280.6 126.7 286.1 133 291.5C137.3 295.2 141.8 298.8 146.8 301.7C153.3 305.4 160.5 307.7 167.8 309.5C175.1 311.3 182.6 312.8 190.1 312.7C207 312.4 223.5 303.4 233 289.4C235.6 285.6 237.7 280.8 236.2 276.4C234.9 272.8 231.5 270.5 228.3 268.5C224.9 266.3 221.4 264.1 218 262C214.3 259.7 210.4 257 209 252.9C208.2 250.4 208.4 247.7 208.1 245.1C207.5 239.7 204.7 234.8 201.1 230.7C197.5 226.7 193.1 223.4 188.7 220.2C182.6 215.7 175.5 211 168.2 212.6C164.4 213.4 161.2 215.8 158.2 218.2C155.9 219.9 153.5 221.9 152.7 224.6C152.4 225.6 152.4 226.6 151.9 227.6C151.3 228.9 149.6 221.3 149 222.5C148.2 224 148.9 235.2 148.9 236.9C148.6 241.3 148.6 245.7 148.5 250.1Z" fill="#B35F48" stroke="#120D0C" stroke-width="2" stroke-miterlimit="10"/>
<path d="M325.1 638.9C324.3 639.4 323.4 639.6 322.5 639.8C296.6 644.5 270 642.1 243.7 641.3C190.9 639.8 138 645.5 85.3001 642.6C83.7001 642.5 82.0001 642.3 81.1001 641.1C80.3001 640 80.5001 638.6 80.6001 637.3C82.4001 623 84.1001 608.5 86.7001 594.3C87.0001 592.8 87.3001 591.3 87.6001 589.7C88.0001 587.7 88.4001 585.8 88.8001 583.8C88.9001 583.1 89.1001 582.5 89.2001 581.8C89.6001 580.2 89.9001 578.6 90.3001 576.9C90.5001 575.9 90.8001 574.9 91.0001 573.9C91.7001 571.2 92.4001 568.6 93.1001 566C93.5001 564.6 93.9001 563.3 94.3001 561.9C95.3001 558.5 96.5001 555.2 97.7001 551.9C98.4001 549.9 99.2001 547.9 100 546C100.4 545 100.8 543.9 101.3 542.9C101.3 542.9 101.3 542.9 101.3 542.8C104.4 535.5 108 528.4 111.6 521.4C117.6 509.5 122.6 495.4 130.2 484.5C136.3 475.8 149.3 483 158.6 483.1C177.1 483.4 195.6 483.6 214 483.6C227.3 483.6 240.7 483.5 253.7 480.9C260.2 479.6 266.6 477.6 273.2 477.7C279.8 477.8 286.9 480.5 290.1 486.3C291.3 488.5 291.8 491.6 290.1 493.4C289.3 494.3 288.2 494.7 287.4 495.6C285.9 497.5 286.9 500.2 287.9 502.4C289.9 506.7 291.6 511.2 293.3 515.6C294 517.6 294.7 519.5 295.4 521.5C296.3 524.1 297.1 526.7 297.9 529.3C298.2 530.4 298.5 531.4 298.8 532.5C299.3 534.3 299.8 536.1 300.3 537.9C300.6 538.8 300.8 539.7 301 540.6C302.3 545.6 303.6 550.6 304.7 555.7C305.1 557.6 305.6 559.5 306 561.3C306.8 564.6 307.5 568 308.3 571.3C308.5 572.3 308.8 573.4 309 574.4C309.3 575.7 309.6 576.9 309.9 578.2C310.1 579.2 310.4 580.3 310.6 581.3C310.8 582.2 311 583.1 311.3 584C311.3 584.1 311.4 584.3 311.4 584.4C315.1 600 319.3 615.4 325.2 630.1C326.7 633.3 327.6 637.1 325.1 638.9Z" fill="#C32C2E" stroke="#261E18" stroke-width="2" stroke-miterlimit="10"/>
<path d="M118.1 516.501C115.9 514.901 107.9 535.001 104.7 538.501C101.5 542.001 96.6998 551.101 98.0998 552.101C98.4998 552.401 99.1998 552.301 99.8998 551.901C101.9 551.001 103.3 549.201 103.8 547.101C106 539.401 120 517.901 118.1 516.501Z" fill="#DDA128"/>
<path d="M121.7 525.901C121.9 522.201 124.3 521.201 124.3 521.201C124.3 521.201 125 520.701 125.5 519.901C126.5 518.601 124.5 517.001 123.4 518.201C122.6 519.001 121.7 520.201 121 521.701C119.4 525.001 108.2 544.001 108.5 547.201C108.8 550.301 105 552.801 109.1 552.301C110.7 552.101 110.8 542.401 114.5 538.401C118.2 534.401 118.2 534.401 118.2 534.401C118.2 534.401 121.5 529.601 121.7 525.901Z" fill="#DDA128"/>
<path d="M153.9 516.5C152 517.9 166 539.4 168.2 547.2C168.8 549.3 170.2 551.1 172.1 552C172.8 552.3 173.5 552.5 173.9 552.2C175.3 551.2 170.5 542.1 167.3 538.6C164.1 535 156 515 153.9 516.5Z" fill="#DDA128"/>
<path d="M163.4 547.2C163.7 544.1 152.5 525.1 150.9 521.7C150.2 520.1 149.3 519 148.5 518.2C147.4 517 145.4 518.5 146.4 519.9C146.9 520.6 147.6 521.2 147.6 521.2C147.6 521.2 150 522.2 150.2 525.9C150.4 529.6 153.6 534.4 153.6 534.4C153.6 534.4 153.6 534.4 157.3 538.4C161 542.4 161.1 552.1 162.7 552.3C166.9 552.8 163.1 550.4 163.4 547.2Z" fill="#DDA128"/>
<path d="M135.6 517C132.3 518.2 112.8 549.9 117.1 552.6C121.4 555.3 150.7 552.6 150.7 552.6C161.2 551.9 138.9 515.9 135.6 517ZM148.6 548.5C148.5 551.2 139.6 552.3 127.7 550.9C115.8 549.4 125.2 540.2 127.2 536.1C128.6 533.3 132.7 528.4 135.1 525.5C136.1 524.3 137.9 524.3 139 525.4L141.3 527.8C141.3 527.8 141.3 528.5 141.1 532.6C140.9 535.6 145.1 541.3 147.3 544.1C148.2 545.3 148.7 546.7 148.6 548.2V548.5Z" fill="#DDA128"/>
<path d="M136.6 533.7C136.6 533.7 135.2 533.1 132.2 536.6C129.2 540 123.9 546.4 129.5 547C135.1 547.6 140 546.9 143.1 547.2C146.2 547.5 139.9 541.6 139.5 539.1C139.1 536.7 138.7 533.5 136.6 533.7Z" fill="#DDA128"/>
<path d="M201.9 516.5C197.6 513.7 168.3 516.5 168.3 516.5C157.9 517.3 180.1 553.3 183.4 552.1C186.7 551 206.2 519.3 201.9 516.5Z" fill="#DDA128"/>
<path d="M212.5 516.501C210.3 514.901 202.3 535.001 199.1 538.501C195.9 542.001 191.1 551.101 192.5 552.101C192.9 552.401 193.6 552.301 194.3 551.901C196.3 551.001 197.7 549.201 198.2 547.101C200.4 539.401 214.4 517.901 212.5 516.501Z" fill="#5494CF"/>
<path d="M216.1 525.901C216.3 522.201 218.7 521.201 218.7 521.201C218.7 521.201 219.4 520.701 219.9 519.901C220.9 518.601 218.9 517.001 217.8 518.201C217 519.001 216.1 520.201 215.4 521.701C213.8 525.001 202.6 544.001 202.9 547.201C203.2 550.301 199.4 552.801 203.5 552.301C205.1 552.101 205.2 542.401 208.9 538.401C212.6 534.401 212.6 534.401 212.6 534.401C212.6 534.401 215.9 529.601 216.1 525.901Z" fill="#5494CF"/>
<path d="M248.3 516.5C246.4 517.9 260.4 539.4 262.6 547.2C263.2 549.3 264.6 551.1 266.5 552C267.2 552.3 267.9 552.5 268.3 552.2C269.7 551.2 264.9 542.1 261.7 538.6C258.5 535 250.5 515 248.3 516.5Z" fill="#5494CF"/>
<path d="M257.8 547.2C258.1 544.1 246.9 525.1 245.3 521.7C244.6 520.1 243.7 519 242.9 518.2C241.8 517 239.8 518.5 240.8 519.9C241.3 520.6 242 521.2 242 521.2C242 521.2 244.4 522.2 244.6 525.9C244.8 529.6 248 534.4 248 534.4C248 534.4 248 534.4 251.7 538.4C255.4 542.4 255.5 552.1 257.1 552.3C261.4 552.8 257.5 550.4 257.8 547.2Z" fill="#5494CF"/>
<path d="M230 517C226.7 518.2 207.2 549.9 211.5 552.6C215.8 555.3 245.1 552.6 245.1 552.6C255.6 551.9 233.4 515.9 230 517ZM243 548.5C242.9 551.2 234 552.3 222.1 550.9C210.2 549.4 219.6 540.2 221.6 536.1C223 533.3 227 528.4 229.5 525.5C230.5 524.3 232.3 524.3 233.4 525.4L235.7 527.8C235.7 527.8 235.7 528.5 235.5 532.6C235.3 535.6 239.5 541.3 241.7 544.1C242.6 545.3 243.1 546.7 243 548.2V548.5Z" fill="#5494CF"/>
<path d="M231 533.7C231 533.7 229.6 533.1 226.6 536.6C223.6 540 218.3 546.4 223.9 547C229.5 547.6 234.4 546.9 237.5 547.2C240.6 547.5 234.3 541.6 233.9 539.1C233.5 536.7 233.2 533.5 231 533.7Z" fill="#5494CF"/>
<path d="M295.6 521.8C292.4 531.6 279.9 551.301 277.2 552.201C273.9 553.401 251.6 517.4 262.1 516.6C262.1 516.6 285.5 514.401 293.5 515.901C294.3 517.801 295 519.8 295.6 521.8Z" fill="#5494CF"/>
<path d="M299 532.7C296 538.3 293 544 292 547.2C291.4 549.3 290 551.1 288 552C287.3 552.3 286.6 552.5 286.2 552.2C284.8 551.2 289.6 542.1 292.8 538.6C294 537.3 295.9 533.6 297.9 529.5C298.4 530.6 298.7 531.6 299 532.7Z" fill="#5494CF"/>
<path d="M301.3 540.801C299.1 545.401 298.8 552.201 297.5 552.401C293.4 552.801 297.2 550.401 296.9 547.301C296.8 546.101 298.4 542.401 300.6 538.101C300.8 539.001 301 539.901 301.3 540.801Z" fill="#5494CF"/>
<path d="M106.8 606.1C104.3 604.5 94.8001 624.6 91.1001 628.1C87.3001 631.6 81.7 640.7 83.3 641.7C83.8 642 84.6 641.9 85.4 641.5C87.7 640.6 89.3001 638.8 90.0001 636.7C92.7001 628.9 109.1 607.5 106.8 606.1Z" fill="#DDA128"/>
<path d="M111 615.4C111.2 611.7 114 610.7 114 610.7C114 610.7 114.8 610.2 115.5 609.4C116.6 608.1 114.4 606.5 113.1 607.7C112.2 608.5 111.2 609.7 110.3 611.2C108.5 614.5 95.3002 633.5 95.7002 636.7C96.0002 639.8 91.6002 642.3 96.4002 641.8C98.3002 641.6 98.3002 631.9 102.7 627.9C107.1 623.9 107.1 623.9 107.1 623.9C107.1 623.9 110.8 619.2 111 615.4Z" fill="#DDA128"/>
<path d="M148.7 606.1C146.4 607.5 162.9 629 165.5 636.8C166.2 638.9 167.8 640.7 170.1 641.6C170.9 641.9 171.7 642.1 172.2 641.8C173.8 640.8 168.2 631.7 164.4 628.2C160.7 624.6 151.2 604.5 148.7 606.1Z" fill="#DDA128"/>
<path d="M159.9 636.8C160.2 633.7 147.1 614.7 145.3 611.3C144.4 609.7 143.4 608.6 142.5 607.8C141.2 606.6 138.9 608.1 140.1 609.5C140.7 610.2 141.6 610.8 141.6 610.8C141.6 610.8 144.4 611.8 144.6 615.5C144.8 619.2 148.6 624 148.6 624C148.6 624 148.6 624 153 628C157.4 632 157.4 641.7 159.3 641.9C164 642.3 159.5 639.9 159.9 636.8Z" fill="#DDA128"/>
<path d="M127.3 606.6C123.4 607.8 100.6 639.5 105.7 642.2C110.8 644.9 145 642.2 145 642.2C157.3 641.4 131.3 605.4 127.3 606.6ZM142.5 638C142.4 640.7 132 641.8 118.1 640.4C104.2 638.9 115.2 629.7 117.5 625.6C119.1 622.8 123.9 617.9 126.7 615C127.9 613.8 130 613.8 131.3 614.9L134 617.3C134 617.3 134 618 133.7 622.1C133.5 625.1 138.3 630.8 141 633.6C142.1 634.8 142.6 636.2 142.6 637.7L142.5 638Z" fill="#C32C2E"/>
<path d="M128.5 623.3C128.5 623.3 126.8 622.7 123.4 626.2C119.9 629.6 113.7 636 120.3 636.6C126.9 637.2 132.6 636.5 136.2 636.8C139.8 637.1 132.4 631.2 132 628.7C131.4 626.2 131 623.1 128.5 623.3Z" fill="#C32C2E"/>
<path d="M204.9 606.1C199.8 603.3 165.5 606.1 165.5 606.1C153.3 606.9 179.3 642.9 183.2 641.7C187.2 640.5 209.9 608.8 204.9 606.1Z" fill="#C32C2E"/>
<path d="M217.3 606.099C214.8 604.499 205.3 624.599 201.6 628.099C197.8 631.599 192.2 640.699 193.8 641.699C194.3 641.999 195.1 641.899 195.9 641.499C198.2 640.599 199.8 638.799 200.5 636.699C203.1 628.899 219.6 607.499 217.3 606.099Z" fill="#DDA128"/>
<path d="M221.5 615.4C221.7 611.7 224.5 610.7 224.5 610.7C224.5 610.7 225.3 610.2 226 609.4C227.1 608.1 224.9 606.5 223.6 607.7C222.7 608.5 221.7 609.7 220.8 611.2C219 614.5 205.8 633.5 206.2 636.7C206.5 639.8 202.1 642.3 206.9 641.8C208.8 641.6 208.8 631.9 213.2 627.9C217.6 623.9 217.6 623.9 217.6 623.9C217.6 623.9 221.3 619.2 221.5 615.4Z" fill="#DDA128"/>
<path d="M259.2 606.099C256.9 607.499 273.4 628.999 276 636.799C276.7 638.899 278.3 640.699 280.6 641.599C281.4 641.899 282.2 642.099 282.7 641.799C284.3 640.799 278.7 631.699 274.9 628.199C271.1 624.599 261.7 604.499 259.2 606.099Z" fill="#DDA128"/>
<path d="M270.3 636.799C270.6 633.699 257.5 614.699 255.7 611.299C254.8 609.699 253.8 608.599 252.9 607.799C251.6 606.599 249.3 608.099 250.5 609.499C251.1 610.199 252 610.799 252 610.799C252 610.799 254.8 611.799 255 615.499C255.2 619.199 259 623.999 259 623.999C259 623.999 259 623.999 263.4 627.999C267.8 631.999 267.8 641.699 269.7 641.899C274.4 642.299 270 639.899 270.3 636.799Z" fill="#DDA128"/>
<path d="M237.8 606.6C233.9 607.8 211.1 639.5 216.2 642.2C221.3 644.9 255.5 642.2 255.5 642.2C267.7 641.4 241.7 605.4 237.8 606.6ZM253 638C252.9 640.7 242.5 641.8 228.6 640.4C214.7 638.9 225.7 629.7 228 625.6C229.6 622.8 234.4 617.9 237.2 615C238.4 613.8 240.5 613.8 241.8 614.9L244.5 617.3C244.5 617.3 244.5 618 244.2 622.1C244 625.1 248.8 630.8 251.4 633.6C252.5 634.8 253 636.2 253 637.7V638Z" fill="#C32C2E"/>
<path d="M239 623.3C239 623.3 237.3 622.7 233.9 626.2C230.4 629.6 224.2 636 230.8 636.6C237.4 637.2 243.1 636.5 246.7 636.8C250.3 637.1 242.9 631.2 242.5 628.7C241.9 626.2 241.5 623.1 239 623.3Z" fill="#C32C2E"/>
<path d="M314.5 611.3C310.8 621.1 296.1 640.8 293 641.7C289.1 642.9 263.1 606.899 275.3 606.099C275.3 606.099 302.6 603.9 312.1 605.4C312.9 607.3 313.7 609.3 314.5 611.3Z" fill="#C32C2E"/>
<path d="M318.5 622.2C314.9 627.8 311.4 633.5 310.3 636.7C309.6 638.8 308 640.6 305.7 641.5C304.9 641.8 304.1 642 303.6 641.7C302 640.7 307.6 631.6 311.4 628.1C312.8 626.8 315.1 623.1 317.4 619C317.8 620.1 318.1 621.2 318.5 622.2Z" fill="#DDA128"/>
<path d="M309.3 574.7C307.1 574.3 304.9 573.9 302.7 573.9C297 574 292.6 576.5 287.9 578.2C280.4 581 270.6 581.9 261.8 580.8C254.5 579.8 247.7 577.5 240.2 577.6C232.9 577.6 226.3 579.9 219.6 581.6C207.3 584.5 193.3 585.2 180.2 583.5C175.3 582.8 170.4 581.8 165.3 581.8C158.9 581.8 152.9 583.3 146.7 584.2C136.6 585.7 125.3 585.5 116.4 582.5C110.4 580.5 104.6 577.2 97.8 578C94.1 578.4 94.8 579.2 91.1 577.6C90.8 577.5 90.5 577.3 90.4 577.2C89.2 576.2 90.1 574.6 91.1 574.2C91.4 574.1 91.7 574 91.9 574.1C99 575.4 103.5 573.1 110.5 575.2C116.8 577.1 122.2 580 129.2 580.9C139.4 582.2 149.5 578.8 160 578.3C174.7 577.6 189.4 582.6 203.7 580.7C210.5 579.8 216.4 577.4 222.9 575.9C230.3 574.2 238.7 573.7 246.6 574.5C255.7 575.4 264.4 578 273.6 577.6C276.3 577.5 279.1 577.1 281.1 576.1C282.6 575.4 283.6 574.3 284.8 573.5C288.4 571 294.7 569.6 300.5 570.1C303.3 570.3 306 571 308.7 571.6C308.9 572.6 309.1 573.6 309.3 574.7Z" fill="#1F8B44"/>
<path d="M311 581.6C308.6 581.2 306.3 580.7 303.8 580.7C298.1 580.8 293.7 583.3 289 585C281.5 587.8 271.7 588.7 262.9 587.6C255.6 586.6 248.8 584.3 241.3 584.4C234 584.4 227.4 586.8 220.7 588.4C208.4 591.3 194.4 592 181.3 590.3C176.4 589.6 171.5 588.7 166.4 588.6C160 588.6 154 590.1 147.8 591C137.7 592.5 126.4 592.3 117.5 589.3C111.5 587.3 105.7 584 98.8998 584.8C95.1998 585.2 93.5998 586 89.8998 584.4C89.4998 584.2 89.1998 584.1 88.9998 583.9C87.4998 583.1 87.6998 582.6 89.3998 581.9C89.5998 581.8 89.6998 581.8 89.8998 581.7C96.6998 579.4 104.7 579.7 111.7 581.8C118 583.7 123.4 586.6 130.4 587.5C140.6 588.8 150.8 585.4 161.2 584.9C175.9 584.2 190.6 589.2 204.9 587.3C211.7 586.4 217.6 584 224.1 582.5C231.5 580.8 239.9 580.3 247.8 581.1C256.9 582 265.6 584.6 274.8 584.2C277.5 584.1 280.3 583.7 282.3 582.7C283.8 582 284.8 580.9 286 580.1C289.6 577.6 295.9 576.2 301.7 576.7C304.7 577 307.5 577.7 310.4 578.3C310.5 579.5 310.7 580.6 311 581.6Z" fill="#1F8B44"/>
<path d="M94.3999 562C103.5 563.4 106.9 563.7 116.2 564.7C125.6 565.7 135.1 566.5 144.7 567.2C153 567.7 161.3 568.2 169.7 568.3C191.6 568.7 213.4 566.8 235.1 565C256.5 563.2 277.7 560.5 298.7 557.3C301.7 556.8 302 556.4 305 555.9C305.4 556.6 306.2 560.9 306.5 561.6C306.2 561 277.1 564.2 274 564.6C244.7 569 210.6 571.5 180.5 571.9C166 572.1 151.2 571 136.7 570C133.2 569.8 92.3 568.4 93.1 565.9C94 562.9 94.1 562.4 94.1 562.4L94.3999 562Z" fill="#1F8B44"/>
<path d="M89.6001 590.3C98.7001 591.8 108 592.9 117.3 593.9C126.7 594.9 136.2 595.8 145.8 596.4C154.1 597 162.4 597.4 170.8 597.6C192.7 598 214.5 596.1 236.2 594.2C257.6 592.3 278.8 589.6 299.8 586.3C302.8 585.8 308.6 584.8 311.6 584.3C312 585 311.7 590 312 590.7C311.7 590.1 278.3 593.3 275.1 593.8C245.8 598.3 211.7 600.9 181.6 601.3C167.1 601.5 152.3 600.4 137.8 599.4C134.3 599.2 85.4001 596.3 86.2001 593.8C87.1001 590.7 87.6001 589.8 87.6001 589.8L89.6001 590.3Z" fill="#1F8B44"/>
<path d="M111.8 521.5C107.7 529.6 103.6 537.7 100.2 546.1C88.4 575 84.5 606.3 80.7 637.3C80.5 638.6 80.4 640 81.2 641.1C82.1 642.4 83.9 642.6 85.4 642.6C138.2 645.4 191 639.8 243.8 641.3C270.1 642 296.7 644.5 322.6 639.8C323.5 639.6 324.4 639.4 325.2 638.9C327.7 637.2 326.7 633.4 325.6 630.6C308.9 589.4 306.5 543.2 288.2 502.6C287.2 500.4 286.2 497.7 287.7 495.8C288.4 494.9 289.6 494.4 290.4 493.6C292.1 491.7 291.7 488.7 290.4 486.5C287.2 480.7 280.1 478 273.5 477.9C266.9 477.8 260.4 479.8 254 481.1C241 483.8 227.6 483.9 214.3 483.9C195.8 483.9 177.3 483.7 158.9 483.4C149.6 483.2 136.6 476 130.5 484.8C122.7 495.5 117.7 509.6 111.8 521.5Z" stroke="#261E18" stroke-width="2" stroke-miterlimit="10"/>
<path d="M69 274C59.4 275.4 50.2 279.5 42.7 285.5C43.3 288.5 43.9 291.5 44.5 294.4C29.4 302.1 25.5 325.4 37.3 337.6C39.3 339.7 41.6 341.4 43 344C44.3 346.5 44.4 349.3 44.5 352.1C45.3 375 45.8 398 44.2 420.8C42.6 443.8 38.8 466.6 33 488.9C27.4 510.1 20 530.9 16.9 552.6C16.5 555.1 16.3 557.6 16.8 560.1C17.8 564 20.9 567.1 24.1 569.6C33.5 577 45 581.8 56.9 583.3C59.2 583.6 61.7 583.7 63.7 582.7C66.2 581.5 67.6 578.9 68.8 576.5C79 556.2 86.1 534.2 89.7 511.8C90.4 507.3 91 502.7 92.9 498.5C94.2 495.7 96.1 493.2 97.2 490.4C98.6 486.9 98.9 483 99.2 479.2C101.2 454.2 106.8 429.5 115.9 406.1C118.6 424.4 121.3 442.6 123.9 460.9C124.8 466.7 125.7 472.8 129.2 477.6C133.3 483.2 140.1 486.1 146.7 488.3C187 501.3 230.7 495.7 272.7 490C276.8 489.4 281.1 488.8 284.7 486.7C293.8 481.3 295.1 468.6 293.5 458.2C291.9 447.7 288.5 436.9 291.9 426.9C295 417.9 303.4 410 301.5 400.7C321.6 422.8 348.3 438.9 377.2 446.3C384.4 448.1 392.1 449.5 399.1 447C412.9 442.2 418 425.8 421.2 411.6C423.9 399.6 426.6 387.7 429.4 375.7C429.6 374.7 429.8 373.7 429.5 372.8C429.1 371.7 427.9 371.1 426.9 370.6C414.5 364.6 402.1 358.5 389.8 352.5C382.7 361.6 375.5 370.7 368.4 379.8C356.9 365.6 345.4 351.5 333.8 337.3C326.3 328.1 318.5 318.1 317.9 306.2C317.6 300.7 319 295.2 319 289.7C319 284.2 317 278.1 312.2 275.5C314.3 270 307.1 263.7 301.9 266.5C302.7 259.4 295.5 252.6 288.5 253.9C287.9 248.4 281.4 245.3 275.9 245.9C270.4 246.5 265.6 249.7 260.6 252.2C244.6 260.1 225.2 260.7 208.8 253.9C209.3 264.3 228.2 266.2 228.2 276.7C228.2 279.3 226.9 281.6 225.4 283.8C215.1 299.3 196.8 309 178.2 308.9C154.4 308.8 134 294.1 117.7 278.2C111.7 272.4 107.2 268.4 98.6 266.7C93.3 265.6 87.8 265.6 82.6 267C77.9 268.1 72.8 273.4 69 274Z" fill="#357370" stroke="#261E18" stroke-width="2" stroke-miterlimit="10"/>
<path d="M110.7 272.4C110.2 272.1 111 271.4 111.6 271.4C114.8 271.3 118 271.2 121.2 271.1C118.4 273.1 118 277.8 120.4 280.3C117.5 276.8 114.2 273.6 110.7 270.7" fill="#252061"/>
<path d="M110.7 272.4C110.2 272.1 111 271.4 111.6 271.4C114.8 271.3 118 271.2 121.2 271.1C118.4 273.1 118 277.8 120.4 280.3C117.5 276.8 114.2 273.6 110.7 270.7" stroke="#261E18" stroke-width="2" stroke-miterlimit="10"/>
<path opacity="0.51" d="M153.9 413.9C158 416.2 162.5 417.6 167 419C182.2 423.7 198.5 428.1 213.7 423.7C220.1 421.9 226 418.5 232.5 417.1C243.3 414.8 254.4 418 265.4 419.4C276.4 420.8 289 419.8 296.2 411.4C286.7 420.2 273 424.3 260.2 422.2C252.9 421 245.8 417.9 238.4 418.4C229.9 418.9 222.5 424 214.3 426.4C197.8 431.3 180.3 424.8 164.4 418.4C159.4 416.4 154.4 414.4 149.8 411.4C144.4 407.9 139.5 403.1 135.9 397.9C142.8 402.1 146.6 409.9 153.9 413.9Z" fill="#010101"/>
<path d="M123 347.1C123.1 332.6 121.4 317.7 114.6 305C121.9 322.3 125 341.3 123.7 360.1C122.9 372.2 120.6 384.6 117.1 396.2C118.3 379.7 122.8 363.9 123 347.1Z" fill="#010101"/>
<path d="M278.4 298.1C281.7 309.2 290 317.9 296.2 327.8C308.7 347.9 311.7 373.7 304.1 396.2C311.3 374 308.7 348.8 297 328.6C289.3 315.4 277.8 303.8 274.5 288.8" fill="#010101"/>
<path d="M266.4 270.2C266.6 281.4 269 292.5 273.3 302.9Z" fill="#010101"/>
<path d="M367.9 377.3C369.8 385.3 371 393.6 371.3 401.8Z" fill="#010101"/>
<path d="M57.8999 497C68.8999 496.2 79.8999 494.5 90.5999 491.9Z" fill="#010101"/>
<path d="M69.3999 506.2C76.9999 504.9 84.4999 502.3 91.1999 498.4Z" fill="#010101"/>
<path d="M37.7002 521.4C36.7002 522.7 35.7002 524 34.7002 525.4C38.0002 526.3 41.6002 526.3 44.8002 525.2" fill="white"/>
<path d="M63.9001 530.2C62.4001 531.5 61.1001 533 60.1001 534.7C62.8001 535.1 65.5001 535.1 68.2001 534.5" fill="white"/>
<path d="M41.5004 554.2C41.1004 554.9 40.7004 555.5 40.4004 556.2C41.3004 557 42.6004 557.3 43.7004 556.9" fill="white"/>
<path d="M50.8004 495.801C49.3004 497.501 48.3004 499.601 47.9004 501.801C49.5004 502.501 51.4004 502.501 52.9004 501.701" fill="white"/>
<path d="M81.6001 470.301C80.3001 471.101 81 473.401 82.4 474.001C83.8 474.601 85.4 474.201 86.9 473.801" fill="white"/>
<path d="M54.1 463.601C52.3 465.001 51.1 467.001 50.5 469.201C52.7 469.901 55.1 470.001 57.3 469.501" fill="white"/>
<path d="M95.1 421C93.8 422.1 93 423.8 93 425.5C95.5 426 98 426.4 100.4 426.9" fill="white"/>
<path d="M71.6002 415C69.8002 415.7 68.1002 416.8 66.7002 418.2C67.2002 419.7 68.8002 420.9 70.5002 420.9" fill="white"/>
<path d="M54.5001 383.2C53.7001 384.6 52.9001 386 52.1001 387.4C54.0001 388.5 56.3001 388.8 58.4001 388.1" fill="white"/>
<path d="M92.3004 368.601C90.8004 369.901 89.6004 371.501 88.9004 373.301C90.4004 373.701 91.9004 374.201 93.4004 374.601" fill="white"/>
<path d="M66.6004 341.801C65.1004 343.401 63.9004 345.101 62.9004 347.001C64.2004 348.401 66.4004 349.001 68.3004 348.301" fill="white"/>
<path d="M60.6003 306.2C59.0003 307 57.4003 307.7 55.8003 308.5C57.6003 309.4 59.7003 309.7 61.7003 309.4" fill="white"/>
<path d="M84.1003 283.9C82.5003 284.8 80.9003 285.8 79.3003 286.7C80.1003 287.9 81.6003 288.7 83.0003 288.7" fill="white"/>
<path d="M100.5 316.101C98.8002 316.701 97.2002 317.501 95.7002 318.501C97.5002 319.701 99.5002 320.501 101.6 320.901" fill="white"/>
<path d="M276.3 256.1C274.7 256 273.1 256.5 271.9 257.5C273.4 258.4 275.1 259 276.8 259.2" fill="white"/>
<path d="M294.3 263.7C293.4 264.5 292.5 265.3 291.6 266.1C292.6 267.6 294.2 268.7 296 269" fill="white"/>
<path d="M316.2 285.5C315.8 287 315.5 288.4 315.1 289.9Z" fill="white"/>
<path d="M304.7 311.2C303.1 311.7 301.7 312.5 300.4 313.5C301.3 314.7 302.4 315.7 303.6 316.6" fill="white"/>
<path d="M321.5 340.601C319.9 344.601 323.3 349.701 327.6 349.601Z" fill="white"/>
<path d="M317.3 369.601C316.8 370.601 316.2 371.501 315.7 372.501C316.4 374.101 317.9 375.301 319.5 375.601" fill="white"/>
<path d="M333.7 407.9C333.1 409.4 333.6 411.2 334.7 412.2Z" fill="white"/>
<path d="M340.8 360.4C341.9 361.7 343.5 362.7 345.2 363.1Z" fill="white"/>
<path d="M362.1 394.801C360.4 395.801 358.9 397.101 357.8 398.601C359 400.801 360.6 402.601 362.7 404.001" fill="white"/>
<path d="M377.5 424.301C375.8 426.501 377.9 430.301 380.7 430.101Z" fill="white"/>
<path d="M398.6 393.7C398.4 394.8 398.2 395.9 398.1 397Z" fill="white"/>
<path d="M386.7 373.5C385.8 375.1 386.3 377.3 387.7 378.4Z" fill="white"/>
<path d="M418.3 380.601C419.6 381.901 420.8 383.101 422.1 384.401Z" fill="white"/>
<path d="M136.7 112.5C142.1 102.9 150 94.2995 160.3 90.2995C164.6 88.5995 169.1 87.7995 173.7 87.1995C183.3 85.8995 193.2 85.5995 202.6 87.8995C212 90.1995 221.1 94.9995 227 102.7C233.3 110.8 235.7 121.3 236.7 131.6C237.7 141.9 237.6 152.2 239.6 162.3C240.8 168.3 242.7 174.2 243.3 180.3C245.1 200.3 232.1 218.5 219.2 233.9C211.8 242.7 203.1 252 191.6 253.5C182.4 254.7 173.3 250.4 165.7 245.1C144.5 230.3 130.2 206 127.5 180.3C126.8 183.4 122.3 184.4 119.6 182.7C116.9 181 115.6 177.8 114.7 174.7C113.3 169.9 112.5 164.9 112.2 160C112.1 158.1 112.1 156.2 112.8 154.5C114 151.4 117.7 149.5 120.9 150.1C124.1 150.7 126.7 154 126.6 157.4C126.7 153.7 126.2 149.8 126.1 146C126 142 126.6 138.7 127.8 135C128.7 132.5 129.5 129.9 130.5 127.4C132.3 122.2 134.3 117.3 136.7 112.5Z" fill="#B35F48" stroke="#120D0C" stroke-width="2" stroke-miterlimit="10"/>
<path d="M118.5 161.6C120.3 164.6 121.6 167.9 122.4 171.4C122.2 170 122.2 168.4 122.7 167C124.1 169.5 125.1 172.2 125.6 175C124.3 169 121.9 163.3 118.6 158.2" fill="#010101"/>
<path d="M122.5 186.4C122.4 187.9 122.5 189.5 123.2 190.8C123.9 192.2 125.3 193.2 126.8 193.1C127.3 193.1 127.8 192.9 128.1 192.5C128.4 192.1 128.5 191.6 128.5 191C128.7 188.3 128.7 181.8 126.4 179.8C122.9 176.9 122.6 184.1 122.5 186.4Z" fill="#FFC868" stroke="#261E18" stroke-width="2" stroke-miterlimit="10"/>
<path d="M121.1 189.7C119.1 190.8 117 191.9 115.5 193.6C114 195.3 113 197.6 113.4 199.9C113.8 202.5 116 204.5 118.3 205.9C121.2 207.7 124.6 208.7 128 209C129.1 209.1 130.2 209.1 131.3 208.7C133.3 207.9 134.3 205.5 134.2 203.4C134.1 201.3 133.2 199.2 132.2 197.3C131 194.9 129.9 192.3 128.2 190.2C125.6 187 124.5 188 121.1 189.7Z" fill="#FFC868" stroke="#261E18" stroke-width="2" stroke-miterlimit="10"/>
<path d="M173.9 138.2C171.3 138 169 136.5 166.6 135.4C157.2 131 144.9 133.6 138.1 141.4C141.4 136.7 145.1 131.8 150.5 129.9C153 129 155.6 128.9 158.3 128.8C163.2 128.6 168.2 128.6 172.8 130.4C174.9 131.2 176 132.3 176.2 134.4C176.4 136.3 176.4 138.4 173.9 138.2Z" fill="#010101"/>
<path d="M200 137.4C200.5 137.5 201.1 137.3 201.6 137.2C205.5 135.9 209 133.5 212.7 131.7C216.4 129.9 220.7 128.7 224.6 130C228.8 131.5 231.6 135.5 233.9 139.3C232.8 136.1 230.6 133.4 228.4 130.8C226.1 128.1 223.5 125.3 220.1 124.5C216.9 123.8 213.6 124.8 210.6 126.1C207.3 127.5 203.5 128.9 200.4 130.6C198.3 131.9 196.3 136.9 200 137.4Z" fill="#010101"/>
<path d="M155.8 149.7C160 149.2 164.5 150.2 167.5 153.2C170.4 156.1 171.6 160.7 175.1 163C169.8 162.4 164.5 162.7 159.1 162.5C155.8 162.4 152.4 162 149.3 161.1C147.1 160.5 141.7 158.8 141 156.3C140.1 153.3 153.3 150 155.8 149.7Z" fill="#F3FAFE" stroke="#010101" stroke-miterlimit="10"/>
<path d="M167.91 157.771C168.509 154.568 165.21 151.263 160.541 150.389C155.872 149.516 151.602 151.404 151.002 154.608C150.403 157.811 153.702 161.115 158.371 161.989C163.04 162.862 167.311 160.974 167.91 157.771Z" fill="#010101"/>
<path d="M137.4 148.9C137.6 149.8 138.5 150.5 139.5 150.7C140.4 150.9 141.4 150.8 142.4 150.6C146.7 149.8 150.9 148.4 155.3 148C159.7 147.6 164.4 148.5 167.5 151.6C170.4 154.5 171.3 158.9 174.1 161.9C172.1 161 171.1 158.7 169.6 157C168.7 156 167.7 155.1 166.5 154.4C161 151.1 153.7 151.3 148.3 154.8C145.5 156.6 143.9 159.5 140.5 156.8C138.5 155.1 137 151.6 137.4 148.9Z" fill="#010101"/>
<path d="M221.1 147C216.9 146.5 212.4 147.5 209.4 150.5C206.5 153.4 205.3 158 201.8 160.3C207.1 159.7 212.4 160 217.8 159.8C221.1 159.7 224.5 159.3 227.6 158.4C229.8 157.8 235.2 156.1 235.9 153.6C236.8 150.6 223.5 147.3 221.1 147Z" fill="#F3FAFE" stroke="#010101" stroke-miterlimit="10"/>
<path d="M218.512 159.396C223.181 158.522 226.48 155.218 225.881 152.015C225.282 148.811 221.011 146.923 216.342 147.796C211.673 148.67 208.374 151.975 208.973 155.178C209.572 158.381 213.843 160.269 218.512 159.396Z" fill="#010101"/>
<path d="M239.4 146.3C239.2 147.2 238.3 147.9 237.3 148.1C236.4 148.3 235.4 148.2 234.4 148C230.1 147.2 225.9 145.8 221.5 145.4C217.1 145 212.4 145.9 209.3 149C206.4 151.9 205.5 156.3 202.7 159.3C204.7 158.4 205.7 156.1 207.2 154.4C208.1 153.4 209.1 152.5 210.3 151.8C215.8 148.5 223.1 148.7 228.5 152.2C231.3 154 232.9 156.9 236.3 154.2C238.4 152.5 239.8 148.9 239.4 146.3Z" fill="#010101"/>
<path d="M155.7 145.5C152.8 146 149.9 146.8 147.3 148.3C151.4 144.8 157.2 144.5 162.6 144.6C166.5 144.7 168.7 147.2 170.6 150.3C166.4 146 161.8 144.6 155.7 145.5Z" fill="#010101"/>
<path d="M217.2 142.4C221.2 142.2 225.6 142.2 228.8 144.6C224.7 141.2 218.8 140.1 213.7 141.7C210.5 142.7 207.7 144.7 205.7 147.3C208.7 143.6 212.5 142.6 217.2 142.4Z" fill="#010101"/>
<path d="M155.8 167.1C161.2 167.2 166.9 167.1 171.6 164.6C166.8 165.8 162 167 157 167.1C154.6 167.2 152.2 167 149.8 166.6C148.1 166.3 145.5 164.7 143.9 165C147.4 167.1 151.9 167 155.8 167.1Z" fill="#010101"/>
<path d="M219.6 165.5C224.5 165.3 229.6 163.8 233.4 160.7C230.7 162.3 227.9 163.9 224.9 164.6C223.1 165 221.3 165.1 219.5 165.1C215.1 165.1 211.2 164 207 163.4C207.2 165.6 217.6 165.6 219.6 165.5Z" fill="#010101"/>
<path d="M174.4 186C173.3 187.5 173.5 189.7 174.1 191.5C174.5 193 175.3 194.6 176.8 195C177.5 195.2 178.1 195.1 178.8 195C181.1 194.6 183.4 193.9 185.6 194.3C187.5 194.7 189.1 195.8 190.9 196.6C192.7 197.4 194.8 197.9 196.4 196.9C197.9 196.1 198.7 194.3 200.3 193.9C201.9 193.4 203.7 194.4 205.3 194C206.6 193.7 207.6 192.4 208 191.1C209.1 187.9 207.7 184 204.7 182.3C207.6 184 209.2 187.6 208.6 190.9C208.3 192.6 207.3 194.2 205.7 194.7C204 195.2 202.1 194 200.4 194.4C199 194.7 198 195.7 196.9 196.6C194.7 198.2 191.5 198.9 189.3 197.4C188.3 196.7 187.7 195.7 186.6 195.1C184.2 193.8 181.3 195.7 178.6 195.7C176.4 195.7 174.2 194.3 173.3 192.3C172.6 190.1 173 187.6 174.4 186C175.6 184.5 177.4 183.8 179.1 182.9C180.7 182 182.2 180.7 182.5 178.8C181.7 179.9 181.1 181.2 180.1 182.2C178.5 183.9 175.8 184.1 174.4 186Z" fill="#010101"/>
<path d="M186 190.1C185.5 189.8 184.9 189.7 184.3 189.6C183.6 189.4 183 189.2 182.2 189.1C181.5 189.1 180.7 189.4 180.3 190C179.9 190.6 180 191.6 180.6 191.9C181.2 192.2 181.9 192 182.6 191.8C184.9 191.1 187.4 191.4 189.4 192.6C189.2 192.6 188.7 192 188.6 191.9C188.3 191.6 188 191.3 187.7 191C187.3 190.6 186.7 190.2 186 190.1Z" fill="#010101"/>
<path d="M199.4 190.1C199.9 189.8 200.5 189.7 201.1 189.6C201.8 189.4 202.4 189.2 203.2 189.1C203.9 189.1 204.7 189.4 205.1 190C205.5 190.6 205.4 191.6 204.8 191.9C204.2 192.2 203.5 192 202.8 191.8C200.5 191.1 198 191.4 196 192.6C196.2 192.6 196.7 192 196.8 191.9C197.1 191.6 197.4 191.3 197.7 191C198.1 190.6 198.7 190.2 199.4 190.1Z" fill="#010101"/>
<path d="M186.8 217.5C189.5 218 192.2 218.3 194.9 217.8C197.8 217.3 200.4 216.1 203 214.7C208.4 211.6 213.1 208.5 217.2 203.8C213.9 208.7 212 213.6 208.8 218.6C205.6 223.6 200.6 228.1 194.7 228.5C192.3 228.6 189.9 228.1 187.6 227.4C178.1 224.5 166.4 217.4 161.9 208C165.1 207.8 169.7 211.9 172.7 213.2C177.1 215.2 181.9 216.6 186.8 217.5Z" fill="#BC6D65" stroke="#120D0C" stroke-miterlimit="10"/>
<path d="M166.5 206.5C169.5 206.1 172.5 205.6 175.5 205.2C179.4 204.6 183.4 204 187.2 204.6C188.5 204.8 189.8 205.1 191.1 205C193 204.9 194.7 203.9 196.6 203.4C200 202.6 203.5 203.7 206.9 204.5C210.3 205.3 214.2 205.7 217 203.6C213.9 206.8 210.5 210.1 206.2 210.9C203.8 211.4 201.4 211 199 211.1C196.8 211.2 194.6 211.7 192.3 211.7C190.3 211.7 188.4 211.3 186.5 211.1C182 210.5 177.4 210.6 172.9 210.3C170.6 210.1 168.4 209.9 166.1 209.3C164.7 209 161.8 208.5 161.1 207.1C162.9 206.8 164.8 206.8 166.5 206.5Z" fill="#8F514E" stroke="#120D0C" stroke-miterlimit="10"/>
<path d="M166.7 209.5C180.8 209.6 194.2 208.3 208.3 207.6C209.9 207.5 211.6 207.4 213.1 206.6C210.6 209.9 207.8 212.9 204.4 215.3C201 217.7 197.1 219.3 193 219.5C191 219.6 189 219.4 187 219C182.5 218.1 178.4 216.4 174.3 214.5C170.9 213 168.7 212.8 166.7 209.5Z" fill="#F3FAFE" stroke="#010101" stroke-miterlimit="10"/>
<path opacity="0.14" d="M179.6 214.3C182.3 214.4 185 214.4 187.7 214.3C194.2 214 200.6 212.8 206.8 210.8C201.3 213.3 195.2 214.3 189.2 215C186.7 215.3 184.2 215.6 181.8 215.6C180.6 215.6 179.3 215.6 178.1 215.3C176.1 214.8 174.1 213.4 172 213.3C174.3 214.2 177.1 214.3 179.6 214.3Z" fill="#010101"/>
<path d="M159.2 203.3C158.1 203.9 157.4 205 157.4 206.2C157.4 207.4 157.9 208.6 158.9 209.3C157.8 207.1 158.9 204.2 161.1 203.1C160.8 202.8 160.3 203 160.2 203.3" fill="#010101"/>
<path d="M217.7 200.4C219.1 200.7 220.1 202.5 219.5 203.8C220.1 202.9 220.1 201.7 219.6 200.8C219.1 199.9 218.1 199.3 217 199.2" fill="#010101"/>
<path d="M215.5 204.1C217.2 204.2 218.8 202.4 218.5 200.7C218.1 202.7 216.9 204.6 215.2 205.8" fill="#010101"/>
<path d="M158.5 205.2C158.9 206.9 160.7 208.2 162.5 208Z" fill="#010101"/>
<path opacity="0.21" d="M173.2 21.0002C176.1 21.3002 179.1 21.7002 181.3 23.6002C183.5 25.5002 184.4 29.1002 182.4 31.2002C181.5 32.2002 180.1 32.6002 178.8 33.1002C161 39.2002 145.2 51.0002 134.2 66.3002C149.3 51.0002 171.6 44.6002 193.1 43.9002C201.4 43.6002 210.1 44.2002 217.5 48.0002C221.4 50.0002 224.8 52.8002 228 55.7002C235.8 62.7002 243 70.5002 249.4 78.8002C231.8 64.8002 209.5 56.0002 187.1 57.4002C164.7 58.7002 142.6 71.2002 132.3 91.1002C149.7 76.3002 170.4 63.9002 193.2 62.2002C216 60.5002 240.9 71.9002 249.2 93.1002C232 84.8002 212.4 81.6002 193.5 83.8002C193.5 84.9002 193.5 86.0002 193.5 87.2002C198.4 87.5002 203.2 89.0002 207.5 91.4002C200.4 93.2002 191.6 92.7002 187.5 98.7002C184.2 103.6 186.4 109.5 186.8 114.8C187.4 121.6 187.3 128.7 184.1 135C183 137.3 181.4 139.5 179.3 141C175.7 143.5 171.1 143.8 166.7 143.4C162.4 143 158 142.1 153.7 142.6C149.4 143.1 144.8 145.2 143.2 149.2C149.5 149.6 155.8 149.9 162.1 150.3C159.5 152.6 158.8 156.8 160.5 159.9C162.2 163 166 164.6 169.4 163.8C172 163.1 174.1 161.2 176.7 160.5C182.9 158.8 194 175 188.1 179.8C185.7 181.7 182.4 182.3 179.7 183.8C177 185.3 174.8 188.9 176.6 191.5C179.3 195.6 185.7 191.1 190.6 192.1C192.6 192.5 194.3 193.8 196.3 194.1C200.6 194.8 204.2 190.2 204.3 185.8C204.4 181.4 201.9 177.5 199.6 173.8C202.3 179.3 209.2 182 211 187.9C212.7 193.8 207.9 200 202.1 202.2C196.3 204.4 189.9 203.7 183.7 203.5C177.5 203.3 170.9 203.6 166 207.4C181.7 207.9 197.5 208.4 213.2 209C197.3 212.3 180.9 212.8 164.8 210.6C171.1 215.2 178 218.9 185.2 221.7C188.6 223 192.1 224.1 195.7 223.7C206.3 222.6 211.3 210.4 219.1 203.1C214.9 209.7 213.4 217.7 209.7 224.6C206 231.5 198.6 237.6 190.9 235.8C190.8 239.8 191.1 243.8 191.9 247.7C192.1 248.8 192.4 250 193.3 250.7C194.2 251.3 195.3 251.3 196.4 251.2C202 250.6 207.4 247.9 211.2 243.8C205.6 253.4 196 260.6 185.2 263.2C185.6 271 186 278.8 186.4 286.6C186.5 288.6 186.6 290.8 187.7 292.5C188.8 294.2 190.6 295.3 192.5 296.1C200.3 299.3 209.9 297.7 216.3 292.1C210.9 300 201.9 305 192.5 306.9C183.1 308.8 173.3 307.8 164 305.4C143.5 300.1 124.8 288 111.6 271.4C122 270.8 132.3 267.7 141.3 262.4C143.4 261.2 145.5 259.8 146.8 257.6C148.1 255.4 148.2 252.7 148.3 250.2C148.6 242 148.6 233.6 146 225.8C143.5 218 138 210.7 130.2 208C123.8 205.7 115 205.4 113.1 198.9C115.6 199.9 118.3 201 121.1 200.6C123.9 200.2 126.5 197.8 126 195.1C125.8 193.9 125 192.8 124.3 191.7C120.6 186.3 118.1 180.1 116.8 173.7C118.8 174.9 120.8 176 122.9 177.2C122.2 173.9 122.8 170.5 122.5 167.2C122.2 163.9 120.5 160.3 117.2 159.4C113.9 158.5 110.3 162.8 112.5 165.3C96.3003 156.1 86.4003 138.3 83.0003 120C80.7003 107.6 81.3003 95.1002 82.6003 82.7002C83.4003 75.2002 83.3003 67.6002 87.1003 60.9002C97.3003 43.2002 118.1 30.6002 137.1 24.9002C148.9 21.2002 161.1 19.8002 173.2 21.0002Z" fill="#010101"/>
<path opacity="0.21" d="M162.8 305.3C181.8 309.6 202.6 305.7 218.7 294.8C200.9 307 191.7 330.5 196.4 351.5C197.3 355.6 198.8 359.8 198.2 364C197.9 366.8 196.7 369.3 195.7 371.9C193.5 377.5 191.9 383.5 192.6 389.5C193.3 395.5 196.8 401.4 202.4 403.6C212.1 407.5 222.3 399.6 232.7 398.9C247.8 397.9 260.6 412.1 275.6 411.5C290.1 411 300.9 396.3 302.3 381.9C303.7 367.4 298.1 353.3 292.5 339.9C286.9 326.5 281.1 312.5 282.1 298C291.3 315.8 300.7 333.8 305.4 353.2C310.1 372.6 310 394 300.8 411.8C297.2 418.7 292.3 425 285.6 429C279.1 432.9 271.6 434.4 264.2 436.1C252.2 439 240.4 442.8 228.9 447.5C228.7 456.6 228.5 465.7 228.3 474.8C228.2 479.1 228.5 484.3 232.2 486.6C234.2 487.8 236.6 487.9 238.9 487.9C255.9 488 272.9 486.5 289.6 483.3C269.4 499.9 245 511.3 219.2 516.1C225.2 542 222.4 569.1 222 595.7C221.7 611.9 223 629.8 234.5 641.2C185.5 634.6 134.5 653.2 86.7002 640.2C85.4002 639.8 84.0002 639.4 83.2002 638.4C82.3002 637.3 82.1002 635.7 82.0002 634.3C78.9002 584.9 102.2 538 125.6 494.4C127.2 491.4 128.9 488.2 129.3 484.8C129.7 480.9 128.5 477 127.4 473.2C121 451.7 118.9 429.1 116.9 406.7C105.8 429.8 100.1 455.5 100.4 481.1C100.4 484.9 100.6 488.9 98.9002 492.3C97.7002 494.7 95.7002 496.5 94.0002 498.6C87.4002 506.8 86.3002 518 85.0002 528.5C82.8002 546.2 78.8002 564.5 67.7002 578.5C63.5002 583.9 58.3002 588.5 53.9002 593.7C45.5002 603.7 40.1002 615.8 35.4002 627.9C33.3002 633.4 30.8002 639.4 25.5002 641.7C17.3002 645.2 8.6002 637.4 4.7002 629.4C15.7002 626.6 19.8002 612.8 19.0002 601.4C18.2002 590 14.6002 578.4 18.0002 567.5C21.2002 562 22.9002 555.8 25.4002 550.1C33.3002 532 48.9002 518.5 63.9002 505.7C55.9002 511.8 43.6002 505 40.1002 495.6C36.6002 486.2 39.1002 475.8 41.3002 466C47.8002 435.9 50.4002 404.9 48.9002 374.2C48.5002 365.9 47.7002 357.2 43.1002 350.3C40.8002 346.7 37.5002 343.8 35.1002 340.3C27.8002 330.1 27.8002 315.3 35.1002 305.2C33.2002 307.8 33.8002 311.9 36.5002 313.8C41.7002 314.9 45.7002 308.6 45.9002 303.3C46.1002 297.9 44.4002 292.4 46.0002 287.3C48.1002 280.8 54.7002 277.2 60.8002 274.2C70.0002 269.7 79.8002 265 90.1002 265.6C104.2 266.4 117.6 275.7 131.2 268.1C127.9 273.2 123.2 277.8 125.8 284C130.7 294.8 152.5 302.9 162.8 305.3Z" fill="#010101"/>
<path opacity="0.21" d="M300.4 315.8C305.5 322.5 310.6 329.2 317.1 334.5C322 338.5 327.6 341.8 331.2 347C333.8 350.8 335.1 355.3 336.8 359.5C345 379.4 363.8 394.2 369.1 415.1C368 402.7 367.9 390.2 368.6 377.8C370.9 388 375.3 397.7 381.5 406.1C382.4 407.3 383.4 408.5 384.8 408.9C386.9 409.4 388.9 407.9 390.4 406.4C402.1 395.4 411.2 381.6 416.6 366.4C412.7 358.3 405.8 351.6 397.6 347.9C402.8 347.9 407.9 347.9 413.1 348C414.7 348 416.4 348 417.8 347.3C419.4 346.5 420.4 345.1 421.4 343.7C426.9 336.2 432.4 328.6 437.9 321.1C429.3 315.9 425.1 304.4 428.2 294.8C430.7 298.7 433.8 302.1 437.4 305C438.3 305.8 439.4 306.5 440.6 306.5C441.8 306.4 442.7 305.6 443.6 304.9C451 298.4 458.4 291.9 465.8 285.4C461.7 287.2 457.6 289 453.5 290.8C458.5 285.6 463.5 280.3 468.5 275.1C466.9 274.2 465.2 273.4 463.6 272.5C463.1 266.4 463.8 260.3 465.7 254.5C469.6 261.4 473.7 268.5 474.6 276.3C475.6 284.2 472.8 293 465.9 296.9C469.4 296.6 472.9 296.2 476.4 295.9C472.8 300.2 471.2 305.8 468.4 310.7C463.1 319.7 453.7 325.4 446.7 333.2C434.6 346.6 430.3 365.1 426.4 382.7C424.5 391.5 422.5 400.4 420.6 409.2C418.9 417.1 417.1 425 413.3 432.2C409.5 439.4 403.4 445.6 395.6 447.6C386.6 450 377.2 446.6 368.6 443.2C344.4 433.8 318.8 423.5 303.5 402.5C302.9 401.7 302.3 400.8 302 399.8C301.1 397.1 302.3 394.3 303.4 391.7C310.5 374.4 310.1 354.2 302.3 337.1C292.2 315 267.9 296.4 267.7 270.6C269.3 275.1 270.7 281.9 275.3 284.2C278.1 285.6 282.4 282.7 284.9 284.8C287.6 287 287.8 295.4 289.2 298.7C292.2 304.9 296.4 310.4 300.4 315.8Z" fill="#010101"/>
</svg>
