<svg width="223" height="197" viewBox="0 0 223 197" fill="none" xmlns="http://www.w3.org/2000/svg">
<path d="M156.728 160.947C156.728 161.085 156.728 161.223 156.658 161.43C156.589 161.707 156.589 161.914 156.52 162.19C156.52 162.19 156.52 162.19 156.52 162.26C156.313 163.711 156.106 165.473 155.898 167.546C155.622 170.138 155.276 173.317 154.931 176.668C154.654 179.467 154.309 182.577 153.963 185.721C153.894 186.274 153.825 186.827 153.756 187.449C153.065 187.725 152.305 188.002 151.614 188.209C150.923 188.555 150.162 188.762 149.471 188.969C137.55 193.081 124.731 195.293 111.359 195.293C104.656 195.293 98.0559 194.74 91.5944 193.634C91.318 193.565 91.0416 193.565 90.7652 193.496C84.6492 192.459 78.7751 190.904 73.0738 188.9C72.3827 188.762 71.6917 188.486 71.0006 188.209C70.3095 188.002 69.6185 187.725 68.9274 187.449C68.8583 186.827 68.7892 186.205 68.7201 185.652C68.3745 182.508 68.029 179.467 67.7526 176.668C67.4071 173.317 67.1306 170.207 66.7851 167.615C66.5778 165.473 66.3705 163.642 66.1631 162.19V162.121C66.094 161.845 66.094 161.638 66.0249 161.43C65.9558 161.223 65.9558 161.085 65.9558 160.947C65.9558 160.67 65.9558 160.394 66.0249 160.117C66.0249 159.564 66.2322 159.081 66.4396 158.666C66.9233 157.699 67.6835 156.938 68.6855 156.593C76.1491 154.001 84.6492 151.997 92.631 150.684C93.5294 150.546 94.4969 150.408 95.3607 150.27C95.3607 150.27 95.4299 150.27 95.499 150.2C96.6047 150.062 97.7449 149.924 98.8506 149.786C98.9197 149.786 98.9889 149.786 99.1271 149.717C100.578 149.579 101.857 149.44 103.239 149.302H103.861C103.93 149.302 103.93 149.302 103.93 149.302C106.591 149.095 109.009 148.957 111.186 148.957H111.324C113.57 148.957 116.196 149.095 118.926 149.302C119.133 149.302 119.272 149.371 119.479 149.371H119.548C120.999 149.509 122.485 149.648 124.075 149.855H124.144C124.213 149.924 124.282 149.855 124.282 149.855C125.457 149.993 126.666 150.2 127.91 150.339H127.979C128.532 150.477 129.016 150.546 129.569 150.615C137.585 151.928 146.223 153.898 153.791 156.593C154.896 156.938 155.726 157.768 156.106 158.804C156.382 159.219 156.52 159.703 156.52 160.256C156.728 160.463 156.728 160.739 156.728 160.947Z" fill="#FFC800" stroke="#7F1919" stroke-width="3" stroke-miterlimit="10"/>
<path opacity="0.1" d="M91.6291 193.6C91.3526 193.531 91.0762 193.531 90.7998 193.461L90.316 175.908L89.9705 163.849L89.7632 151.79L90.3852 163.849L90.938 175.839L91.6291 193.6Z" fill="black"/>
<path opacity="0.1" d="M86.0315 160.532C85.686 160.947 85.2022 161.154 84.7185 161.223C83.751 161.292 82.9217 160.532 82.7835 159.703C82.5762 158.943 83.0599 157.906 84.0274 157.63C84.442 157.491 84.9949 157.491 85.4786 157.768C85.064 157.284 84.5111 157.077 83.8892 157.146C83.3363 157.215 82.7144 157.56 82.2997 158.044C81.9542 158.597 81.7469 159.288 81.8851 159.91C82.0233 160.532 82.4379 161.154 82.9908 161.43C83.5437 161.776 84.2347 161.845 84.7876 161.638C85.6169 161.43 86.1697 160.739 86.3079 159.979C86.2388 160.186 86.1697 160.325 86.0315 160.532Z" fill="black"/>
<path opacity="0.1" d="M85.5475 175.701C84.5801 175.77 83.7508 175.01 83.6126 174.18C83.4052 173.351 83.889 172.384 84.8565 172.038C85.2711 171.9 85.824 171.969 86.3077 172.176C86.7915 172.453 87.0679 172.936 87.2061 173.489C86.9988 172.384 85.9622 171.485 84.7528 171.623C84.2 171.693 83.578 172.038 83.1634 172.522C82.8178 173.006 82.6796 173.697 82.7487 174.388C82.8869 175.01 83.3016 175.563 83.8544 175.908C84.4073 176.184 85.0984 176.254 85.6512 176.115C86.5496 175.908 87.0333 175.217 87.2407 174.457C87.1024 174.595 87.0333 174.802 86.8951 174.941C86.515 175.355 86.0313 175.632 85.5475 175.701Z" fill="black"/>
<path opacity="0.1" d="M86.1007 191.008C85.0641 191.146 84.3039 190.386 84.1657 189.557C83.9583 188.728 84.4421 187.76 85.3405 187.415C85.8242 187.276 86.3771 187.276 86.8608 187.553C87.2755 187.829 87.621 188.313 87.7592 188.797C87.5519 187.76 86.5153 186.862 85.3059 187C84.684 187.069 84.1311 187.345 83.7165 187.898C83.3018 188.382 83.1636 189.073 83.3018 189.695C83.44 190.386 83.8547 190.939 84.4075 191.285C84.9604 191.561 85.6515 191.63 86.2043 191.492C87.0336 191.285 87.6556 190.524 87.7247 189.764C87.6556 189.972 87.5173 190.11 87.4482 190.317C87.0336 190.732 86.5499 191.008 86.1007 191.008Z" fill="black"/>
<path d="M89.314 151.341C89.3831 152.412 89.4176 153.518 89.4522 154.589C89.694 159.461 89.9014 164.333 90.1432 169.205C90.5233 177.325 90.9034 185.41 91.2835 193.531" stroke="white" stroke-width="3" stroke-miterlimit="10"/>
<path opacity="0.1" d="M91.6291 193.6C91.3526 193.531 91.0762 193.531 90.7998 193.461L90.316 175.908L89.9705 163.849L89.7632 151.79L90.3852 163.849L90.938 175.839L91.6291 193.6Z" fill="black"/>
<path opacity="0.1" d="M86.0315 160.532C85.686 160.947 85.2022 161.154 84.7185 161.224C83.751 161.293 82.9217 160.532 82.7835 159.703C82.5762 158.943 83.0599 157.906 84.0274 157.63C84.442 157.492 84.9949 157.492 85.4786 157.768C85.064 157.284 84.5111 157.077 83.8892 157.146C83.3363 157.215 82.7144 157.561 82.2997 158.045C81.9542 158.597 81.7469 159.289 81.8851 159.911C82.0233 160.532 82.4379 161.154 82.9908 161.431C83.5437 161.776 84.2347 161.846 84.7876 161.638C85.6169 161.431 86.1697 160.74 86.3079 159.98C86.2388 160.187 86.1697 160.325 86.0315 160.532Z" fill="black"/>
<path opacity="0.1" d="M85.5475 175.701C84.5801 175.77 83.7508 175.01 83.6126 174.181C83.4052 173.352 83.889 172.384 84.8565 172.039C85.2711 171.9 85.824 171.969 86.3077 172.177C86.7915 172.453 87.0679 172.937 87.2061 173.49C86.9988 172.384 85.9622 171.486 84.7528 171.624C84.2 171.693 83.578 172.039 83.1634 172.522C82.8178 173.006 82.6796 173.697 82.7487 174.388C82.8869 175.01 83.3016 175.563 83.8544 175.909C84.4073 176.185 85.0984 176.254 85.6512 176.116C86.5496 175.909 87.0333 175.217 87.2407 174.457C87.1024 174.596 87.0333 174.803 86.8951 174.941C86.515 175.356 86.0313 175.632 85.5475 175.701Z" fill="black"/>
<path opacity="0.1" d="M86.1007 191.009C85.0641 191.147 84.3039 190.387 84.1657 189.557C83.9583 188.728 84.4421 187.761 85.3405 187.415C85.8242 187.277 86.3771 187.277 86.8608 187.553C87.2755 187.83 87.621 188.313 87.7592 188.797C87.5519 187.761 86.5153 186.862 85.3059 187C84.684 187.07 84.1311 187.346 83.7165 187.899C83.3018 188.383 83.1636 189.074 83.3018 189.696C83.44 190.387 83.8547 190.94 84.4075 191.285C84.9604 191.561 85.6515 191.631 86.2043 191.492C87.0336 191.285 87.6556 190.525 87.7247 189.765C87.6556 189.972 87.5173 190.11 87.4482 190.318C87.0336 190.732 86.5499 191.009 86.1007 191.009Z" fill="black"/>
<path d="M189.105 136.103C189.415 136.517 190.003 137.105 191.143 136.966C204.412 135.377 211.772 134.548 213.223 125.253L219.857 82.6139C220.721 76.9472 217.611 71.4186 212.29 69.2763L198.71 63.8169C198.365 68.5507 197.985 73.25 197.639 77.9838C196.879 87.7969 196.119 97.6101 195.393 107.423C194.806 114.783 191.696 121.625 190.003 128.777C189.588 130.539 189.243 132.302 189.035 134.064C188.794 135.101 188.794 135.722 189.105 136.103Z" fill="#FFC800"/>
<g opacity="0.2">
<path d="M190.003 136.759C186.893 136.828 197.708 136.344 203.029 135.515C208.282 134.686 212.393 130.505 213.188 125.253L219.822 82.6139C220.686 76.9472 217.576 71.4186 212.255 69.2763L198.676 63.8169L190.003 136.759Z" fill="black" stroke="#7F1919" stroke-width="5" stroke-miterlimit="10"/>
</g>
<path d="M190.002 136.759C190.037 136.517 198.122 136.31 203.029 135.515C208.281 134.651 212.393 130.505 213.188 125.253L219.822 82.6139C220.686 76.9472 217.576 71.4186 212.255 69.2763L198.675 63.8169L190.002 136.759Z" stroke="#7F1919" stroke-width="3" stroke-miterlimit="10"/>
<path d="M156.728 160.947C156.728 161.085 156.728 161.223 156.658 161.43C156.589 161.707 156.589 161.914 156.52 162.19C156.52 162.19 156.52 162.19 156.52 162.26C156.313 163.711 156.106 165.473 155.898 167.546C155.622 170.138 155.276 173.317 154.931 176.668C154.654 179.467 154.309 182.577 153.963 185.721C153.894 186.274 153.825 186.827 153.756 187.449C153.065 187.725 152.305 188.002 151.614 188.209C150.923 188.555 150.162 188.762 149.471 188.969C137.55 193.081 124.731 195.293 111.359 195.293C104.656 195.293 98.0559 194.74 91.5944 193.634C91.318 193.565 91.0416 193.565 90.7652 193.496C84.6492 192.459 78.7751 190.904 73.0738 188.9C72.3827 188.762 71.6917 188.486 71.0006 188.209C70.3095 188.002 69.6185 187.725 68.9274 187.449C68.8583 186.827 68.7892 186.205 68.7201 185.652C68.3745 182.508 68.029 179.467 67.7526 176.668C67.4071 173.317 67.1306 170.207 66.7851 167.615C66.5778 165.473 66.3705 163.642 66.1631 162.19V162.121C66.094 161.845 66.094 161.638 66.0249 161.43C65.9558 161.223 65.9558 161.085 65.9558 160.947C65.9558 160.67 65.9558 160.394 66.0249 160.117C66.0249 159.564 66.2322 159.081 66.4396 158.666C66.9233 157.699 67.6835 156.938 68.6855 156.593C76.1491 154.001 84.6492 151.997 92.631 150.684C93.5294 150.546 94.4969 150.408 95.3607 150.27C95.3607 150.27 95.4299 150.27 95.499 150.2C96.6047 150.062 97.7449 149.924 98.8506 149.786C98.9197 149.786 98.9889 149.786 99.1271 149.717C100.578 149.579 101.857 149.44 103.239 149.302H103.861C103.93 149.302 103.93 149.302 103.93 149.302C106.591 149.095 109.009 148.957 111.186 148.957H111.324C113.57 148.957 116.196 149.095 118.926 149.302C119.133 149.302 119.272 149.371 119.479 149.371H119.548C120.999 149.509 122.485 149.648 124.075 149.855H124.144C124.213 149.924 124.282 149.855 124.282 149.855C125.457 149.993 126.666 150.2 127.91 150.339H127.979C128.532 150.477 129.016 150.546 129.569 150.615C137.585 151.928 146.223 153.898 153.791 156.593C154.896 156.938 155.726 157.768 156.106 158.804C156.382 159.219 156.52 159.703 156.52 160.256C156.728 160.463 156.728 160.739 156.728 160.947Z" stroke="#7F1919" stroke-miterlimit="10"/>
<path d="M90.5926 134.41C90.6617 136.448 92.4239 153.172 94.0479 154.865C95.6719 156.559 102.444 159.426 107.558 160.187C114.365 161.189 123.591 158.632 127.15 155.902C130.744 153.172 132.92 133.753 131.884 132.889C130.882 131.991 119.825 126.601 111.705 126.601C102.237 126.566 90.5235 132.578 90.5926 134.41Z" fill="#2B454E" stroke="#7F1919" stroke-miterlimit="10"/>
<path d="M93.5642 153.276C96.1212 154.554 98.7472 155.695 101.442 156.628C104.138 157.561 106.936 158.217 109.77 158.182C112.603 158.148 115.437 157.664 118.201 157.008C120.965 156.317 123.695 155.522 126.39 154.52C123.764 155.591 121.034 156.489 118.27 157.18C115.506 157.837 112.672 158.39 109.804 158.424C106.936 158.459 104.103 157.733 101.408 156.8C98.6781 155.833 96.0521 154.658 93.5642 153.276Z" fill="#263238"/>
<path d="M93.1841 151.064C95.8447 152.412 98.5744 153.587 101.373 154.554C104.172 155.522 107.109 156.213 110.081 156.178C113.052 156.144 115.989 155.625 118.892 154.969C121.76 154.243 124.628 153.414 127.426 152.377C124.662 153.518 121.829 154.416 118.926 155.142C116.024 155.833 113.087 156.386 110.081 156.42C107.075 156.455 104.137 155.695 101.339 154.727C98.5053 153.725 95.7756 152.481 93.1841 151.064Z" fill="#263238"/>
<path d="M92.873 148.991C95.6028 150.373 98.4707 151.617 101.373 152.619C104.276 153.621 107.316 154.347 110.392 154.312C113.467 154.278 116.508 153.76 119.514 153.069C122.485 152.343 125.457 151.445 128.325 150.373C125.457 151.548 122.52 152.481 119.548 153.241C116.542 153.967 113.501 154.52 110.392 154.589C107.282 154.623 104.241 153.829 101.339 152.827C98.4016 151.755 95.5682 150.477 92.873 148.991Z" fill="#263238"/>
<path d="M93.1497 147.091C95.8794 148.473 98.7473 149.717 101.65 150.719C104.552 151.721 107.593 152.447 110.668 152.412C113.743 152.377 116.784 151.859 119.79 151.168C122.762 150.442 125.734 149.544 128.601 148.473C125.734 149.648 122.796 150.581 119.825 151.341C116.819 152.067 113.778 152.619 110.668 152.688C107.558 152.723 104.518 151.928 101.615 150.926C98.6782 149.855 95.8448 148.577 93.1497 147.091Z" fill="#263238"/>
<path d="M92.8386 144.914C95.672 146.365 98.609 147.609 101.615 148.646C104.621 149.682 107.766 150.443 110.945 150.374C114.123 150.339 117.268 149.786 120.378 149.06C123.453 148.3 126.528 147.367 129.5 146.262C126.563 147.471 123.487 148.439 120.412 149.199C117.302 149.959 114.158 150.546 110.945 150.581C107.731 150.615 104.587 149.821 101.581 148.75C98.5745 147.747 95.6374 146.434 92.8386 144.914Z" fill="#263238"/>
<path d="M92.3547 142.495C95.2572 143.981 98.2979 145.259 101.373 146.331C104.448 147.402 107.696 148.162 110.944 148.127C114.227 148.093 117.44 147.54 120.619 146.78C123.798 145.985 126.943 145.052 129.983 143.912C126.943 145.156 123.833 146.158 120.654 146.953C117.475 147.713 114.227 148.335 110.944 148.369C107.627 148.404 104.414 147.574 101.304 146.503C98.2288 145.398 95.2227 144.05 92.3547 142.495Z" fill="#263238"/>
<path d="M91.9402 140.215C94.9809 141.77 98.0907 143.117 101.304 144.223C104.518 145.329 107.869 146.158 111.256 146.089C114.642 146.054 118.028 145.467 121.311 144.707C124.593 143.878 127.876 142.91 131.055 141.701C127.91 142.979 124.662 144.016 121.345 144.845C118.028 145.64 114.676 146.262 111.256 146.331C107.835 146.365 104.449 145.502 101.27 144.396C98.0561 143.221 94.9463 141.839 91.9402 140.215Z" fill="#263238"/>
<path d="M91.4219 138.003C94.5317 139.592 97.7452 140.975 101.062 142.115C104.345 143.255 107.8 144.084 111.29 144.015C114.78 143.981 118.235 143.393 121.622 142.599C125.008 141.769 128.359 140.767 131.642 139.523C128.394 140.836 125.077 141.907 121.656 142.737C118.27 143.566 114.78 144.188 111.29 144.257C107.766 144.292 104.31 143.428 101.028 142.253C97.6761 141.113 94.4971 139.661 91.4219 138.003Z" fill="#263238"/>
<path d="M36.1018 135.826C41.2503 134.928 26.5651 135.066 21.624 134.409C16.3373 133.718 12.0872 129.71 11.0852 124.492L2.99968 82.0954C1.92852 76.4632 4.86555 70.831 10.1177 68.5159L23.5244 62.5728L36.1018 135.826Z" fill="#FFC800"/>
<g opacity="0.2">
<path d="M37.6567 135.135C37.6222 134.893 26.5305 135.066 21.624 134.409C16.3373 133.718 12.0872 129.71 11.0852 124.492L2.99968 82.0954C1.92852 76.4632 4.86555 70.831 10.1177 68.5159L23.5244 62.5728L37.6567 135.135Z" fill="black" stroke="#7F1919" stroke-width="5" stroke-miterlimit="10"/>
</g>
<path d="M36.1018 135.826C36.0673 135.584 26.5651 135.066 21.624 134.409C16.3373 133.718 12.0872 129.71 11.0852 124.492L2.99968 82.0954C1.92852 76.4632 4.86555 70.831 10.1177 68.5159L23.5244 62.5728L36.1018 135.826Z" stroke="#7F1919" stroke-width="3" stroke-miterlimit="10"/>
<path d="M197.57 118.48C199.747 100.098 202.269 73.7338 203.686 41.2536C204.481 23.2513 191.039 7.7714 173.106 6.04373C143.597 3.21035 97.365 0.446071 52.1001 4.55792C33.9596 6.21649 20.3455 21.8001 21.2439 39.9752C22.3496 62.2966 24.0773 92.4963 26.4269 116.062C28.12 132.924 41.9759 145.95 58.9071 146.572C84.2693 147.505 123.591 148.611 164.157 148.369C181.226 148.265 195.566 135.446 197.57 118.48Z" fill="#FFC800" stroke="#7F1919" stroke-width="3" stroke-miterlimit="10"/>
<path opacity="0.1" d="M107.385 2.51904C107.385 14.5782 107.42 26.6028 107.524 38.6619L107.904 74.8047L108.318 74.3556L67.338 77.3271L46.8478 78.9166L26.3577 80.6097L46.8478 79.4003L67.338 78.0873L108.318 75.2539L108.733 75.2194V74.8047L108.146 38.6619C107.973 26.6028 107.696 14.5782 107.385 2.51904Z" fill="black"/>
<path opacity="0.1" d="M114.745 8.77346C114.261 8.28971 113.639 7.94418 113.087 7.94418C112.395 7.87507 111.912 8.15149 111.497 8.56613C111.981 8.28971 112.534 8.2206 112.948 8.35881C113.985 8.63524 114.469 9.67184 114.33 10.5011C114.192 11.3304 113.432 12.1597 112.395 12.0906C111.912 12.0906 111.359 11.8833 111.013 11.4686C110.668 11.054 110.53 10.432 110.599 9.87916C110.391 10.9849 111.082 12.1942 112.326 12.5398C112.879 12.678 113.57 12.6089 114.123 12.2634C114.676 11.9178 115.091 11.2958 115.229 10.6048C115.298 10.0174 115.16 9.2572 114.745 8.77346Z" fill="black"/>
<path opacity="0.1" d="M114.883 24.7025C114.883 24.6334 114.814 24.5643 114.814 24.5643C114.814 24.4952 114.814 24.4261 114.814 24.4261C114.745 24.1497 114.607 23.8733 114.4 23.6659C113.985 23.1131 113.363 22.8367 112.741 22.7676C111.773 22.6984 110.944 23.2513 110.599 24.0115C110.737 23.8042 111.013 23.5968 111.221 23.4586C111.635 23.1822 112.188 23.1131 112.672 23.2513C113.294 23.4586 113.778 23.8733 113.916 24.4261C113.985 24.4952 113.985 24.4952 113.985 24.5643C113.985 24.6334 113.985 24.6334 113.985 24.7025C114.054 24.9099 114.123 25.1863 114.054 25.3936C113.916 26.0156 113.432 26.5684 112.81 26.8448H112.326C112.257 26.9831 112.257 26.9831 112.119 26.9831C111.981 26.9831 111.981 26.914 111.912 26.8448H111.704C111.29 26.7757 111.013 26.5684 110.737 26.292C110.391 25.8773 110.253 25.3245 110.322 24.7716C110.184 25.4627 110.46 26.3611 111.082 26.8448L111.29 27.0522C111.359 27.1213 111.497 27.1904 111.566 27.1904C111.704 27.2595 111.843 27.3286 112.05 27.3977C112.534 27.5359 113.156 27.4668 113.708 27.1904C113.778 27.1904 113.778 27.1213 113.847 27.1213L113.916 27.0522C113.985 27.0522 114.054 26.9831 114.054 26.914C114.538 26.5684 114.814 26.0847 114.952 25.5318C114.952 25.2554 114.952 24.979 114.883 24.7025Z" fill="black"/>
<path opacity="0.1" d="M110.841 39.5259C110.771 39.595 110.771 39.6641 110.702 39.7332C110.771 39.6641 110.841 39.595 110.91 39.5259H110.841ZM110.495 41.4263C110.495 41.5645 110.495 41.6336 110.564 41.7027H110.633C110.564 41.6336 110.564 41.5645 110.495 41.4263ZM110.841 39.5259C110.771 39.595 110.771 39.6641 110.702 39.7332C110.771 39.6641 110.841 39.595 110.91 39.5259H110.841ZM110.841 39.5259C110.771 39.595 110.771 39.6641 110.702 39.7332C110.771 39.6641 110.841 39.595 110.91 39.5259H110.841ZM114.538 39.595C114.607 39.5259 114.469 39.4568 114.469 39.4568V39.3876C114.4 39.3185 114.4 39.3185 114.33 39.2494C113.916 38.8348 113.363 38.5584 112.81 38.5584C112.119 38.4893 111.497 38.7657 111.013 39.2494C111.013 39.2494 110.944 39.3185 110.944 39.3876C110.875 39.3876 110.806 39.4568 110.875 39.5259C110.875 39.4568 110.944 39.4568 111.013 39.3876C111.082 39.3185 111.152 39.2494 111.221 39.2494C111.221 39.1803 111.29 39.1803 111.29 39.1803C111.704 38.9039 112.257 38.8348 112.741 38.973C112.948 39.0421 113.156 39.1112 113.363 39.2494C113.432 39.3185 113.501 39.3876 113.501 39.4568C113.57 39.5259 113.639 39.5259 113.639 39.595C114.054 40.0096 114.192 40.6316 114.123 41.1153C114.054 41.3226 113.985 41.5991 113.847 41.8064C113.847 41.8755 113.778 41.8755 113.778 41.9446C113.708 42.0137 113.708 42.0137 113.639 42.0828C113.294 42.4975 112.741 42.7739 112.188 42.7048C111.635 42.7048 111.152 42.4283 110.806 42.0828V42.0137C110.806 42.0137 110.737 41.9446 110.668 41.8755C110.668 41.8755 110.599 41.8064 110.599 41.7373C110.53 41.6682 110.53 41.5991 110.46 41.4609C110.46 41.5991 110.46 41.6682 110.53 41.7373C110.53 41.8064 110.53 41.8064 110.599 41.8755C110.599 41.9446 110.599 41.9446 110.668 42.0137C110.944 42.5666 111.428 43.0503 112.119 43.1885C112.672 43.3267 113.363 43.2576 113.916 42.9121C114.261 42.7048 114.469 42.4283 114.676 42.0828C114.745 42.0137 114.745 42.0137 114.745 41.9446C114.814 41.9446 114.814 41.8755 114.814 41.8064C114.952 41.6682 114.952 41.4609 115.022 41.2535C115.091 40.6661 114.952 40.0442 114.538 39.595ZM110.702 39.6986C110.771 39.6295 110.841 39.5604 110.91 39.4913H110.841C110.771 39.595 110.771 39.6295 110.702 39.6986ZM110.841 39.5259C110.771 39.595 110.771 39.6641 110.702 39.7332C110.771 39.6641 110.841 39.595 110.91 39.5259H110.841ZM110.841 39.5259C110.771 39.595 110.771 39.6641 110.702 39.7332C110.771 39.6641 110.841 39.595 110.91 39.5259H110.841Z" fill="black"/>
<path opacity="0.1" d="M114.538 55.1445C114.192 54.7298 113.847 54.4534 113.363 54.3843L113.225 54.3152C113.087 54.2461 113.018 54.2461 112.879 54.2461C112.603 54.2461 112.396 54.2461 112.188 54.3152H111.981C111.497 54.5225 111.221 54.7989 111.014 55.2136C111.152 55.0754 111.29 55.0063 111.359 54.9372C111.774 54.6607 112.327 54.5916 112.81 54.7298C113.709 55.0063 114.192 55.7664 114.192 56.5957C114.192 56.6648 114.192 56.6648 114.192 56.7339C114.192 56.803 114.192 56.803 114.192 56.8721C114.054 57.7014 113.225 58.4616 112.188 58.4616C111.705 58.3925 111.221 58.1852 110.875 57.7705C110.737 57.6323 110.599 57.425 110.53 57.2177C110.668 57.9779 111.29 58.6689 112.119 58.8762C112.741 59.0145 113.432 58.9453 113.985 58.5998C114.538 58.2543 114.953 57.6323 115.022 57.0104C115.022 56.9413 115.022 56.9412 115.022 56.8721C115.022 56.803 115.091 56.803 115.091 56.7339C115.091 56.6648 115.091 56.6648 115.091 56.5957C115.091 56.0429 114.884 55.5591 114.538 55.1445Z" fill="black"/>
<path opacity="0.1" d="M98.2978 80.7825C98.1596 80.6443 98.0214 80.437 97.9523 80.2988C98.0214 80.5752 98.2287 80.9208 98.436 81.1281H98.7124C98.5742 81.059 98.436 80.9208 98.2978 80.7825ZM98.0214 78.6748C98.0214 78.7439 98.0214 78.7439 98.0214 78.813C98.0214 78.7439 98.0214 78.6748 98.0905 78.6748C98.1596 78.5366 98.2287 78.3984 98.3669 78.2602C98.1596 78.3984 98.0905 78.5366 98.0214 78.6748ZM102.341 79.0203C102.41 78.9512 102.341 78.9512 102.341 78.8821C102.341 78.813 102.271 78.7439 102.271 78.6748C102.202 78.4675 102.064 78.2601 101.926 78.1219C101.511 77.6382 100.889 77.3618 100.267 77.2927C99.4381 77.2236 98.747 77.6382 98.3323 78.2602C98.4015 78.191 98.5397 78.0528 98.6779 77.9837C99.1616 77.7073 99.7145 77.6382 100.198 77.7764C100.682 77.9146 101.028 78.2602 101.304 78.6748C101.304 78.7439 101.373 78.813 101.373 78.8821C101.373 78.9512 101.442 78.9512 101.442 79.0203C101.511 79.2968 101.58 79.5732 101.511 79.8496C101.442 80.4025 101.166 80.8862 100.682 81.1626C100.613 81.2317 100.475 81.3008 100.406 81.3008H100.06C99.9218 81.4391 99.9218 81.4391 99.8527 81.4391H99.6454C99.6454 81.4391 99.6454 81.5082 99.5763 81.5082C99.5072 81.5082 99.5072 81.4391 99.5072 81.4391H99.4381C99.2307 81.4391 99.1616 81.37 99.0925 81.3008H98.8852C98.8161 81.2317 98.747 81.2317 98.6779 81.1626C98.5397 81.0935 98.4015 80.9553 98.2633 80.8171C98.125 80.6789 97.9868 80.4716 97.9177 80.3334C97.9868 80.6098 98.1941 80.9553 98.4015 81.1626C98.4015 81.2317 98.5397 81.3008 98.5397 81.3008C98.5397 81.37 98.6088 81.37 98.6779 81.4391C98.8852 81.6464 99.1616 81.7846 99.5072 81.9228C100.129 82.061 100.82 81.9919 101.373 81.6464C101.442 81.6464 101.511 81.5773 101.511 81.5082C101.58 81.5082 101.58 81.5082 101.649 81.37C101.719 81.37 101.788 81.3008 101.857 81.1626C102.133 80.8862 102.341 80.4716 102.41 80.0569C102.479 79.7114 102.479 79.3659 102.341 79.0203Z" fill="black"/>
<path opacity="0.1" d="M82.7832 80.4368C82.7832 80.575 82.7141 80.7824 82.7141 80.9206C82.7141 80.9897 82.7141 80.9897 82.7832 81.0588C82.7832 80.9897 82.7832 80.9206 82.8523 80.9206C82.7832 80.7824 82.7832 80.575 82.7832 80.4368ZM86.8951 79.3657C86.6878 79.0893 86.4804 78.951 86.204 78.8128C86.1349 78.7437 86.0658 78.6746 85.9276 78.6746C85.7894 78.5364 85.582 78.5364 85.3747 78.5364H85.3402L85.2711 78.4673L85.202 78.5364H84.8564C84.58 78.5364 84.5109 78.6055 84.3036 78.6746H84.1654C84.0963 78.6746 84.0271 78.7437 83.958 78.8128C83.5434 79.0201 83.267 79.3657 83.0596 79.7112C83.1979 79.5039 83.4743 79.2966 83.6816 79.1584C84.1654 78.8819 84.7182 78.8128 85.202 78.951C86.1695 79.2275 86.6532 80.195 86.515 81.0242V81.1624C86.515 81.2316 86.515 81.2316 86.4459 81.3007C86.2386 82.0608 85.5475 82.7519 84.58 82.6828C84.0962 82.6137 83.5434 82.4064 83.1979 81.9917C83.0596 81.7844 82.9214 81.5771 82.9214 81.3007C82.8523 81.2316 82.8523 81.2316 82.8523 81.1624H82.7832C82.7141 81.2316 82.7832 81.3007 82.7832 81.3007C82.9214 82.1299 83.5434 82.8901 84.5109 83.0974C85.0637 83.2357 85.7548 83.1666 86.3077 82.821C86.9296 82.4755 87.2752 81.9226 87.3443 81.3007L87.4134 81.2316V81.1624C87.4134 81.0933 87.4134 81.0934 87.4134 81.0242C87.4479 80.3677 87.2406 79.7458 86.8951 79.3657Z" fill="black"/>
<path opacity="0.1" d="M68.2017 83.1323C68.0635 82.9941 67.9944 82.7868 67.8562 82.5795C67.8562 82.8559 67.9944 83.0632 68.1326 83.2705H68.4091C68.34 83.2705 68.2709 83.2014 68.2017 83.1323ZM67.9253 81.0591C67.8562 81.1973 67.7871 81.4047 67.7871 81.612C67.7871 81.4047 67.8562 81.1973 67.9944 81.0591H67.9253ZM67.9253 81.0591C67.8562 81.1973 67.7871 81.4047 67.7871 81.612C67.7871 81.4047 67.8562 81.1973 67.9944 81.0591H67.9253ZM67.9253 81.0591C67.8562 81.1973 67.7871 81.4047 67.7871 81.612C67.7871 81.4047 67.8562 81.1973 67.9944 81.0591H67.9253ZM72.1754 81.1282C72.1754 81.0591 72.1063 80.99 72.1063 80.99C72.1063 80.9209 72.0372 80.8518 72.0372 80.8518C71.9681 80.7136 71.899 80.5754 71.8298 80.5063C71.4152 80.0225 70.7933 79.677 70.1713 79.677C69.2729 79.6079 68.5127 80.0916 68.0981 80.7827C68.2363 80.5754 68.4436 80.4371 68.6509 80.2989C69.0656 80.0225 69.6184 79.9534 70.1022 80.0916C70.5859 80.2298 70.8624 80.5063 71.1388 80.8518C71.1388 80.8518 71.2079 80.9209 71.2079 80.99C71.2079 80.99 71.277 81.0591 71.277 81.1282C71.4843 81.4738 71.5534 81.8884 71.4843 82.2339C71.4152 82.6486 71.2079 82.9941 70.8624 83.2705C70.8624 83.3396 70.7933 83.4087 70.655 83.4778C70.5859 83.547 70.5859 83.547 70.5168 83.6161H70.4477C70.1713 83.7543 69.8949 83.8234 69.5493 83.8234C69.342 83.8234 69.2038 83.7543 68.9965 83.547H68.72C68.6509 83.547 68.5818 83.547 68.5818 83.4087H68.5127C68.4436 83.4087 68.4436 83.3396 68.3745 83.2705C68.3054 83.2705 68.2363 83.2014 68.1672 83.1323C68.029 82.9941 67.9599 82.7868 67.8217 82.5795C67.8217 82.8559 67.9599 83.0632 68.0981 83.2705C68.0981 83.3396 68.1672 83.4087 68.1672 83.4087C68.2363 83.4778 68.2363 83.547 68.3054 83.547C68.5818 83.8925 68.9965 84.1689 69.4802 84.3071C70.0331 84.4454 70.7241 84.3762 71.277 83.9616C71.4152 83.8925 71.4843 83.8234 71.6225 83.6161H71.6916C71.6916 83.6161 71.6916 83.547 71.7607 83.4778C71.8299 83.4778 71.899 83.3396 71.899 83.3396C72.1754 83.0632 72.3136 82.7177 72.3827 82.3721C72.4518 81.9575 72.3827 81.4738 72.1754 81.1282ZM67.9253 81.0591C67.8562 81.1973 67.7871 81.4047 67.7871 81.612C67.7871 81.4047 67.8562 81.1973 67.9944 81.0591H67.9253ZM67.9253 81.0591C67.8562 81.1973 67.7871 81.4047 67.7871 81.612C67.7871 81.4047 67.8562 81.1973 67.9944 81.0591H67.9253ZM67.9253 81.0591C67.8562 81.1973 67.7871 81.4047 67.7871 81.612C67.7871 81.4047 67.8562 81.1973 67.9944 81.0591H67.9253Z" fill="black"/>
<path opacity="0.1" d="M56.799 81.6813C56.4534 81.2667 56.177 80.9903 55.6933 80.9212H55.4168C55.3477 80.8521 55.2095 80.8521 55.1404 80.8521C54.9331 80.8521 54.7258 80.8521 54.5184 80.9212C54.1729 80.9903 53.8274 81.1976 53.551 81.474C54.0347 81.1976 54.5875 81.1976 55.0713 81.3358C55.9006 81.6122 56.4534 82.3724 56.4534 83.1326C56.4534 83.2017 56.4534 83.2017 56.3843 83.2708C56.3843 83.3399 56.3843 83.3399 56.3843 83.409C56.3152 84.3074 55.4859 85.0676 54.4493 84.9985C53.9656 84.9985 53.4818 84.7911 53.1363 84.3765C52.9981 84.2383 52.8599 84.031 52.7908 83.8236C52.929 84.5838 53.5509 85.2749 54.3802 85.4822C55.0022 85.6204 55.6933 85.5513 56.2461 85.2058C56.799 84.8602 57.2136 84.2383 57.2827 83.5472V83.4781C57.2827 83.409 57.2827 83.409 57.3518 83.3399V83.1326C57.3518 82.6488 57.1445 82.096 56.799 81.6813Z" fill="black"/>
<path opacity="0.1" d="M41.9756 83.2708C41.9756 83.2017 41.9756 83.2017 41.9064 83.1326C41.9064 83.0635 41.9065 82.9944 41.8373 82.9944C41.7682 82.8562 41.6991 82.787 41.63 82.7179C41.1463 82.2342 40.5243 82.0269 39.9024 82.0269C39.1422 82.0269 38.5202 82.3724 38.1056 82.9253C38.1056 82.9253 38.0365 82.9944 38.0365 83.0635C37.9674 83.0635 37.9674 83.1326 37.8983 83.2017C37.76 83.4781 37.6218 83.8236 37.6218 84.1692C37.6909 83.8236 37.8292 83.4781 38.0365 83.2017C38.0365 83.1326 38.1747 83.0635 38.1747 83.0635C38.1747 82.9944 38.1747 82.9253 38.2438 82.9253C38.3129 82.8561 38.3129 82.8561 38.382 82.787C38.8658 82.5106 39.4186 82.3724 39.9024 82.5106C40.2479 82.5797 40.5934 82.7179 40.8007 82.9944C40.8698 82.9944 40.939 83.0635 40.939 83.1326C41.0081 83.1326 41.0081 83.2017 41.0081 83.2708C41.2845 83.6163 41.4227 84.1001 41.3536 84.5147C41.3536 84.8602 41.2154 85.2058 41.0081 85.4822C41.0081 85.5513 40.939 85.5513 40.939 85.6204C40.8698 85.6895 40.8007 85.6895 40.7316 85.7586C40.4552 86.0351 40.0406 86.2424 39.5568 86.2424C39.1422 86.2424 38.8658 86.0351 38.5202 85.6895H38.1747C38.1056 85.6204 38.1056 85.6204 38.1056 85.5513H38.0365C37.9674 85.6204 38.1056 85.6895 38.1056 85.6895C38.382 86.1733 38.9349 86.5188 39.5568 86.657C40.1097 86.7952 40.8007 86.657 41.3536 86.2424C41.5609 86.1042 41.6991 85.966 41.7682 85.7586C41.8373 85.6895 41.9064 85.6895 41.9064 85.6204C41.9756 85.6204 41.9756 85.5513 41.9756 85.4822C42.1829 85.2058 42.252 84.9293 42.252 84.5838C42.3211 84.1001 42.252 83.6163 41.9756 83.2708ZM38.0019 85.3785C37.9328 85.4476 37.9328 85.5168 38.071 85.5168C38.071 85.5168 38.0019 85.4476 38.071 85.3785H38.0019Z" fill="black"/>
<path opacity="0.1" d="M110.979 73.5266C110.84 73.3884 110.702 73.1811 110.633 72.9738C110.702 73.3193 110.84 73.5957 111.117 73.8721H111.462C111.255 73.803 111.117 73.6648 110.979 73.5266ZM115.021 71.5225C115.021 71.4534 114.952 71.4534 114.952 71.3843C114.883 71.177 114.745 70.9697 114.607 70.8314C114.192 70.3477 113.57 70.0022 112.948 70.0022C112.05 69.933 111.22 70.4168 110.806 71.177C110.944 70.9697 111.151 70.7623 111.359 70.6241C111.842 70.3477 112.395 70.2786 112.879 70.4168C113.363 70.555 113.777 70.9005 114.054 71.3843C114.054 71.3843 114.054 71.4534 114.123 71.5225C114.123 71.5916 114.192 71.6607 114.192 71.7298C114.261 72.0062 114.261 72.2827 114.192 72.5591C114.123 73.112 113.777 73.5957 113.294 73.8721C113.225 73.9412 113.155 74.0104 113.086 74.0104C112.879 74.0795 112.672 74.1486 112.395 74.1486H112.292C112.084 74.1486 111.877 74.0795 111.739 74.0104H111.67C111.601 73.9413 111.531 73.9412 111.462 73.8721C111.255 73.803 111.117 73.6648 110.979 73.5266C110.84 73.3884 110.702 73.1811 110.633 72.9738C110.702 73.3193 110.84 73.5957 111.117 73.8721C111.117 73.9412 111.186 74.0104 111.255 74.0104C111.324 74.0795 111.324 74.1486 111.393 74.1486C111.601 74.3559 111.877 74.5632 112.223 74.6323C112.844 74.7705 113.536 74.7014 114.088 74.3559C114.158 74.3559 114.227 74.2868 114.227 74.2177C114.296 74.2177 114.365 74.1486 114.434 74.0104C114.503 74.0104 114.503 74.0104 114.572 73.8721C114.849 73.5957 115.056 73.1811 115.125 72.6973C115.194 72.4209 115.194 72.0754 115.125 71.7298C115.09 71.6607 115.021 71.5916 115.021 71.5225Z" fill="black"/>
<path d="M65.8179 167.304L70.2753 168.652C70.7245 168.79 71.3464 171.001 71.0354 173.316C70.7245 175.632 69.5842 177.221 69.1005 177.083L64.6431 175.735L65.8179 167.304Z" fill="#2B454E"/>
<path d="M65.8179 167.304C65.0232 167.062 64.0902 168.755 63.7792 171.105C63.4683 173.42 63.8483 175.493 64.6431 175.735C65.4378 175.977 66.3707 174.284 66.6817 171.934C67.0273 169.585 66.6472 167.512 65.8179 167.304Z" fill="#375A64"/>
<path d="M77.9806 176.668C77.1513 180.711 75.5273 183.994 73.4541 186.205C72.763 187.103 71.9337 187.794 71.0699 188.209C70.3788 188.002 69.6878 187.725 68.9967 187.449C66.6816 186.551 64.4011 185.583 62.1551 184.581C60.151 180.884 59.4254 175.321 60.4966 169.688C61.1876 166.544 62.2933 163.711 63.7791 161.672C64.5393 160.428 65.5068 159.426 66.5088 158.735C68.3056 157.422 70.3443 157.007 72.2793 157.768C77.1858 159.668 79.7082 168.168 77.9806 176.668Z" fill="#2B454E"/>
<path d="M60.6694 169.688C59.2181 176.875 61.395 184.028 65.4377 185.652C65.5068 185.686 65.5759 185.721 65.6796 185.721C69.6878 187.103 74.007 182.646 75.4237 175.597C76.6676 169.239 75.1472 162.916 71.9338 160.393C71.5191 160.082 71.0699 159.84 70.6207 159.633C66.578 158.044 62.086 162.536 60.6694 169.688Z" fill="#375A64"/>
<path d="M62.2242 170.518C60.9802 176.876 62.5006 183.233 65.7141 185.721C69.7222 187.103 74.0414 182.646 75.4581 175.597C76.702 169.239 75.1817 162.916 71.9682 160.394C67.9255 159.012 63.6063 163.504 62.2242 170.518Z" fill="#263238"/>
<path d="M73.4542 186.205C73.4542 186.551 73.4542 186.896 73.3851 187.242C73.316 187.795 73.2469 188.347 73.1087 188.9C72.4176 188.762 71.7266 188.486 71.0355 188.209C70.3444 188.002 69.6533 187.725 68.9623 187.449C66.6472 186.551 64.3667 185.583 62.1207 184.581C58.2853 182.784 54.519 180.884 50.96 178.672C52.3421 175.804 53.6897 173.317 55.0027 171.485C57.6633 167.719 60.704 163.331 63.7793 161.672C64.1248 161.465 64.4703 161.258 64.8159 161.188C65.2305 161.05 65.6452 160.981 66.0598 160.981C66.6127 160.843 67.0964 160.912 67.5801 161.119C68.2712 161.258 68.9623 161.603 69.5842 162.225C71.5883 164.022 73.4197 173.282 73.627 180.815C73.7306 182.75 73.6615 184.616 73.4542 186.205Z" fill="#FFC800" stroke="#7F1919" stroke-width="3" stroke-miterlimit="10"/>
<path d="M160.494 184.616C158.283 185.652 156.037 186.551 153.791 187.414C153.1 187.691 152.339 187.967 151.648 188.175C150.75 187.691 149.851 187 149.126 186.101C147.122 183.89 145.567 180.607 144.738 176.634C143.01 168.134 145.567 159.633 150.439 157.698C152.443 156.938 154.482 157.353 156.278 158.804C157.246 159.426 158.213 160.394 158.939 161.603C160.459 163.676 161.531 166.475 162.222 169.619C163.293 175.286 162.533 180.918 160.494 184.616Z" fill="#2B454E"/>
<path d="M162.014 169.689C163.466 176.876 161.289 184.028 157.246 185.652C157.177 185.687 157.108 185.721 157.004 185.721C152.996 187.104 148.677 182.646 147.26 175.597C146.016 169.239 147.536 162.916 150.75 160.394C151.165 160.083 151.614 159.841 152.063 159.634C156.14 158.044 160.598 162.536 162.014 169.689Z" fill="#375A64"/>
<path d="M160.494 170.518C161.738 176.876 160.218 183.234 157.004 185.722C152.996 187.104 148.677 182.647 147.26 175.598C146.016 169.24 147.536 162.917 150.75 160.394C154.793 159.012 159.077 163.504 160.494 170.518Z" fill="#263238"/>
<path d="M156.866 167.304L152.408 168.652C151.959 168.79 151.337 171.001 151.648 173.316C151.959 175.632 153.1 177.221 153.583 177.083L158.041 175.735L156.866 167.304Z" fill="#2B454E"/>
<path d="M156.866 167.305C157.66 167.063 158.593 168.756 158.904 171.106C159.215 173.421 158.835 175.494 158.041 175.736C157.246 175.978 156.313 174.285 156.002 171.935C155.691 169.585 156.071 167.512 156.866 167.305Z" fill="#375A64"/>
<path d="M171.724 178.638C168.096 180.884 164.399 182.819 160.494 184.616C158.283 185.652 156.037 186.551 153.791 187.415C153.1 187.691 152.34 187.968 151.649 188.175C150.957 188.52 150.197 188.728 149.506 188.935C149.368 188.313 149.299 187.76 149.23 187.207C149.161 186.862 149.092 186.516 149.092 186.102C148.953 184.512 148.953 182.681 149.022 180.677V180.608C149.299 173.075 151.165 163.884 153.134 162.156C153.756 161.534 154.447 161.189 155.138 161.05C155.691 160.843 156.175 160.774 156.728 160.912C157.073 160.912 157.419 160.981 157.834 161.12C158.179 161.189 158.594 161.396 158.939 161.603C162.015 163.262 165.124 167.65 167.716 171.416C168.994 173.317 170.376 175.77 171.724 178.638Z" fill="#FFC800" stroke="#7F1919" stroke-width="3" stroke-miterlimit="10"/>
<path d="M159.077 104.348H68.6166C51.5127 104.348 37.6567 90.4919 37.6567 73.388V61.2943C37.6567 44.1904 51.5127 30.3345 68.6166 30.3345H159.077C176.181 30.3345 190.037 44.1904 190.037 61.2943V73.388C190.003 90.4919 176.147 104.348 159.077 104.348Z" stroke="white" stroke-width="3" stroke-miterlimit="10"/>
<path d="M164.329 93.222C130.467 101.515 97.3995 101.826 65.1957 93.5675C53.102 90.4577 44.7056 79.4697 44.7056 66.9614V66.4776C44.7056 51.3087 57.0066 38.9731 72.2101 38.9731H157.764C172.933 38.9731 185.269 51.2741 185.269 66.4776C185.234 79.1587 176.596 90.2158 164.329 93.222Z" fill="#263238"/>
<path d="M89.6598 71.7988C89.1069 75.185 85.928 77.5001 82.5072 76.9818C79.121 76.429 76.8059 73.25 77.3242 69.8293C77.8771 66.443 81.056 64.1279 84.4768 64.6462C87.8976 65.1991 90.2126 68.4126 89.6598 71.7988Z" fill="white"/>
<path d="M157.764 71.7988C157.211 75.185 154.032 77.5001 150.611 76.9818C147.225 76.429 144.91 73.25 145.428 69.8293C145.981 66.443 149.16 64.1279 152.581 64.6462C155.967 65.1991 158.282 68.4126 157.764 71.7988Z" fill="white"/>
<path d="M94.0864 72.5649C95.0433 66.6689 91.0394 61.1135 85.1433 60.1566C79.2473 59.1997 73.6919 63.2037 72.735 69.0997C71.7782 74.9957 75.7821 80.5511 81.6781 81.508C87.5742 82.4649 93.1295 78.4609 94.0864 72.5649Z" stroke="white" stroke-miterlimit="10"/>
<path d="M151.579 81.6465C157.552 81.6465 162.395 76.8044 162.395 70.8313C162.395 64.8583 157.552 60.0161 151.579 60.0161C145.606 60.0161 140.764 64.8583 140.764 70.8313C140.764 76.8044 145.606 81.6465 151.579 81.6465Z" stroke="white" stroke-miterlimit="10"/>
<path d="M145.222 130.678H85.8243C80.4339 130.678 76.0457 126.29 76.0457 120.899V85.3438H155V120.899C155 126.29 150.612 130.678 145.222 130.678Z" fill="#263238"/>
<path d="M129.534 101.584C129.638 101.549 130.018 103.795 128.601 107.009C127.91 108.564 126.735 110.326 124.939 111.777C123.176 113.228 120.758 114.23 118.201 114.403C115.609 114.576 113.121 113.954 111.221 112.779C109.286 111.604 107.938 110.049 107.04 108.598C105.278 105.627 105.381 103.346 105.485 103.381C105.692 103.312 105.934 105.454 107.766 108.08C108.664 109.358 110.012 110.741 111.774 111.743C113.536 112.745 115.782 113.297 118.132 113.125C120.481 112.952 122.624 112.088 124.282 110.81C125.941 109.566 127.081 107.976 127.841 106.594C129.327 103.692 129.327 101.549 129.534 101.584Z" fill="white"/>
<path d="M23.697 82.4758C28.1199 79.5042 33.8903 77.2236 39.1424 76.6362" stroke="white" stroke-width="3" stroke-miterlimit="10"/>
<path d="M201.37 79.6078C198.088 77.431 193.872 75.7379 190.002 75.3232" stroke="white" stroke-width="3" stroke-miterlimit="10"/>
<path d="M197.57 118.48C199.747 100.098 202.269 73.7338 203.686 41.2536C204.481 23.2513 191.039 7.7714 173.106 6.04373C143.597 3.21035 97.365 0.446071 52.1001 4.55792C33.9596 6.21649 20.3455 21.8001 21.2439 39.9752C22.3496 62.2966 24.0773 92.4963 26.4269 116.062C28.12 132.924 41.9759 145.95 58.9071 146.572C84.2693 147.505 123.591 148.611 164.157 148.369C181.226 148.265 195.566 135.446 197.57 118.48Z" stroke="#7F1919" stroke-miterlimit="10"/>
<path d="M84.5456 161.292C85.5761 161.292 86.4115 160.457 86.4115 159.426C86.4115 158.396 85.5761 157.561 84.5456 157.561C83.5151 157.561 82.6797 158.396 82.6797 159.426C82.6797 160.457 83.5151 161.292 84.5456 161.292Z" fill="#FFFAE9" stroke="#7F1919" stroke-miterlimit="10"/>
<path d="M85.3749 175.77C86.4054 175.77 87.2408 174.934 87.2408 173.904C87.2408 172.873 86.4054 172.038 85.3749 172.038C84.3444 172.038 83.509 172.873 83.509 173.904C83.509 174.934 84.3444 175.77 85.3749 175.77Z" fill="#FFFAE9" stroke="#7F1919" stroke-miterlimit="10"/>
<path d="M85.9277 190.801C86.9582 190.801 87.7935 189.965 87.7935 188.935C87.7935 187.904 86.9582 187.069 85.9277 187.069C84.8972 187.069 84.0618 187.904 84.0618 188.935C84.0618 189.965 84.8972 190.801 85.9277 190.801Z" fill="#FFFAE9" stroke="#7F1919" stroke-miterlimit="10"/>
<path d="M68.9966 187.415C69.6876 187.691 70.3787 187.967 71.0698 188.175C71.7609 188.451 72.4519 188.728 73.143 188.866" stroke="#7F1919" stroke-miterlimit="10"/>
<path opacity="0.1" d="M91.6288 193.6C91.3524 193.531 91.076 193.531 90.7995 193.461L90.3158 175.908L89.9703 163.849L89.7629 151.79L90.3849 163.849L90.9378 175.839L91.6288 193.6Z" fill="black"/>
<path opacity="0.1" d="M86.0313 160.532C85.6857 160.947 85.202 161.154 84.7182 161.224C83.7507 161.293 82.9214 160.532 82.7832 159.703C82.5759 158.943 83.0597 157.906 84.0272 157.63C84.4418 157.492 84.9946 157.492 85.4784 157.768C85.0638 157.284 84.5109 157.077 83.8889 157.146C83.3361 157.215 82.7141 157.561 82.2995 158.045C81.954 158.597 81.7466 159.289 81.8848 159.911C82.0231 160.532 82.4377 161.154 82.9906 161.431C83.5434 161.776 84.2345 161.846 84.7873 161.638C85.6166 161.431 86.1695 160.74 86.3077 159.98C86.2386 160.187 86.1695 160.325 86.0313 160.532Z" fill="black"/>
<path opacity="0.1" d="M85.5473 175.701C84.5798 175.77 83.7505 175.01 83.6123 174.181C83.405 173.352 83.8887 172.384 84.8562 172.039C85.2709 171.9 85.8237 171.969 86.3075 172.177C86.7912 172.453 87.0676 172.937 87.2059 173.49C86.9985 172.384 85.9619 171.486 84.7526 171.624C84.1997 171.693 83.5778 172.039 83.1631 172.522C82.8176 173.006 82.6794 173.697 82.7485 174.388C82.8867 175.01 83.3013 175.563 83.8542 175.909C84.407 176.185 85.0981 176.254 85.651 176.116C86.5493 175.909 87.0331 175.217 87.2404 174.457C87.1022 174.596 87.0331 174.803 86.8949 174.941C86.5148 175.356 86.0311 175.632 85.5473 175.701Z" fill="black"/>
<path opacity="0.1" d="M86.1004 191.009C85.0638 191.147 84.3036 190.387 84.1654 189.557C83.9581 188.728 84.4418 187.761 85.3402 187.415C85.824 187.277 86.3768 187.277 86.8606 187.553C87.2752 187.83 87.6208 188.313 87.759 188.797C87.5517 187.761 86.515 186.862 85.3057 187C84.6837 187.07 84.1309 187.346 83.7162 187.899C83.3016 188.383 83.1634 189.074 83.3016 189.696C83.4398 190.387 83.8544 190.94 84.4073 191.285C84.9601 191.561 85.6512 191.631 86.2041 191.492C87.0334 191.285 87.6553 190.525 87.7244 189.765C87.6553 189.972 87.5171 190.11 87.448 190.318C87.0334 190.732 86.5496 191.009 86.1004 191.009Z" fill="black"/>
</svg>
