<svg width="163" height="146" viewBox="0 0 163 146" fill="none" xmlns="http://www.w3.org/2000/svg">
<path d="M117.511 88.4536H109.436V123.763H117.511V88.4536Z" fill="#684234" stroke="black" stroke-width="5" stroke-miterlimit="10"/>
<path opacity="0.1" d="M109.652 121.431C111.118 121.431 112.825 121.339 113.951 120.262C115.487 118.791 115.689 116.658 115.623 114.649C115.542 112.161 115.344 109.676 115.22 107.191C115.142 105.635 115.096 104.074 115.076 102.515C115.035 99.1167 115.239 95.7247 115.256 92.3306C115.257 92.0072 115.27 88.4546 115.27 88.4546H117.511V123.763H109.436V121.423C109.511 121.425 109.581 121.431 109.652 121.431Z" fill="#6C4637" stroke="black" stroke-width="5" stroke-miterlimit="10"/>
<path opacity="0.1" d="M114.157 92.083C114.083 92.4841 114.005 92.8831 113.986 93.2697C113.934 94.2272 114.005 95.1848 114.036 96.1424C114.125 99.1666 113.852 102.188 113.895 105.213C113.919 107.052 114.199 108.875 114.292 110.711C114.364 112.111 114.205 113.51 114.199 114.913C114.199 116.026 114.125 117.145 113.55 118.128C113.188 118.742 111.919 120.338 111.079 119.638C110.462 119.125 110.614 117.767 110.614 117.047C110.614 115.784 110.574 114.564 110.522 113.316C110.327 108.835 110.598 104.351 110.7 99.8702C110.722 98.753 110.722 97.6348 110.813 96.5207C110.908 95.276 111.157 94.0169 111.047 92.7639C110.966 91.854 110.497 90.8321 110.769 89.9232C110.889 89.5242 111.462 89.2144 111.912 89.1097C112.761 88.9086 113.934 89.0973 114.209 90.031C114.406 90.6922 114.285 91.3928 114.157 92.083Z" fill="white" stroke="black" stroke-width="5" stroke-miterlimit="10"/>
<path d="M117.883 121.725H109.064V125.799H117.883V121.725Z" fill="#535252" stroke="black" stroke-width="5" stroke-miterlimit="10"/>
<path opacity="0.1" d="M109.064 121.725V122.84C109.064 122.825 113.986 122.902 114.449 122.984C115.688 123.203 116.566 124.212 116.929 125.799H117.883V121.725H109.064Z" fill="#535252" stroke="black" stroke-width="5" stroke-miterlimit="10"/>
<path opacity="0.1" d="M110.607 123.364C110.956 123.367 111.298 123.418 111.644 123.449C112.287 123.507 112.938 123.512 113.576 123.596C114.282 123.686 115.478 123.752 115.914 124.655C115.979 124.79 116.032 124.85 116.004 125.032C115.571 125.375 115.111 125.279 114.601 125.273C113.947 125.262 113.28 125.232 112.627 125.273C112.03 125.308 111.386 125.22 110.785 125.147C110.383 125.1 109.981 125.285 109.599 125.21C109.652 125.221 109.496 123.683 109.525 123.561C109.641 123.097 110.327 123.36 110.607 123.364Z" fill="white" stroke="black" stroke-width="5" stroke-miterlimit="10"/>
<path d="M54.0342 88.4536H45.9568V123.763H54.0342V88.4536Z" fill="#684234" stroke="black" stroke-width="5" stroke-miterlimit="10"/>
<path opacity="0.1" d="M53.8145 121.431C52.3501 121.431 50.6412 121.339 49.5167 120.262C47.9808 118.791 47.7808 116.658 47.8461 114.649C47.9259 112.161 48.1197 109.676 48.2482 107.191C48.327 105.635 48.3726 104.074 48.3922 102.515C48.4337 99.1167 48.2275 95.7247 48.215 92.3306C48.2119 92.0072 48.2016 88.4546 48.2016 88.4546H45.9568V123.763H54.0342V121.423C53.9586 121.425 53.8891 121.431 53.8145 121.431Z" fill="#6C4637" stroke="black" stroke-width="5" stroke-miterlimit="10"/>
<path opacity="0.1" d="M49.3094 92.083C49.3851 92.4841 49.4628 92.8831 49.4825 93.2697C49.5343 94.2272 49.4649 95.1848 49.4338 96.1424C49.3426 99.1666 49.6162 102.188 49.5727 105.213C49.5457 107.052 49.2669 108.875 49.1778 110.711C49.1021 112.111 49.2649 113.51 49.27 114.913C49.27 116.026 49.3426 117.145 49.9198 118.128C50.2795 118.742 51.549 120.338 52.3885 119.638C53.0061 119.125 52.8548 117.767 52.8548 117.047C52.8548 115.784 52.8942 114.564 52.9481 113.316C53.1429 108.835 52.8724 104.351 52.7698 99.8702C52.745 98.753 52.7408 97.6348 52.6558 96.5207C52.5574 95.276 52.3087 94.0169 52.4206 92.7639C52.5014 91.854 52.9699 90.8321 52.6994 89.9232C52.5791 89.5242 52.006 89.2144 51.5573 89.1097C50.7085 88.9086 49.5343 89.0973 49.2597 90.031C49.0628 90.6922 49.183 91.3928 49.3094 92.083Z" fill="white" stroke="black" stroke-width="5" stroke-miterlimit="10"/>
<path d="M54.4022 121.725H45.5869V125.799H54.4022V121.725Z" fill="#535252" stroke="black" stroke-width="5" stroke-miterlimit="10"/>
<path opacity="0.1" d="M45.5869 121.725V122.84C45.5869 122.825 50.5076 122.902 50.9719 122.984C52.2093 123.203 53.085 124.212 53.4519 125.799H54.4022V121.725H45.5869Z" fill="#535252" stroke="black" stroke-width="5" stroke-miterlimit="10"/>
<path opacity="0.1" d="M47.1332 123.364C47.4762 123.367 47.8214 123.418 48.1654 123.449C48.8059 123.507 49.4578 123.512 50.0972 123.596C50.805 123.686 51.9979 123.752 52.4352 124.655C52.5005 124.79 52.5544 124.85 52.5254 125.032C52.0922 125.375 51.6331 125.279 51.1253 125.273C50.4662 125.262 49.7987 125.232 49.1448 125.273C48.5478 125.308 47.9053 125.22 47.3052 125.147C46.9031 125.1 46.501 125.285 46.1207 125.21C46.1694 125.221 46.017 123.683 46.0492 123.561C46.1611 123.097 46.8482 123.36 47.1332 123.364Z" fill="white" stroke="black" stroke-width="5" stroke-miterlimit="10"/>
<path d="M109.437 100.585H54.0344V105.741H109.437V100.585Z" fill="#6C4637" stroke="black" stroke-width="5" stroke-miterlimit="10"/>
<path opacity="0.1" d="M109.437 100.585H54.0344V103.175H109.437V100.585Z" fill="#6C4637" stroke="black" stroke-width="5" stroke-miterlimit="10"/>
<path d="M120.73 88.4534H42.7378L52.6403 51.1226H115.456L120.73 88.4534Z" fill="#684234" stroke="black" stroke-width="5" stroke-miterlimit="10"/>
<path opacity="0.1" d="M117.812 85.1381C114.361 86.2594 110.95 86.3589 107.346 86.2926C103.44 86.2211 99.5461 85.9952 95.6484 85.7754C87.8912 85.3433 80.1309 85.4873 72.3975 84.7401C68.3868 84.3536 64.4279 84.0831 60.4047 84.1857C58.2729 84.2416 55.2644 84.3857 53.6394 82.685C51.462 80.4029 52.3802 76.3632 52.9326 73.6127C53.4207 71.1928 54.0757 68.778 54.2912 66.3146C54.4311 64.7476 54.5182 63.1775 54.7224 61.6178C55.0726 58.9533 56.0033 56.0567 58.4357 54.5747C61.7137 52.5724 65.7783 52.7009 69.4822 52.5735C75.2683 52.3724 81.8461 52.9973 87.4839 51.1226H52.6403L42.7368 88.4534H120.729L120.14 84.2738C119.376 84.5919 118.599 84.8811 117.812 85.1381Z" fill="#805343" stroke="black" stroke-width="5" stroke-miterlimit="10"/>
<path d="M120.73 88.4536H42.7378V91.7296H120.73V88.4536Z" fill="#694436" stroke="black" stroke-width="5" stroke-miterlimit="10"/>
<path d="M109.437 100.585H54.0342V105.741H109.437V100.585Z" fill="#684234" stroke="black" stroke-width="5" stroke-miterlimit="10"/>
<path opacity="0.1" d="M105.157 53.8928C101.857 54.0316 98.571 53.6782 95.2774 53.6782C92.6782 53.6782 90.193 53.6637 87.6311 54.071C85.4154 54.4244 83.2059 54.8358 80.9621 54.9229C78.8314 55.0068 76.7369 54.8016 74.6331 54.7167C72.3707 54.6234 70.0129 55.2577 67.7931 55.6504C66.0219 55.9634 64.0974 56.237 62.4226 56.892C60.6111 57.6019 60.0338 58.3605 59.6224 60.0809C59.0379 62.5257 58.7912 64.6689 58.6606 67.1903C58.5508 69.3657 58.4689 71.4581 58.2751 73.621C58.1611 74.8501 57.7621 76.9705 58.1652 78.1799C58.6585 79.6733 60.6432 80.5397 61.9863 80.8745C63.9958 81.373 66.0416 81.0538 68.1019 81.1574C71.0358 81.3056 73.9563 81.6186 76.8923 81.7616C82.4296 82.0321 88.0529 81.5087 93.5415 82.3264C97.2828 82.883 101.092 82.7399 104.84 82.9265C106.925 83.0291 108.877 82.1627 110.918 81.8062C112.194 81.5834 113.013 81.4808 113.55 80.1324C114.505 77.7426 114.549 75.0066 114.564 72.4737C114.581 69.9139 114.903 67.3541 114.779 64.7725C114.625 61.5608 114.583 57.8392 112.909 54.9768C111.357 52.3175 107.645 53.787 105.157 53.8928Z" fill="white" stroke="black" stroke-width="5" stroke-miterlimit="10"/>
<g opacity="0.21">
<path d="M47.3166 103.164C47.3166 103.164 47.4979 103.937 47.6295 105.099C47.7694 106.258 47.8648 107.807 47.8762 109.354C47.8803 110.901 47.8005 112.45 47.672 113.609C47.5518 114.77 47.3787 115.544 47.3787 115.544C47.3632 115.614 47.2948 115.656 47.2264 115.64C47.1766 115.629 47.1404 115.591 47.13 115.544C47.13 115.544 46.9569 114.771 46.8367 113.609C46.7082 112.45 46.6274 110.901 46.6326 109.354C46.644 107.807 46.7393 106.258 46.8792 105.099C47.0119 103.938 47.1922 103.164 47.1922 103.164C47.2005 103.129 47.2347 103.108 47.2689 103.116C47.2927 103.121 47.3114 103.14 47.3166 103.164Z" fill="white"/>
</g>
<path d="M115.528 9.31678V55.5956H52.4216V9.31678C52.4216 6.09369 54.6664 3.47998 57.4325 3.47998H110.52C113.281 3.47998 115.528 6.09369 115.528 9.31678Z" fill="#684234" stroke="black" stroke-width="5" stroke-miterlimit="10"/>
<path opacity="0.42" d="M114.786 50.7661C102.416 52.0419 90.1691 51.0501 77.798 50.5288C74.4993 50.3889 71.1954 50.2594 67.9018 50.0086C65.2021 49.8044 62.2712 49.4862 60.0016 47.8757C58.7061 46.9554 57.6345 45.0672 57.4501 43.4805C57.105 40.5248 57.8169 37.595 58.047 34.66C58.3818 30.3892 57.7734 26.1121 57.8149 21.8392C57.8543 18.2689 58.2014 13.2529 60.6566 10.4174C62.2982 8.51671 64.9523 8.50013 67.2561 8.51049C74.4381 8.54573 81.4865 8.81 88.6747 8.33638C92.9424 8.05552 97.2226 7.46376 101.504 7.56429C106.542 7.68347 112.044 8.94265 115.478 12.9181C115.495 12.9378 115.51 12.9596 115.526 12.9783V9.31678C115.526 6.09369 113.279 3.47998 110.519 3.47998H57.4325C54.6664 3.47998 52.4216 6.09369 52.4216 9.31678V55.5956H115.527V50.6822C115.28 50.7081 115.036 50.7402 114.786 50.7661Z" fill="black"/>
<path opacity="0.1" d="M102.434 12.8922C99.3719 12.5855 96.3488 12.2238 93.2967 11.8051C90.3348 11.3988 87.2506 11.4807 84.2783 11.7782C81.3806 12.0694 78.4488 11.8289 75.5438 11.9813C73.155 12.1056 70.8014 12.6632 68.4406 13C66.5285 13.2736 64.9201 13.8758 63.6122 15.4054C62.0576 17.2305 62.2691 20.3157 62.0867 22.5636C61.8535 25.4768 61.982 28.3766 62.2711 31.2763C62.6515 35.0891 62.2867 40.3103 65.1667 43.2339C69.3288 47.4467 76.0796 46.545 81.4511 46.2341C87.433 45.8859 93.4387 46.6539 99.4206 46.3378C101.756 46.2134 104.253 45.9823 106.587 46.2891C108.424 46.5305 109.028 46.6394 110.002 44.8599C111.363 42.3747 112.078 39.1236 112.519 36.3545C113.092 32.7656 113.234 28.5465 112.704 24.9483C112.422 23.0569 112.293 21.1469 112.088 19.2452C111.962 18.0533 112.092 15.8024 111.041 14.9774C110.27 14.3711 108.557 14.3411 107.633 14.0654C105.929 13.5586 104.211 13.0684 102.434 12.8922Z" fill="black"/>
<g opacity="0.12">
<path d="M99.9949 5.26153C99.9949 5.26153 101.743 5.09364 104.366 4.94855C105.677 4.87704 107.206 4.81693 108.846 4.77755C109.815 4.74231 110.726 5.06151 111.548 5.58384C112.37 6.10928 113.022 6.92075 113.424 7.8058C113.816 8.69915 113.993 9.65468 114.011 10.5656C114.055 11.4797 113.995 12.2881 113.993 13.1192C113.96 14.7588 113.906 16.2884 113.841 17.5994C113.707 20.2225 113.547 21.9708 113.547 21.9708C113.542 22.0403 113.48 22.09 113.412 22.0838C113.35 22.0786 113.304 22.0299 113.299 21.9708C113.299 21.9708 113.139 20.2235 113.005 17.5994C112.94 16.2884 112.886 14.7598 112.853 13.1192C112.832 12.313 112.833 11.4258 112.793 10.6216C112.773 9.81531 112.605 9.01939 112.288 8.3157C111.981 7.60993 111.506 6.9933 110.883 6.57668C110.27 6.1756 109.522 5.85537 108.846 5.86988C107.207 5.82946 105.677 5.77039 104.366 5.69888C101.744 5.55379 99.9949 5.3859 99.9949 5.3859C99.9607 5.38279 99.9348 5.35273 99.9389 5.31853C99.941 5.2864 99.9658 5.2636 99.9949 5.26153Z" fill="white"/>
</g>
<path d="M33.6145 82.1816H25.3433V124.204H33.6145V82.1816Z" fill="#744A3B" stroke="black" stroke-width="5" stroke-miterlimit="10"/>
<path opacity="0.1" d="M29.7332 122.219C28.1973 121.27 28.0802 119.951 28.0098 118.55C27.6854 112.256 27.3786 105.909 27.6678 99.6133C27.8315 96.0098 28.0833 92.4105 28.2015 88.8081C28.2792 86.5914 28.3922 84.3673 28.9238 82.1816H25.3442V124.204H33.6155V123.668C32.1946 123.38 30.8432 122.903 29.7332 122.219Z" fill="#744A3B"/>
<path opacity="0.1" d="M29.3884 90.8011C29.3884 94.2087 28.9127 97.6017 28.8888 101.008C28.865 104.311 28.7686 107.617 28.836 110.92C28.8712 112.617 28.7106 114.314 28.7893 116.012C28.8453 117.301 28.6028 120.185 30.6393 120.792C32.7949 121.435 32.5804 118.232 32.5317 117.391C32.1047 109.62 31.9606 101.857 32.1119 94.0812C32.1565 91.7183 32.2321 89.3543 32.3482 86.9914C32.4052 85.8659 33.0706 84.3798 32.2311 83.3393C31.7357 82.7237 30.8559 82.646 30.2195 83.1787C29.5189 83.7652 29.7542 84.6586 29.7355 85.3799C29.6837 87.1894 29.3884 88.9906 29.3884 90.8011Z" fill="white"/>
<path d="M33.9742 123.039H24.9827V125.371H33.9742V123.039Z" fill="#535252" stroke="black" stroke-width="5" stroke-miterlimit="10"/>
<path opacity="0.1" d="M24.9827 123.039V123.677C24.9827 123.668 29.9997 123.714 30.4744 123.759C31.7387 123.885 32.6331 124.463 33.002 125.371H33.9742V123.039H24.9827Z" fill="#535252"/>
<path opacity="0.1" d="M26.5578 123.977C26.9112 123.979 27.2615 124.009 27.6118 124.027C28.2678 124.06 28.9353 124.063 29.5851 124.11C30.3053 124.161 31.523 124.2 31.9676 124.717C32.034 124.793 32.092 124.827 32.0588 124.932C31.6122 125.128 31.1458 125.073 30.6297 125.068C29.9581 125.063 29.2783 125.046 28.6119 125.068C28.0077 125.089 27.3475 125.037 26.7361 124.996C26.3215 124.969 25.9153 125.074 25.5256 125.032C25.5816 125.037 25.4209 124.158 25.452 124.088C25.566 123.825 26.2697 123.975 26.5578 123.977Z" fill="white"/>
<path d="M138.126 82.1816H129.85V124.204H138.126V82.1816Z" fill="#744A3B" stroke="black" stroke-width="5" stroke-miterlimit="10"/>
<path opacity="0.1" d="M134.246 122.219C132.709 121.27 132.592 119.951 132.522 118.55C132.196 112.256 131.887 105.909 132.178 99.6133C132.342 96.0098 132.592 92.4105 132.716 88.8081C132.79 86.5914 132.9 84.3673 133.436 82.1816H129.85V124.204H138.126V123.668C136.704 123.38 135.355 122.903 134.246 122.219Z" fill="#744A3B"/>
<path opacity="0.1" d="M133.903 90.8011C133.903 94.2087 133.425 97.6017 133.403 101.008C133.376 104.311 133.279 107.617 133.347 110.92C133.382 112.617 133.222 114.314 133.299 116.012C133.358 117.301 133.112 120.185 135.151 120.792C137.304 121.435 137.087 118.232 137.043 117.391C136.618 109.62 136.474 101.857 136.622 94.0812C136.665 91.7183 136.743 89.3543 136.857 86.9914C136.91 85.8659 137.58 84.3798 136.74 83.3393C136.243 82.7237 135.365 82.646 134.731 83.1787C134.027 83.7652 134.265 84.6586 134.247 85.3799C134.196 87.1894 133.903 88.9906 133.903 90.8011Z" fill="white"/>
<path d="M138.486 123.039H129.495V125.371H138.486V123.039Z" fill="#535252" stroke="black" stroke-width="5" stroke-miterlimit="10"/>
<path opacity="0.1" d="M129.495 123.039V123.677C129.495 123.668 134.514 123.714 134.984 123.759C136.252 123.885 137.142 124.463 137.515 125.371H138.486V123.039H129.495Z" fill="#535252"/>
<path opacity="0.1" d="M131.07 123.977C131.42 123.979 131.774 124.009 132.122 124.027C132.777 124.06 133.443 124.063 134.093 124.11C134.815 124.161 136.035 124.2 136.48 124.717C136.544 124.793 136.602 124.827 136.571 124.932C136.126 125.128 135.66 125.073 135.14 125.068C134.471 125.063 133.793 125.046 133.124 125.068C132.516 125.089 131.86 125.037 131.248 124.996C130.835 124.969 130.424 125.074 130.037 125.032C130.09 125.037 129.932 124.158 129.963 124.088C130.078 123.825 130.782 123.975 131.07 123.977Z" fill="white"/>
<path d="M19.6589 87.04H8.98853V141.248H19.6589V87.04Z" fill="#744A3B" stroke="black" stroke-width="5" stroke-miterlimit="10"/>
<path opacity="0.1" d="M14.6553 138.686C12.6727 137.463 12.5225 135.76 12.4313 133.952C12.0136 125.833 11.6156 117.647 11.9939 109.525C12.2033 104.877 12.5276 100.235 12.6831 95.5869C12.7784 92.7296 12.9256 89.8589 13.6117 87.041H8.9895V141.249H19.6599V140.556C17.8318 140.184 16.0896 139.571 14.6553 138.686Z" fill="#744A3B"/>
<path opacity="0.1" d="M14.2118 98.159C14.2118 102.554 13.5993 106.931 13.564 111.326C13.533 115.589 13.4107 119.849 13.4977 124.111C13.5423 126.3 13.335 128.489 13.4366 130.678C13.5091 132.342 13.1951 136.062 15.8254 136.847C18.6018 137.678 18.322 133.543 18.264 132.46C17.7126 122.436 17.5281 112.421 17.7199 102.389C17.78 99.3395 17.8795 96.2915 18.0266 93.2457C18.0971 91.7927 18.9614 89.8723 17.8743 88.5354C17.2328 87.7384 16.1011 87.6389 15.2803 88.326C14.3776 89.0795 14.6823 90.235 14.6564 91.1636C14.5942 93.5006 14.2118 95.8241 14.2118 98.159Z" fill="white"/>
<path d="M20.1252 139.745H8.52832V142.755H20.1252V139.745Z" fill="#535252" stroke="black" stroke-width="5" stroke-miterlimit="10"/>
<path opacity="0.1" d="M8.52832 139.745V140.568C8.52832 140.557 14.9983 140.614 15.6098 140.676C17.241 140.835 18.3945 141.581 18.8743 142.755H20.1252V139.745H8.52832Z" fill="#535252"/>
<path opacity="0.1" d="M10.5595 140.953C11.0114 140.956 11.4684 140.994 11.9192 141.018C12.7618 141.062 13.622 141.065 14.4635 141.127C15.39 141.193 16.9653 141.243 17.5384 141.909C17.6202 142.006 17.6918 142.052 17.6544 142.186C17.0834 142.44 16.4792 142.369 15.8097 142.363C14.9464 142.356 14.0697 142.333 13.2095 142.363C12.426 142.39 11.5762 142.322 10.7875 142.27C10.259 142.234 9.72523 142.372 9.22674 142.315C9.29928 142.322 9.09201 141.189 9.13347 141.097C9.28167 140.759 10.1885 140.951 10.5595 140.953Z" fill="white"/>
<path d="M154.475 87.04H143.808V141.248H154.475V87.04Z" fill="#744A3B" stroke="black" stroke-width="5" stroke-miterlimit="10"/>
<path opacity="0.1" d="M149.475 138.686C147.488 137.463 147.338 135.76 147.246 133.952C146.83 125.833 146.432 117.647 146.802 109.525C147.019 104.877 147.34 100.235 147.498 95.5869C147.592 92.7296 147.739 89.8589 148.426 87.041H143.807V141.249H154.474V140.556C152.648 140.184 150.904 139.571 149.475 138.686Z" fill="#744A3B"/>
<path opacity="0.1" d="M149.026 98.159C149.026 102.554 148.416 106.931 148.38 111.326C148.35 115.589 148.226 119.849 148.312 124.111C148.358 126.3 148.153 128.489 148.251 130.678C148.329 132.342 148.01 136.062 150.642 136.847C153.416 137.678 153.139 133.543 153.08 132.46C152.528 122.436 152.346 112.421 152.538 102.389C152.596 99.3395 152.694 96.2915 152.842 93.2457C152.909 91.7927 153.776 89.8723 152.691 88.5354C152.049 87.7384 150.918 87.6389 150.098 88.326C149.193 89.0795 149.496 90.235 149.471 91.1636C149.411 93.5006 149.026 95.8241 149.026 98.159Z" fill="white"/>
<path d="M154.942 139.745H143.342V142.755H154.942V139.745Z" fill="#535252" stroke="black" stroke-width="5" stroke-miterlimit="10"/>
<path opacity="0.1" d="M143.342 139.745V140.568C143.342 140.557 149.815 140.614 150.426 140.676C152.058 140.835 153.211 141.581 153.692 142.755H154.942V139.745H143.342Z" fill="#535252"/>
<path opacity="0.1" d="M145.372 140.953C145.829 140.956 146.282 140.994 146.735 141.018C147.578 141.062 148.44 141.065 149.279 141.127C150.206 141.193 151.781 141.243 152.355 141.909C152.437 142.006 152.513 142.052 152.469 142.186C151.897 142.44 151.293 142.369 150.626 142.363C149.763 142.356 148.887 142.333 148.023 142.363C147.243 142.39 146.393 142.322 145.606 142.27C145.072 142.234 144.544 142.372 144.04 142.315C144.112 142.322 143.912 141.189 143.945 141.097C144.097 140.759 145.005 140.951 145.372 140.953Z" fill="white"/>
<path d="M158.388 55.4092H5.07935V94.1267H158.388V55.4092Z" fill="#805343" stroke="black" stroke-width="5" stroke-miterlimit="10"/>
<path opacity="0.42" d="M151.275 83.1506C146.719 83.8564 142.009 83.5631 137.416 83.4802C132.422 83.3921 127.424 83.4284 122.428 83.5268C102.304 83.9248 82.2327 85.5135 62.0972 85.6876C52.3595 85.7716 42.6446 85.5374 32.9142 85.242C27.4411 85.0741 21.6023 85.2099 16.3935 83.2677C14.2151 82.4563 12.047 81.2686 10.6769 79.3264C8.79697 76.6568 8.67882 73.0886 8.52026 69.937C8.27671 65.0847 8.55031 60.247 8.86329 55.4082H5.08057V94.1257H158.389V81.4199C156.07 82.1868 153.695 82.7744 151.275 83.1506Z" fill="black"/>
<path opacity="0.1" d="M50.1394 81.8934C69.5981 81.8934 88.9377 81.1576 108.312 82.0509C116.429 82.425 124.553 81.8737 132.68 81.8934C136.348 81.9006 139.914 81.3742 143.546 81.0622C145.829 80.8653 148.719 81.2456 150.502 79.4444C152.354 77.5738 152.35 73.1216 152.598 70.6374C152.832 68.3046 153.349 64.3436 151.283 62.6357C148.272 60.1442 141.315 61.4107 137.806 61.4107C130.278 61.4107 122.743 61.191 115.229 61.2055C109.591 61.2169 103.96 61.2096 98.3251 61.2055C92.3215 61.2013 86.3914 61.9921 80.4064 62.1838C74.9209 62.36 69.3981 62.9383 63.9106 62.4906C58.7889 62.0729 53.691 61.2283 48.5579 61.0448C39.9488 60.7422 31.0278 60.3629 22.5234 61.7734C20.1076 62.1755 15.4958 62.6046 14.6108 65.0348C13.933 66.9024 14.6056 70.0975 15.2233 71.9204C16.4887 75.6938 19.5117 78.1977 23.1172 79.659C31.1646 82.9204 40.5281 81.9701 49.0087 81.8986C49.3849 81.8944 49.7611 81.8934 50.1394 81.8934Z" fill="white"/>
<path d="M160.432 55.4092H3.03467V66.8361H160.432V55.4092Z" fill="#7A4E3F" stroke="black" stroke-width="5" stroke-miterlimit="10"/>
<g opacity="0.12">
<path d="M7.48479 77.4879C7.91177 81.8572 8.01852 86.2286 8.03614 90.5989L7.42261 89.9854C11.6582 89.9947 15.8907 90.0807 20.1264 90.4756C20.1937 90.4818 20.2445 90.5419 20.2372 90.6103C20.2321 90.6704 20.1844 90.7171 20.1264 90.7222C15.8907 91.1171 11.6582 91.2031 7.42261 91.2124C7.08475 91.2135 6.81012 90.9409 6.80908 90.603V90.5989C6.8267 86.2286 6.93344 81.8582 7.36043 77.4879C7.36457 77.4547 7.39463 77.4288 7.42883 77.4319C7.45784 77.435 7.48064 77.4588 7.48479 77.4879Z" fill="white"/>
</g>
<path opacity="0.42" d="M160.458 64.0034H3.13818V66.8016H160.458V64.0034Z" fill="black"/>
</svg>
