<svg width="511" height="232" viewBox="0 0 511 232" fill="none" xmlns="http://www.w3.org/2000/svg">
<path d="M368.05 84.9435C365.623 84.3401 363.012 82.2757 363.651 79.857C361.397 79.9032 359.014 79.9211 357.063 78.7914C355.111 77.6616 353.894 74.945 355.155 73.0732C353.902 72.593 352.577 72.0589 351.802 70.9625C351.029 69.8661 351.157 68.038 352.382 67.4962C350.094 65.098 347.811 62.5663 346.633 59.4697C345.454 56.373 345.606 52.5524 347.837 50.1028C345.123 47.9819 345.375 43.6939 346.92 40.6178C348.53 37.4134 351.26 34.7867 354.523 33.3C355.383 30.1238 358.282 27.6049 361.546 27.1992C362.224 25.3556 363.4 23.6173 365.123 22.6724C366.846 21.7249 369.162 21.7301 370.653 23.0062C373.511 20.7595 377.447 19.9584 380.957 20.9058C382.128 21.2217 383.255 21.7224 384.46 21.8738C387.785 22.2949 390.933 20.0123 394.284 20.0893C396.731 20.1458 399.018 21.4553 401.465 21.4913C402.906 21.5144 404.344 21.0907 405.774 21.273C407.204 21.4553 408.706 22.5902 408.524 24.0204C410.332 23.9614 412.178 23.9074 413.906 24.4441C415.634 24.9807 417.249 26.2209 417.734 27.9644C417.891 28.5267 417.955 29.1686 418.397 29.5486C418.759 29.8593 419.272 29.9004 419.75 29.9338C421.966 30.0981 424.251 30.5372 426.038 31.8595C427.823 33.1819 428.963 35.5826 428.244 37.6856C431.43 37.986 433.615 41.9941 432.144 44.8339C431.969 45.1729 431.748 45.5144 431.766 45.8944C431.797 46.544 432.47 46.9317 432.963 47.358C434.303 48.5185 434.542 50.5804 434.008 52.2725C433.474 53.9646 432.311 55.3717 431.176 56.7351C432.747 57.4053 433.502 59.349 433.186 61.0282C432.871 62.7075 431.689 64.112 430.323 65.1365C429.946 65.4189 429.522 65.7219 429.425 66.1841C429.291 66.8158 429.823 67.3652 430.172 67.907C431.245 69.5683 430.639 71.8895 429.312 73.3556C427.984 74.8217 426.097 75.6306 424.274 76.3983C424.88 76.6499 425.067 77.4741 424.826 78.0853C424.585 78.6964 424.04 79.1277 423.499 79.4975C420.623 81.4617 417.123 82.5016 413.641 82.4246C412.773 82.4041 411.857 82.327 411.079 82.7122C410.54 82.9767 410.126 83.4363 409.661 83.8137C406.216 86.6022 401.129 84.4659 396.718 84.9024C395.359 85.0359 394.037 85.4288 392.681 85.5726C390.165 85.8396 387.567 85.2234 385.441 83.8522C384.177 85.1412 381.771 84.9974 380.67 83.5672C381.086 84.109 378.102 83.7264 378.11 83.7264C377.126 83.711 376.033 84.507 375.065 84.7894C372.797 85.4442 370.348 85.5161 368.05 84.9435Z" fill="black"/>
<path d="M372.538 106.345C372.538 106.345 378.418 109.239 385.669 115.486C387.178 116.788 388.842 117.912 390.604 118.849C395.354 121.373 399.686 122.816 400.859 120.526C401.121 120.023 401.321 119.476 401.47 118.906C402.466 115.07 400.335 109.272 397.203 105.916C394.152 102.65 393.775 102.047 394.406 98.2798C394.738 96.1435 395.511 93.9405 396.414 91.799L392.378 89.3751L377.989 74.855C379.632 83.7545 380.117 101.081 372.538 106.345Z" fill="#AA4F3D" stroke="#2D0F0E" stroke-width="3" stroke-miterlimit="10"/>
<path opacity="0.2" d="M394.286 99.104C390.329 96.7546 385.987 92.6797 386.508 88.0245C386.739 86.0654 387.163 84.2064 387.633 83.0176L395.67 93.658C395.01 95.3732 394.768 96.5081 394.286 99.104Z" fill="black"/>
<path d="M375.198 58.4809C376.553 73.2655 376.813 79.5332 384.441 87.285C395.916 98.9448 413.571 95.024 416.609 80.3677C419.344 67.1776 416.671 45.2189 402.156 39.0051C387.859 32.8864 373.844 43.6963 375.198 58.4809Z" fill="#D86A50" stroke="#2D0F0E" stroke-width="3" stroke-miterlimit="10"/>
<path d="M371.144 70.5288C372.89 73.5612 375.727 75.4638 378.328 76.116C382.241 77.0969 384.262 70.8061 382.927 66.8853C381.725 63.3547 377.879 61.0207 374.071 61.7884C370.32 62.5485 369.149 67.0624 371.144 70.5288Z" fill="#D86A50"/>
<path d="M397.27 105.698C397.27 105.698 407.194 107.67 415.736 113.357C424.276 119.044 433.368 150.83 433.368 150.83L416.06 152.286L397.27 105.698Z" fill="#EF6925" stroke="#2D0F0E" stroke-width="3" stroke-miterlimit="10"/>
<path d="M354.133 148.208L348.258 110.096C354.282 104.935 375.349 103.341 375.349 103.341C388.424 109.228 398.836 115.825 397.2 106.253L412.439 121.671C412.439 121.671 420.956 130.679 420.586 142.883C420.301 152.25 416.478 180.402 417.795 191.91L420.956 217.073C386.912 243.733 355.553 219.23 355.553 219.23C357.183 214.385 363.656 207.195 364.465 202.437C364.144 196.324 366.832 191.794 363.302 179.102C360.647 169.54 354.102 149.564 354.133 148.208Z" fill="#EF6925" stroke="#2D0F0E" stroke-width="3" stroke-miterlimit="10"/>
<path d="M353.478 107.352C353.478 107.352 346.507 107.716 342.457 114.467C339.864 118.788 330.816 147.002 325.113 165.196C322.209 174.458 324.643 182.428 332.356 184.669H384L385.438 173.161L346.83 168.298C346.83 168.298 358.21 135.408 359.907 125.479C361.607 115.553 353.478 107.352 353.478 107.352Z" fill="#D86A50" stroke="#2D0F0E" stroke-width="3" stroke-miterlimit="10"/>
<path opacity="0.2" d="M346.779 168.313C346.779 168.313 342.119 168.29 339.25 170.172C339.25 170.172 340.878 164.945 348.245 163.966L346.779 168.313Z" fill="black"/>
<path d="M328.798 144.552L354.143 152.707L362.301 123.731C362.301 123.731 355.817 107.293 355.078 106.926C354.338 106.558 344.52 107.411 340.961 116.855C337.402 126.299 328.798 144.552 328.798 144.552Z" fill="#EF6925" stroke="#2D0F0E" stroke-width="3" stroke-miterlimit="10"/>
<path d="M429.971 151.118C429.971 151.118 435.589 165.26 436.755 168.917C437.921 172.573 441.629 180.856 435.05 183.293C428.472 185.73 384.611 183.293 384.611 183.293V171.597C384.611 171.597 417.896 167.659 418.553 167.071C419.213 166.48 419.932 151.965 419.932 151.965L429.971 151.118Z" fill="#D86A50" stroke="#2D0F0E" stroke-width="3" stroke-miterlimit="10"/>
<g opacity="0.2">
<path d="M407.224 176.732C406.85 175.931 405.861 175.413 405.029 175.716C405.882 174.712 406.757 173.667 407.117 172.401C407.476 171.135 407.176 169.579 406.066 168.87L398.073 170.177C398.99 174.16 400.068 178.822 400.985 182.805C401.062 183.141 401.147 183.493 401.36 183.765C402.012 184.595 403.327 184.22 404.282 183.773C404.913 183.478 405.594 183.134 405.876 182.497C406.159 181.86 405.704 180.91 405.016 181.02C405.784 180.579 406.511 180.022 406.975 179.267C407.438 178.514 407.599 177.533 407.224 176.732Z" fill="black"/>
</g>
<path opacity="0.2" d="M354.682 150.537L359.761 132.746L357.052 158.445L354.682 150.537Z" fill="black"/>
<path opacity="0.2" d="M419.929 151.962C419.929 151.962 421.162 141.561 420.222 137.678C420.222 137.678 422.153 144.508 422.309 151.762L419.929 151.962Z" fill="black"/>
<path opacity="0.2" d="M418.551 167.068C418.551 167.068 424.261 167.276 427.291 170.2C427.291 170.2 426.354 164.467 419.039 164.513L418.551 167.068Z" fill="black"/>
<path d="M396.774 169.286L394.525 170.036C394.409 170.075 394.284 170.013 394.245 169.897L388.103 151.472C388.065 151.356 388.126 151.23 388.242 151.192L390.491 150.442C390.607 150.404 390.733 150.465 390.771 150.581L396.913 169.006C396.954 169.122 396.89 169.248 396.774 169.286Z" fill="#1A2E35"/>
<path d="M380.996 172.601C380.996 172.601 389.841 164.5 391.392 165.252C392.943 166.005 394.188 166.796 394.188 166.796C394.188 166.796 401.83 164.292 402.58 166.403C403.327 168.516 402.074 169.579 402.074 169.579C402.074 169.579 405.278 170.277 404.4 172.619C403.519 174.961 402.831 175.849 402.831 175.849C402.831 175.849 404.726 177.205 403.994 179.069C403.263 180.933 401.642 181.11 401.642 181.11C401.642 181.11 404.688 183.611 402.236 184.371C400.921 184.78 383.194 184.513 381.861 184.035C379.055 183.028 380.996 172.601 380.996 172.601Z" fill="#D86A50" stroke="#2D0F0E" stroke-width="2" stroke-miterlimit="10"/>
<path d="M429.376 181.38H372.13V184.71H429.376V181.38Z" fill="white" stroke="#2D0F0E" stroke-miterlimit="10"/>
<path d="M228.281 135.832L210.8 146.953C210.8 146.953 221.89 187.915 225.385 193.417L247.182 183.044L228.281 135.832Z" fill="#542A29" stroke="#2D0F0E" stroke-width="3" stroke-miterlimit="10"/>
<path d="M176.368 82.1831C176.055 85.159 176.191 87.7832 177.19 89.1158C178.224 90.487 179.991 91.4216 181.904 92.0635C180.204 95.3296 175.921 97.964 175.921 97.964H163.912C163.912 97.964 158.484 99.1708 156.422 98.0051C154.72 97.0448 152.923 96.141 151.305 95.0471C150.486 94.4925 149.713 93.8326 148.948 93.1522C151.474 91.6758 153.785 89.673 154.594 87.0411C156.689 80.2471 154.437 57.061 154.437 57.061L179.775 67.4781C179.775 67.4781 179.58 68.0455 179.285 69.0058C178.484 71.6865 176.858 77.4047 176.368 82.1831Z" fill="#542A29" stroke="#2D0F0E" stroke-width="2" stroke-miterlimit="10"/>
<path opacity="0.2" d="M158.641 68.8263C158.641 68.8263 164.084 80.1446 176.599 79.7517C177.089 74.9733 178.712 69.2551 179.516 66.5719C178.576 66.2201 177.967 66.0044 177.967 66.0044L158.641 68.8263Z" fill="black"/>
<path d="M158.615 69.6195C166.341 75.4506 175.094 76.8731 182.455 72.8958C187.19 70.3461 191.067 65.9862 192.924 60.4272C193.175 59.7006 193.381 58.9431 193.561 58.1677C196.662 43.9607 194.056 20.6489 178.524 14.6944C167.478 10.3705 154.989 15.8217 150.67 26.8883C149.42 30.026 148.96 33.4256 149.276 36.7995C150.503 52.4777 149.587 62.8074 158.615 69.6195Z" fill="#6B3632" stroke="#2D0F0E" stroke-width="3" stroke-miterlimit="10"/>
<path d="M192.942 34.1444C192.698 34.2857 192.4 34.2857 192.156 34.147C190.539 33.1277 188.533 32.9351 186.749 33.6207C186.379 33.803 185.93 33.6515 185.748 33.2791C185.565 32.9094 185.717 32.4601 186.089 32.2778C186.089 32.2778 186.092 32.2778 186.092 32.2752C188.326 31.3483 190.867 31.5614 192.916 32.8503C193.276 33.0506 193.407 33.5077 193.207 33.8672C193.204 33.8723 193.202 33.8774 193.199 33.8826C193.127 33.9853 193.042 34.0726 192.942 34.1444Z" fill="#1A2E35"/>
<path d="M170.249 34.9892C170.098 34.9866 169.951 34.9379 169.828 34.848C169.548 34.5424 169.569 34.07 169.874 33.7927C169.879 33.7875 169.882 33.785 169.887 33.7824C171.664 32.1314 174.131 31.4458 176.507 31.9491C176.904 32.0595 177.138 32.4703 177.03 32.8683V32.8709C176.912 33.2637 176.507 33.4922 176.111 33.3947C174.226 33.0532 172.29 33.6232 170.891 34.9302C170.693 35.0406 170.46 35.0637 170.249 34.9892Z" fill="#1A2E35"/>
<path d="M142.659 49.8254C144.475 53.3482 147.612 56.0083 151.384 57.2202C156.391 58.7917 159.059 54.347 157.819 49.5301C156.676 45.26 152.717 39.1516 147.612 39.7318C142.513 40.3147 140.487 45.4732 142.659 49.8254Z" fill="#6B3632"/>
<path d="M204.795 89.5679C194.639 94.2076 189.643 114.446 208.985 159.034L237.769 139.943C234.179 128.874 230.291 123.017 224.363 109.508C216.395 90.6283 204.795 89.5679 204.795 89.5679Z" fill="#89C477" stroke="#2D0F0E" stroke-width="3" stroke-miterlimit="10"/>
<path d="M225.361 217.423C219.104 221.459 210.893 226.088 201.608 230.091H136.34C136.202 225.886 136.238 219.941 136.343 214.09C136.387 211.478 136.446 208.89 136.51 206.479C136.69 199.534 136.895 194.103 136.895 194.103L134.065 90.5155C163.309 84.5919 192.025 87.7963 199.202 88.3099C199.918 88.3638 205.156 89.2342 205.3 89.9686C210.723 119.684 216.449 171.171 220.028 204.194C220.028 204.194 220.378 205.121 220.894 206.482C221.692 208.58 222.894 211.717 223.854 214.092C224.622 215.987 225.233 217.399 225.361 217.423Z" fill="#89C477" stroke="#2D0F0E" stroke-width="3" stroke-miterlimit="10"/>
<path opacity="0.2" d="M137.28 153.436L138.89 153.644L144.321 124.629L146.652 157.231L136.895 157.965L137.28 153.436Z" fill="black"/>
<path d="M134.066 90.5078C134.066 90.5078 122.547 92.639 119.774 107.072C117.222 120.362 110.998 150.586 110.998 150.586L142.516 151.241L144.698 119.081L134.066 90.5078Z" fill="#89C477" stroke="#2D0F0E" stroke-width="3" stroke-miterlimit="10"/>
<path d="M116.688 150.704L116.377 170.958C117.029 178.758 120.77 184.43 127.937 184.454L197.382 180.433L200.468 167.746L141.774 162.592L142.516 151.241L116.688 150.704Z" fill="#6B3632" stroke="#2D0F0E" stroke-width="3" stroke-miterlimit="10"/>
<path d="M232.032 167.309C230.006 165.601 218.341 160.769 213.82 159.791C209.298 158.813 192.09 167.145 192.09 167.145L190.585 177.798C190.585 177.798 193.468 180.735 198.047 180.44C200.686 180.271 206.754 176.781 206.754 176.781C206.754 176.781 207.817 178.676 209.444 180.366C211.25 182.237 213.869 184.166 215.332 182.599C216.793 181.036 212.546 175.551 211.927 174.768C212.559 175.559 217.06 181.023 219.281 179.2C221.425 177.441 216.613 171.856 216.613 171.856C216.613 171.856 219.112 174.211 220.396 175.402C221.679 176.596 224.003 176.46 223.805 173.931C223.577 170.999 220.973 168.092 220.973 168.092C220.973 168.092 223.631 168.685 228.699 170.688C232.348 172.128 233.745 168.752 232.032 167.309Z" fill="#6B3632" stroke="#2D0F0E" stroke-width="3" stroke-miterlimit="10"/>
<path opacity="0.1" d="M212.59 175.577C211.712 174.583 210.828 173.584 209.781 172.771C208.733 171.957 207.503 171.333 206.184 171.202" stroke="#1A2E35" stroke-width="0.5" stroke-miterlimit="10" stroke-linecap="round" stroke-linejoin="round"/>
<path opacity="0.1" d="M217.25 172.337C216.372 171.343 215.489 170.344 214.441 169.53C213.393 168.716 212.164 168.092 210.844 167.961" stroke="#1A2E35" stroke-width="0.5" stroke-miterlimit="10" stroke-linecap="round" stroke-linejoin="round"/>
<path opacity="0.1" d="M220.901 168.092C220.023 167.098 219.14 166.1 218.092 165.286C217.045 164.472 215.815 163.848 214.495 163.717" stroke="#1A2E35" stroke-width="0.5" stroke-miterlimit="10" stroke-linecap="round" stroke-linejoin="round"/>
<path d="M281.434 184.615H222.76C221.749 184.607 220.935 183.945 220.942 183.131C220.945 182.977 220.976 182.825 221.035 182.682L247.135 122.842C247.795 121.132 249.759 119.964 251.988 119.956H310.698C311.692 119.956 312.495 120.603 312.495 121.399C312.495 121.566 312.459 121.733 312.387 121.89L286.287 181.729C285.619 183.434 283.66 184.6 281.434 184.615Z" fill="#1A2E35"/>
<path opacity="0.7" d="M310.701 119.959H251.991C249.762 119.967 247.795 121.135 247.138 122.845L221.038 182.685C220.979 182.831 220.948 182.982 220.945 183.134C220.938 183.945 221.752 184.61 222.763 184.618H281.437C283.663 184.6 285.622 183.437 286.29 181.732L312.39 121.892C312.46 121.736 312.498 121.569 312.498 121.402C312.498 120.603 311.692 119.959 310.701 119.959Z" fill="white" stroke="#2D0F0E" stroke-width="3" stroke-miterlimit="10"/>
<path d="M274.34 153.621C273.071 156.494 270.501 158.466 268.586 158.063C266.67 157.663 266.159 155.046 267.389 152.165C268.619 149.284 271.22 147.359 273.135 147.762C275.051 148.162 275.624 150.674 274.34 153.621Z" fill="white"/>
<path opacity="0.3" d="M252.34 119.959H251.991C249.762 119.967 247.795 121.135 247.138 122.845L221.038 182.685C220.979 182.831 220.948 182.982 220.945 183.134C220.938 183.945 221.752 184.61 222.763 184.618H224.643L252.34 119.959Z" fill="black"/>
<path d="M165.324 184.615L220.58 184.749L226.332 181.026L169.443 180.494C167.168 180.497 165.324 182.343 165.324 184.615Z" fill="#1A2E35"/>
<path opacity="0.7" d="M165.324 184.615L224.64 184.749L226.332 181.026L169.443 180.494C167.168 180.497 165.324 182.343 165.324 184.615Z" fill="white" stroke="#2D0F0E" stroke-width="3" stroke-miterlimit="10"/>
<path opacity="0.2" d="M210.718 121.671C210.063 121.119 214.516 155.367 214.516 155.367L220.573 151.348C220.573 151.348 211.373 122.223 210.718 121.671Z" fill="black"/>
<path d="M504.899 206.479H7.54102V230.088H504.899V206.479Z" fill="#1A2E35" stroke="#2D0F0E" stroke-width="3" stroke-miterlimit="10"/>
<path opacity="0.4" d="M100.501 206.481H7.54346V230.091H100.501V206.481Z" fill="black"/>
<path d="M508.858 184.71H2V206.481H508.858V184.71Z" fill="#1A2E35" stroke="#2D0F0E" stroke-width="3" stroke-miterlimit="10"/>
<path opacity="0.4" d="M109.811 184.71H2V206.481H109.811V184.71Z" fill="black"/>
<path d="M172.449 38.3532C173.453 37.47 174.814 36.9693 175.859 37.3621C176.755 37.6985 177.485 38.3738 178.116 39.0927C178.422 39.4419 179.017 39.9734 179.156 40.4228C179.382 41.1546 179.387 40.8285 178.797 41.3985C178.037 42.1328 176.781 42.708 175.78 43.0007C174.468 43.3833 171.743 43.2652 171.191 41.6681C170.793 40.5178 171.44 39.2416 172.449 38.3532Z" fill="#EBF8FF" stroke="#2D0F0E" stroke-width="2" stroke-miterlimit="10"/>
<path d="M192.208 38.1887C191.204 37.3054 189.843 36.8047 188.798 37.1976C187.902 37.5339 187.173 38.2092 186.541 38.9282C186.236 39.2774 185.64 39.8089 185.501 40.2582C185.275 40.99 185.27 40.6639 185.861 41.234C186.621 41.9683 187.876 42.5435 188.878 42.8362C190.19 43.2188 192.914 43.1006 193.466 41.5036C193.862 40.3532 193.215 39.0771 192.208 38.1887Z" fill="#EBF8FF" stroke="#2D0F0E" stroke-width="2" stroke-miterlimit="10"/>
<path d="M380.618 72.788C380.179 67.3676 379.326 61.9781 378.073 56.6861C379.501 57.7235 381.668 56.7247 382.474 55.1558C383.281 53.587 383.127 51.7151 382.949 49.9588C385.024 50.7574 387.25 51.3454 389.456 51.0758C391.661 50.8062 393.849 49.5326 394.712 47.4836C398.486 49.8125 403.683 49.5634 407.216 46.8802C406.847 48.3643 408.392 49.7663 409.92 49.8536C411.448 49.9409 412.87 49.1449 414.19 48.3746C414.953 50.3158 416.375 51.9899 418.168 53.058C419.688 55.8362 421.256 58.5862 422.877 61.3079C424.921 55.9518 424.392 49.7868 421.978 44.5873C419.564 39.3878 415.379 35.1229 410.516 32.0879C407.378 30.1287 403.914 28.6395 400.266 28.0232C395.713 27.2555 391.02 27.8692 386.57 29.0991C383.917 29.8309 381.268 30.8117 379.154 32.5706C377.031 34.3372 375.585 36.7764 374.358 39.2491C371.875 44.2535 370.098 49.9511 371.361 55.392C372.794 61.5596 377.444 67.419 380.618 72.788Z" fill="black"/>
<path d="M391.218 14.9487C394.404 15.357 396.692 18.1352 398.515 20.7799C399.473 18.6821 401.997 17.8322 404.285 17.5523C406.087 17.3315 407.967 17.3315 409.654 18.0042C411.341 18.677 412.802 20.1251 413.087 21.9174C414.933 20.4204 417.796 20.5334 419.711 21.9405C421.624 23.3476 422.587 25.8356 422.438 28.2082C424.146 27.5893 426.22 28.203 427.317 29.6486C428.413 31.0942 428.444 33.2588 427.389 34.7352C429.414 34.7891 430.932 37.023 430.634 39.0257C430.336 41.0285 428.608 42.6128 426.675 43.2213C424.741 43.8299 422.641 43.6116 420.669 43.134C415.775 41.9503 411.397 39.2645 406.714 37.4184C399.873 34.7223 392.471 33.8545 385.166 33.0071C383.094 32.7683 380.929 32.5373 378.97 33.2511C377.34 33.8442 376.009 35.0382 374.736 36.2142C374.507 36.4247 374.263 36.643 373.96 36.7072C373.308 36.8407 372.749 36.1988 372.528 35.5697C371.077 31.4126 376.603 25.8973 378.998 22.8212C381.71 19.3343 386.38 14.3273 391.218 14.9487Z" fill="black"/>
<path d="M148.596 49.6897C148.819 49.1582 149.091 48.6446 149.407 48.1619C149.728 48.6087 149.936 49.1222 150.141 49.6306C150.498 50.519 150.858 51.4049 151.215 52.2933C151.04 50.6859 150.324 49.1761 149.389 47.8564C148.621 46.7728 147.373 44.9292 146.164 44.3926C146.213 45.073 146.675 45.7714 146.978 46.3774C147.266 46.9577 148.791 49.2198 148.596 49.6897Z" fill="black"/>
<path d="M176.966 33.464C175.883 33.3279 174.768 33.1944 173.715 33.4743C173.056 33.6489 172.447 33.9801 171.859 34.3268C170.773 34.9687 169.73 35.6825 168.739 36.4605C168.834 35.5695 168.929 34.676 169.024 33.785C169.037 33.654 169.053 33.5205 169.112 33.4024C169.183 33.2535 169.317 33.1456 169.451 33.0506C170.211 32.5037 171.107 32.1828 171.992 31.8798C172.724 31.6281 173.459 31.3868 174.196 31.1506C174.773 30.9657 175.721 30.4624 176.327 30.5266C177.277 30.6242 177.002 32.8324 176.966 33.464Z" fill="black"/>
<path d="M185.578 33.4794C185.612 33.5872 185.653 33.7028 185.753 33.7541C185.825 33.7926 185.91 33.7875 185.989 33.7798C186.552 33.7387 187.114 33.6976 187.679 33.6565C188.729 33.5795 189.794 33.5051 190.827 33.7105C191.859 33.9159 192.873 34.4448 193.435 35.3358C193.636 34.3909 193.572 33.3921 193.253 32.4805C193.202 32.3368 193.143 32.1878 193.03 32.0851C192.909 31.9747 192.742 31.9285 192.583 31.8874C191.43 31.5973 190.252 31.4175 189.076 31.2378C188.506 31.1505 187.935 31.0632 187.363 31.0041C186.888 30.9553 186.059 30.7628 185.604 30.9451C184.793 31.2686 185.399 32.8862 185.578 33.4794Z" fill="black"/>
<path d="M178.435 57.7571C178.653 57.5208 178.925 57.3591 179.151 57.1408C179.362 56.938 179.611 56.7839 179.881 56.6735C180.435 56.445 181.054 56.3936 181.647 56.4296C182.607 56.4912 183.552 56.7531 184.513 56.712C185.321 56.6786 186.105 56.4322 186.911 56.3603C187.717 56.2884 188.608 56.4322 189.152 57.0304C189.342 57.241 189.484 57.5542 189.348 57.8033C189.224 58.0267 188.939 58.0934 188.688 58.1345C186.223 58.5428 183.724 58.7431 181.229 58.7328C180.402 58.7302 179.567 58.702 178.764 58.5068C178.368 58.4093 177.983 58.268 177.626 58.0755C177.436 57.9728 177.244 57.8675 177.072 57.734C176.992 57.6723 176.833 57.5902 176.789 57.4977C176.686 57.2718 177.015 57.2795 177.151 57.2949C177.354 57.318 177.554 57.3771 177.76 57.3899C178.06 57.4079 178.322 57.5106 178.62 57.526" fill="#442221"/>
<path d="M178.435 57.7571C178.653 57.5208 178.925 57.3591 179.151 57.1408C179.362 56.938 179.611 56.7839 179.881 56.6735C180.435 56.445 181.054 56.3936 181.647 56.4296C182.607 56.4912 183.552 56.7531 184.513 56.712C185.321 56.6786 186.105 56.4322 186.911 56.3603C187.717 56.2884 188.608 56.4322 189.152 57.0304C189.342 57.241 189.484 57.5542 189.348 57.8033C189.224 58.0267 188.939 58.0934 188.688 58.1345C186.223 58.5428 183.724 58.7431 181.229 58.7328C180.402 58.7302 179.567 58.702 178.764 58.5068C178.368 58.4093 177.983 58.268 177.626 58.0755C177.436 57.9728 177.244 57.8675 177.072 57.734C176.992 57.6723 176.833 57.5902 176.789 57.4977C176.686 57.2718 177.015 57.2795 177.151 57.2949C177.354 57.318 177.554 57.3771 177.76 57.3899C178.06 57.4079 178.322 57.5106 178.62 57.526" stroke="#2D0F0E" stroke-miterlimit="10"/>
<path d="M179.354 61.0639C180.253 61.6134 181.26 61.9857 182.302 62.1295C184.716 62.4633 189.512 61.4413 189.448 58.2266C189.448 58.1624 189.443 58.0982 189.409 58.0443C189.322 57.9005 189.109 57.9236 188.945 57.9673C186.362 58.6169 183.671 58.7042 181.008 58.7145C180.15 58.717 179.272 58.7093 178.468 58.4089C178.022 58.242 177.524 57.6206 177.023 57.6489C176.063 57.7002 177.082 58.9918 177.349 59.3179C177.911 60.0034 178.594 60.5966 179.354 61.0639Z" fill="#9B5353" stroke="#2D0F0E" stroke-miterlimit="10"/>
<path d="M181.285 51.6385C181.552 51.6103 181.811 51.5204 182.078 51.4973C182.902 51.4306 183.627 51.9955 184.281 52.5013C184.936 53.0071 185.742 53.5053 186.538 53.2844C187.244 53.0893 187.694 52.3678 187.83 51.6463C187.866 51.4588 187.889 51.2534 188.012 51.1071C188.269 50.8041 188.762 50.9273 189.127 50.7732C189.571 50.5858 189.732 50.0055 189.609 49.5408C189.486 49.076 189.15 48.7011 188.826 48.3442C189.25 48.7756 189.691 49.2378 189.822 49.8283C189.953 50.4189 189.627 51.1533 189.026 51.2252C188.852 51.2457 188.672 51.2098 188.503 51.2508C187.922 51.3844 187.866 52.1726 187.599 52.7041C187.301 53.2921 186.623 53.6311 185.963 53.6259C185.303 53.6208 184.674 53.3101 184.179 52.8762C183.919 52.6502 183.688 52.3858 183.39 52.2137C182.024 51.4331 179.423 52.681 179.305 50.2315C179.721 51.03 180.25 51.7515 181.285 51.6385Z" fill="black"/>
<path d="M173.89 40.1478C173.811 41.7218 174.817 42.9979 175.911 42.98C177.007 42.9594 177.829 41.6473 177.803 40.0682C177.778 38.4891 176.851 37.2155 175.78 37.2361C174.712 37.2592 173.864 38.543 173.89 40.1478Z" fill="black"/>
<path d="M136.713 104.663C137.878 107.878 139.195 111.3 142.004 113.249C142.505 113.599 143.07 113.896 143.681 113.927C144.87 113.986 145.874 113.003 146.403 111.937C147.805 109.108 146.906 105.7 145.679 102.791C143.946 98.6778 141.491 95.1242 137.873 92.4615C136.91 91.7528 135.069 90.2584 133.77 90.9337C131.87 91.9197 133.208 94.983 133.711 96.3721C134.71 99.1349 135.714 101.898 136.713 104.663Z" fill="#89C477"/>
<path d="M203.629 93.2909C203.89 99.5072 204.342 105.842 206.669 111.614C207.19 112.905 208.122 114.366 209.514 114.284C210.348 114.235 211.041 113.606 211.509 112.91C213.119 110.502 212.718 107.321 212.171 104.476C211.447 100.717 210.464 96.9421 208.155 93.8173C207.526 92.9648 206.943 90.7207 206.142 90.1763C204.232 88.8873 203.58 92.1432 203.629 93.2909Z" fill="#89C477"/>
<path d="M190.516 169.104C190.31 171.82 190.102 174.537 189.897 177.256C189.858 177.77 189.833 178.337 190.148 178.745C190.534 179.246 191.314 179.295 191.869 178.995C192.423 178.694 192.783 178.129 193.04 177.554C193.774 175.898 193.818 174.023 193.741 172.213C193.689 171.014 193.961 168.454 192.955 167.604C191.661 166.508 190.608 167.889 190.516 169.104Z" fill="#6B3632"/>
<path d="M187.424 39.9219C187.342 41.5601 188.372 42.8902 189.44 42.8645C190.51 42.8388 191.36 41.4754 191.337 39.8321C191.314 38.1888 190.39 36.8639 189.319 36.8895C188.253 36.9126 187.398 38.3557 187.424 39.9219Z" fill="black"/>
<path d="M394.178 62.0373C395.182 61.154 396.543 60.6533 397.588 61.0462C398.484 61.3826 399.213 62.0579 399.845 62.7768C400.15 63.126 400.746 63.6575 400.885 64.1069C401.111 64.8386 401.116 64.5126 400.525 65.0826C399.765 65.8169 398.509 66.3921 397.508 66.6848C396.196 67.0674 393.472 66.9493 392.92 65.3522C392.522 64.2019 393.169 62.9257 394.178 62.0373Z" fill="#EBF8FF" stroke="#2D0F0E" stroke-width="2" stroke-miterlimit="10"/>
<path d="M413.937 61.8728C412.933 60.9895 411.572 60.4888 410.527 60.8816C409.631 61.218 408.901 61.8933 408.27 62.6123C407.964 62.9615 407.368 63.493 407.23 63.9423C407.004 64.6741 406.999 64.348 407.589 64.918C408.349 65.6524 409.605 66.2275 410.606 66.5203C411.918 66.9028 414.643 66.7847 415.195 65.1876C415.59 64.0373 414.943 62.7612 413.937 61.8728Z" fill="#EBF8FF" stroke="#2D0F0E" stroke-width="2" stroke-miterlimit="10"/>
<path d="M399 57.238C397.917 57.1019 396.802 56.9684 395.75 57.2482C395.09 57.4228 394.481 57.7541 393.893 58.1007C392.807 58.7426 391.765 59.4564 390.773 60.2344C390.868 59.3435 390.963 58.4499 391.058 57.5589C391.071 57.428 391.087 57.2944 391.146 57.1763C391.218 57.0274 391.351 56.9196 391.485 56.8246C392.245 56.2776 393.141 55.9567 394.027 55.6537C394.758 55.4021 395.493 55.1607 396.23 54.9245C396.807 54.7396 397.755 54.2363 398.361 54.3005C399.311 54.3981 399.036 56.6063 399 57.238Z" fill="black"/>
<path d="M407.06 56.0082C407.094 56.116 407.135 56.2316 407.235 56.2829C407.307 56.3214 407.391 56.3163 407.471 56.3086C408.033 56.2675 408.596 56.2264 409.16 56.1853C410.211 56.1083 411.276 56.0339 412.308 56.2393C413.341 56.4447 414.355 56.9736 414.917 57.8646C415.117 56.9197 415.053 55.9209 414.735 55.0094C414.684 54.8656 414.625 54.7166 414.512 54.6139C414.391 54.5035 414.224 54.4573 414.065 54.4162C412.912 54.1261 411.733 53.9463 410.557 53.7666C409.987 53.6793 409.417 53.592 408.845 53.5329C408.37 53.4842 407.54 53.2916 407.086 53.4739C406.277 53.7974 406.88 55.415 407.06 56.0082Z" fill="black"/>
<path d="M395.619 63.8319C395.539 65.4059 396.546 66.682 397.639 66.664C398.736 66.6435 399.557 65.3314 399.532 63.7523C399.506 62.1732 398.579 60.8996 397.508 60.9202C396.44 60.9433 395.593 62.2271 395.619 63.8319Z" fill="black"/>
<path d="M409.153 63.606C409.07 65.2442 410.1 66.5742 411.168 66.5486C412.239 66.5229 413.089 65.1595 413.068 63.5161C413.045 61.8728 412.121 60.5479 411.05 60.5736C409.982 60.5993 409.127 62.0423 409.153 63.606Z" fill="black"/>
<path d="M208.132 171.369C208.63 171.718 209.126 172.067 209.624 172.414C210.854 173.276 212.158 174.232 212.644 175.654" stroke="#2D0F0E" stroke-width="2" stroke-miterlimit="10"/>
<path d="M211.632 167.895C212.408 168.221 213.186 168.549 213.961 168.875C214.439 169.076 214.924 169.281 215.33 169.605C215.802 169.977 216.144 170.485 216.478 170.986C216.834 171.52 217.191 172.054 217.548 172.591" stroke="#2D0F0E" stroke-width="2" stroke-miterlimit="10"/>
<path d="M215.196 164.369C216.5 164.88 217.807 165.388 219.111 165.899C219.322 165.982 219.538 166.066 219.707 166.215C219.918 166.4 220.038 166.665 220.169 166.914C220.48 167.499 220.888 168.033 221.371 168.485" stroke="#2D0F0E" stroke-width="2" stroke-miterlimit="10"/>
<path d="M379.673 174.091C379.285 176.399 378.916 178.859 379.84 181.01C379.868 181.077 379.902 181.149 379.961 181.193C380.035 181.249 380.138 181.249 380.23 181.249C380.585 181.247 380.939 181.242 381.293 181.239C381.393 181.239 381.504 181.234 381.581 181.172C381.686 181.087 381.696 180.933 381.699 180.797C381.722 178.689 381.812 176.556 381.717 174.45C381.689 173.849 381.774 173.135 381.106 172.879C380.264 172.553 379.784 173.426 379.673 174.091Z" fill="#D86A50"/>
<path d="M359.155 119.037C359.589 119.83 360.069 120.639 360.809 121.163C360.986 121.289 361.189 121.399 361.404 121.397C361.815 121.394 362.116 121.006 362.275 120.626C362.739 119.52 362.57 118.254 362.293 117.083C361.651 114.366 360.483 111.773 358.87 109.493C357.92 108.15 356.415 106.35 354.603 107.197C354.957 111.149 357.275 115.601 359.155 119.037Z" fill="#EF6925"/>
<path d="M410.65 117.445C412.421 119.768 414.26 122.257 414.56 125.163C410.295 122.534 397.947 115.396 398.076 109.575C398.235 102.29 409.23 115.581 410.65 117.445Z" fill="#EF6925"/>
<path d="M398.628 106.928C398.561 106.802 398.494 106.671 398.386 106.576C398.281 106.481 398.124 106.425 397.991 106.473C397.827 106.533 397.747 106.725 397.734 106.9C397.701 107.321 397.929 107.716 398.181 108.055C398.297 108.212 398.427 108.371 398.607 108.451C398.787 108.53 399.028 108.502 399.139 108.338C399.241 108.186 399.195 107.983 399.144 107.806C399.033 107.439 398.903 107.077 398.751 106.725" fill="#EF6925"/>
<path d="M398.43 107.02C398.356 106.632 398.055 106.296 397.678 106.183C397.644 106.63 397.649 107.079 397.696 107.523C397.711 107.677 397.768 107.867 397.922 107.885C398.063 107.903 398.166 107.755 398.214 107.621C398.345 107.267 398.363 106.871 398.261 106.507" fill="#EF6925"/>
<path d="M374.173 66.0685C374.643 67.301 375.113 68.536 375.583 69.7685C375.899 69.5195 376.161 69.2036 376.345 68.8467C376.636 69.8327 376.928 70.8187 377.218 71.8021C377.457 70.3822 377.177 68.8801 376.44 67.6425C375.996 66.8953 375.401 66.2508 374.807 65.614C374.296 65.062 373.783 64.5125 373.272 63.9604C373.405 64.1813 373.542 64.4021 373.675 64.6229" fill="black"/>
<path d="M402.721 61.5365C402.42 62.1964 401.501 62.3248 400.823 62.0655C400.145 61.8087 399.609 61.2849 398.977 60.9306C397.806 60.2732 396.307 60.2424 395.11 60.8535C393.914 61.4646 393.061 62.6997 392.91 64.0349C393.282 63.3005 393.662 62.5533 394.227 61.9576C394.794 61.3594 395.588 60.9229 396.409 60.9768C397.323 61.0358 398.084 61.6649 398.777 62.2632C399.303 62.7177 400.751 64.4586 401.481 64.2326C402.364 63.9579 402.418 62.1939 402.721 61.5365Z" fill="black"/>
<path d="M392.525 65.3188C392.419 64.0015 392.879 62.6509 393.77 61.6727C394.05 61.3671 394.373 61.0924 394.748 60.9152C395.087 60.7534 395.459 60.6764 395.832 60.6225C396.825 60.4761 397.868 60.489 398.803 60.8536C399.596 61.1643 400.823 62.063 400.828 63.0387C400.834 63.7037 400.335 63.1799 399.986 62.9257C399.285 62.4147 398.584 61.8781 397.696 61.7805C396.646 61.665 395.554 61.9834 394.669 62.5405C393.657 63.1773 392.856 64.1659 392.525 65.3188Z" fill="black"/>
<path d="M411.97 59.603C412.609 59.6056 413.259 59.7263 413.818 60.037C414.833 60.5967 415.436 61.6854 416.324 62.4301C416.63 62.6868 417.012 62.9128 417.405 62.8512C417.798 62.7895 418.122 62.3017 417.891 61.9756C417.95 62.5482 417.862 63.1541 417.529 63.6215C417.195 64.0888 416.584 64.3815 416.029 64.2351C415.557 64.1093 415.215 63.7113 414.897 63.3416C414.278 62.6149 413.618 61.8908 412.771 61.4518C411.923 61.0127 410.842 60.91 410.039 61.4261C409.702 61.6418 409.438 61.9499 409.176 62.2529C408.837 62.6483 408.496 63.0412 408.157 63.4366C407.905 63.7293 407.489 64.4585 407.142 64.6126C406.621 64.8488 406.719 64.1632 406.783 63.7267C406.996 62.2632 408.172 60.969 409.428 60.2758C410.203 59.847 411.081 59.6005 411.97 59.603Z" fill="black"/>
<path d="M408.955 73.6433C408.58 73.8513 408.38 74.2647 408.154 74.6268C407.928 74.9888 407.594 75.356 407.165 75.3585C406.503 75.3637 406.12 74.5241 405.471 74.3905C405.042 74.3007 404.59 74.542 404.169 74.4214C403.753 74.3007 403.504 73.8436 403.493 73.4097C403.483 72.9758 403.658 72.5624 403.845 72.1695C403.411 72.8679 403.126 73.746 403.434 74.5086C403.478 74.6191 403.537 74.7295 403.63 74.8091C404.017 75.148 404.595 74.7474 405.109 74.7218C406.012 74.6755 406.736 75.8387 407.607 75.5871C408.3 75.3868 408.493 74.4239 409.147 74.1158C409.407 73.9926 409.712 73.9925 409.972 73.8667C411.494 73.1272 409.866 71.6252 408.999 71.3042C409.497 71.5302 410.37 71.8203 410.475 72.4391C410.647 73.4636 409.576 73.2941 408.955 73.6433Z" fill="black"/>
<path d="M404.384 81.1125C406.744 81.3616 409.214 81.2537 411.351 80.2241C411.551 80.1265 411.777 79.975 411.764 79.7516C411.756 79.6207 411.664 79.5103 411.577 79.4127C411.168 78.9582 410.693 78.4678 410.082 78.4421C409.507 78.4164 409.014 78.8119 408.524 79.1174C408.036 79.4204 407.368 79.6387 406.914 79.2869C406.775 79.179 406.67 79.0275 406.521 78.9377C406.074 78.6655 405.53 79.0352 405.088 79.3126C403.406 80.3704 401.011 80.0777 399.624 78.6578C400.245 79.0943 400.677 79.7285 401.288 80.165C402.171 80.7941 403.332 81.0021 404.384 81.1125Z" fill="#AF5341" stroke="#2D0F0E" stroke-width="2" stroke-miterlimit="10"/>
<path d="M406.829 84.3065C408.28 84.3527 409.674 83.567 410.598 82.4475C411.52 81.328 412.016 79.9107 412.267 78.4805C412.278 79.2302 411.749 79.9055 411.099 80.2778C410.449 80.6527 409.689 80.7785 408.95 80.8889C407.353 81.1277 405.733 81.3152 404.128 81.1354C403.201 81.0302 402.315 80.5577 401.434 80.455C401.283 81.2895 402.9 82.3807 403.463 82.8352C404.431 83.6107 405.558 84.2654 406.829 84.3065Z" fill="#F46D5B" stroke="#2D0F0E" stroke-width="2" stroke-miterlimit="10"/>
<path opacity="0.25" d="M151.8 41.9222C153.009 44.1021 154.216 46.2821 155.426 48.4594C154.578 45.558 153.957 42.5923 153.577 39.5933C153.536 39.2672 153.497 38.9257 153.605 38.615C153.777 38.1246 154.263 37.8267 154.714 37.57C156.014 36.8305 157.313 36.091 158.612 35.3515C158.843 35.2205 159.087 35.0768 159.221 34.8457C159.398 34.5376 159.339 34.155 159.28 33.8032C158.764 30.7502 158.656 27.6305 158.961 24.5519C158.979 24.3721 159.008 24.1744 159.144 24.0563C159.259 23.9536 159.426 23.9382 159.58 23.9279C168.826 23.2321 178.103 22.9728 187.373 23.1474C188.056 25.0526 188.736 26.9604 189.419 28.8656C189.511 29.1223 189.609 29.3868 189.802 29.5768C190.187 29.9517 190.795 29.908 191.317 30.0364C192.172 30.2444 192.862 31.0044 192.988 31.8749C191.766 28.1261 190.5 24.2951 188.081 21.178C184.908 17.0877 179.98 14.6124 174.904 13.5905C170.429 12.6893 165.555 12.887 161.591 15.1491C160.32 15.8757 159.172 16.795 158.05 17.7347C154.519 20.7004 151.055 24.177 149.939 28.6499C149.348 31.0147 149.466 33.4925 149.584 35.9267C149.636 36.946 149.466 38.3043 149.869 39.2698C150.28 40.2583 151.274 40.9721 151.8 41.9222Z" fill="black"/>
<path d="M149.153 7.41261C149.127 6.38811 149.089 5.33794 149.412 4.36222C149.736 3.38651 150.504 2.49296 151.518 2.3312C152.714 2.14119 153.983 2.98851 155.102 2.52633C155.536 2.3466 155.873 1.99483 156.248 1.71239C157.313 0.911275 158.787 0.68789 160.043 1.13723C160.523 1.30927 161 1.5763 161.506 1.50954C161.886 1.46075 162.215 1.22967 162.541 1.03196C164.744 -0.305799 167.676 -0.346885 169.915 0.931814C170.3 1.15263 170.686 1.41454 171.13 1.45049C171.7 1.49671 172.218 1.16548 172.727 0.903573C173.692 0.405445 174.827 0.130705 175.867 0.438826C176.889 0.741811 177.706 1.57373 178.748 1.80739C179.601 1.9974 180.479 1.76374 181.347 1.6636C182.214 1.56346 183.2 1.64049 183.783 2.28754C183.966 2.49039 184.104 2.74202 184.335 2.88581C184.669 3.09123 185.093 3.01676 185.483 3.02703C186.628 3.06041 187.678 4.00275 187.838 5.13509C188.379 4.85008 189.08 5.19158 189.404 5.71281C189.727 6.23405 189.771 6.8734 189.804 7.48707C189.928 9.70554 190.053 11.9214 190.177 14.1399C190.449 19.0056 190.724 23.8893 191.679 28.6652C191.44 27.0219 189.956 25.6456 188.3 25.5327C188.608 24.6776 187.971 23.7173 187.144 23.3424C186.318 22.9676 185.37 23.0189 184.464 23.0754C176.707 23.5581 168.932 23.7147 161.162 23.5504C160.466 23.535 159.642 23.5838 159.27 24.1718C159.093 24.4517 159.064 24.7983 159.044 25.1321C158.91 27.217 158.861 29.3046 158.895 31.3946C157.056 31.3561 155.182 31.3227 153.423 31.8517C151.662 32.3832 151.549 33.5053 149.857 33.5053C148.632 33.5053 149.415 32.9738 148.842 33.8442C148.175 31.4871 148.616 33.7492 148.634 31.2868C148.655 28.6164 148.745 25.9486 148.842 23.2808C149.045 17.9914 149.292 12.7046 149.153 7.41261Z" fill="black"/>
<path d="M153.408 25.7326C153.374 27.471 152.647 29.122 152.601 30.8628C152.568 32.1518 152.059 31.8308 151.551 32.8297L148.845 34.1828C148.167 31.1376 147.227 27.8972 147.058 24.9161C146.716 18.8051 146.639 12.6837 146.56 6.56755C146.552 5.91793 146.547 5.2452 146.811 4.65206C146.993 4.23353 147.304 3.8715 147.694 3.63014C149.089 2.75713 151.038 3.68406 151.859 5.10912C152.681 6.53674 152.699 8.26478 152.742 9.91065C152.886 15.1872 153.513 20.4535 153.408 25.7326Z" fill="black"/>
<path d="M191.617 28.5755C190.339 22.6442 189.525 16.6153 189.183 10.5582C189.129 9.61585 188.657 7.93917 189.635 7.33063C190.873 6.56033 190.757 8.07525 190.793 8.90717C190.927 12.0269 191.055 15.1466 191.186 18.2663C191.258 20.0046 191.332 21.7404 191.404 23.4787C191.471 25.0989 191.276 26.9938 191.617 28.5755Z" fill="black"/>
<path opacity="0.64" d="M504.898 203.619H7.54346V214.09H504.898V203.619Z" fill="black"/>
</svg>
