<svg width="141" height="126" viewBox="0 0 141 126" fill="none" xmlns="http://www.w3.org/2000/svg">
<path d="M71.4264 117.976C103.87 117.976 130.17 91.6006 130.17 59.0649C130.17 26.5292 103.87 0.153809 71.4264 0.153809C38.9831 0.153809 12.6826 26.5292 12.6826 59.0649C12.6826 91.6006 38.9831 117.976 71.4264 117.976Z" fill="#89C477"/>
<path d="M127.144 119.667C124.401 121.378 120.887 121.195 118.308 119.239C113.534 115.613 108.009 109.706 102.342 103.371C99.4983 99.928 95.9437 97.9317 91.089 98.5021H49.3468C44.4921 97.9317 40.9171 99.928 38.0937 103.371C37.9312 103.534 37.789 103.717 37.6265 103.88C32.1218 110.011 26.7593 115.715 22.128 119.239C19.5483 121.195 16.0343 121.378 13.2921 119.667C6.48741 115.45 4.47647 107.547 5.24835 97.8095C5.24835 97.728 5.26866 97.6262 5.26866 97.5243C5.43116 95.5484 5.71553 93.491 6.08116 91.3725C6.08116 91.3725 6.08116 91.3521 6.08116 91.3318C6.10147 91.1688 6.1421 91.0058 6.16241 90.8429C7.94991 81.0651 11.7687 70.1058 15.9327 59.4317C17.1718 56.2743 18.4312 53.1577 19.6905 50.0818C20.0562 49.2058 20.4218 48.3095 20.7671 47.4336L24.3827 45.3558L24.4437 45.1725L25.2155 42.3003C25.5608 41.0577 26.414 40.0188 27.5718 39.4688C32.7515 37.004 38.0937 35.191 43.639 34.1317C43.7812 34.1114 43.9233 34.0706 44.0655 34.0503C45.1218 33.8669 46.239 34.0706 47.153 34.641L51.2359 37.1262C52.5359 37.9206 54.0187 38.3484 55.5421 38.3484H84.8124C86.3358 38.3484 87.8187 37.9206 89.1187 37.1262L93.1812 34.641C94.1155 34.0706 95.2124 33.8669 96.289 34.0503C101.976 35.0892 107.461 36.9429 112.783 39.4688C113.941 40.0188 114.814 41.0577 115.159 42.3003L115.992 45.3558L119.608 47.4336C119.994 48.3706 120.38 49.3077 120.766 50.2447C126.311 63.7706 132.059 78.6003 134.314 91.3318C136.609 104.002 135.411 114.554 127.144 119.667Z" fill="#5E6C7A"/>
<path d="M17.3953 120.991C15.9531 120.991 14.5109 120.604 13.2312 119.789C6.914 115.878 4.25306 108.687 5.1265 97.8094C5.1265 97.7279 5.14682 97.6261 5.14682 97.5446C5.30932 95.6298 5.57338 93.6131 5.95932 91.3724C5.95932 91.3724 5.95932 91.352 5.95932 91.3316C5.97963 91.2501 5.97963 91.1687 5.99994 91.0872C6.02025 91.0057 6.04057 90.9242 6.04057 90.8427C8.03119 79.965 12.5812 67.702 15.8312 59.4113C16.9078 56.6613 18.1062 53.6872 19.589 50.0613C19.7515 49.6538 19.914 49.2464 20.0968 48.839C20.2999 48.3705 20.4827 47.8816 20.6859 47.4131L20.7062 47.3724L24.3218 45.2946L24.3624 45.152L25.1343 42.2798C25.4796 40.9964 26.3734 39.9372 27.5718 39.3668C32.8734 36.8409 38.2968 35.0483 43.6796 34.0298L43.7406 34.0094C43.8624 33.989 43.9843 33.9687 44.1062 33.9483C45.2031 33.7446 46.3406 33.9687 47.2952 34.539L51.3781 37.0242C52.6578 37.8187 54.1203 38.2261 55.6031 38.2261H84.8734C86.3562 38.2261 87.839 37.8187 89.0984 37.0242L93.1609 34.539C94.1156 33.9483 95.2531 33.7446 96.3499 33.9483C101.875 34.9668 107.441 36.7798 112.884 39.3668C114.083 39.9372 114.977 40.9964 115.322 42.2798L116.134 45.2946L119.75 47.3724L119.77 47.4131C120.156 48.3501 120.542 49.2872 120.928 50.2242C126.656 64.1983 132.262 78.865 134.477 91.3316C137.056 105.856 134.68 115.165 127.205 119.789C124.442 121.5 120.827 121.337 118.227 119.341C113.392 115.654 107.684 109.543 102.241 103.452C99.1327 99.7039 95.4968 98.115 91.089 98.6242H49.3265C44.9187 98.115 41.2624 99.6835 38.1749 103.452C38.0328 103.615 37.8906 103.778 37.7281 103.941L37.7078 103.961C32.4671 109.808 26.9624 115.695 22.189 119.341C20.7671 120.441 19.0812 120.991 17.3953 120.991ZM6.22338 91.3927C5.81713 93.6335 5.55307 95.6501 5.41088 97.5446C5.39057 97.6464 5.39056 97.7279 5.39056 97.8094C4.53744 108.585 7.15775 115.695 13.3734 119.545C16.0952 121.235 19.4874 121.072 22.0671 119.117C26.8203 115.491 32.3249 109.604 37.5452 103.778L37.5656 103.758C37.7078 103.595 37.8499 103.432 37.9921 103.269C41.1406 99.439 44.8578 97.8298 49.3671 98.3594H91.089C95.5781 97.8501 99.2952 99.4594 102.444 103.269C107.867 109.339 113.575 115.45 118.389 119.117C120.908 121.032 124.402 121.195 127.062 119.545C134.436 114.982 136.772 105.774 134.212 91.3724C131.998 78.9261 126.392 64.2798 120.664 50.3261C120.278 49.389 119.912 48.4724 119.527 47.5557L115.911 45.4779L115.058 42.3613C114.712 41.139 113.88 40.1409 112.762 39.6113C107.339 37.0446 101.794 35.2316 96.289 34.2131C95.2531 34.0298 94.1765 34.2335 93.2828 34.7835L89.2203 37.2687C87.8999 38.0835 86.3968 38.5112 84.8531 38.5112H55.5828C54.039 38.5112 52.5156 38.0835 51.2156 37.2687L47.1328 34.7835C46.239 34.2335 45.1624 34.0298 44.1265 34.2131C44.0046 34.2335 43.8828 34.2538 43.7609 34.2742L43.6999 34.2946C38.3374 35.3131 32.9343 37.1057 27.6531 39.6113C26.5156 40.1409 25.6827 41.139 25.3577 42.3613L24.5046 45.4779L20.889 47.5557C20.7062 48.0038 20.5234 48.4724 20.3203 48.9409C20.1578 49.3483 19.9953 49.7557 19.8124 50.1631C18.3296 53.789 17.1312 56.7631 16.0546 59.5131C12.8249 67.7835 8.27494 80.0464 6.28431 90.8835C6.264 90.965 6.264 91.0464 6.24369 91.1279C6.24369 91.2094 6.24369 91.2909 6.22338 91.3927Z" fill="#0F227A"/>
<g opacity="0.55">
<path d="M134.355 91.2907C132.1 78.5796 126.352 63.7296 120.806 50.2037C120.421 49.2667 120.035 48.3093 119.649 47.3926L116.033 45.3148L115.2 42.2593C114.855 41.0167 114.002 39.9778 112.824 39.4278C107.502 36.9018 102.017 35.0685 96.3299 34.0093C95.2533 33.8259 94.1564 34.0296 93.2221 34.6L89.1596 37.0852C89.0986 37.1259 89.0174 37.1667 88.9564 37.2074C88.6517 37.0241 88.2658 37.0037 87.9205 37.1667C87.6158 37.3296 87.433 37.5944 87.3721 37.9C86.5596 38.1648 85.7064 38.3074 84.8533 38.3074H55.583C55.1971 38.3074 54.8111 38.287 54.4252 38.2259C54.4658 37.7981 54.2627 37.3704 53.8564 37.1667C53.3283 36.9018 52.6986 37.1055 52.4142 37.6352L52.3939 37.6759C52.008 37.513 51.622 37.3296 51.2564 37.1056L47.1736 34.6204C46.2392 34.05 45.1424 33.8463 44.0861 34.0296C43.9439 34.05 43.8017 34.0907 43.6596 34.1111C38.1142 35.1704 32.7721 36.9833 27.5924 39.4481C26.4345 39.9981 25.5611 41.037 25.2361 42.2796L24.4642 45.1518L24.4033 45.3352L20.7877 47.413C20.422 48.2889 20.0767 49.1648 19.7111 50.0611C18.4517 53.1167 17.1924 56.2537 15.9533 59.4111C11.7892 70.0648 7.97049 81.0444 6.18299 90.8222C6.16267 90.9852 6.12205 91.1481 6.10174 91.3111C6.10174 91.3111 6.10174 91.3315 6.10174 91.3518C5.7158 93.4704 5.43143 95.5278 5.28924 97.5037C5.28924 97.6056 5.26892 97.687 5.26892 97.7889C5.12674 99.5611 5.08611 101.272 5.14705 102.922C5.16736 102.148 5.20799 101.374 5.26892 100.58C5.26892 100.498 5.28924 100.396 5.28924 100.294C5.45174 98.3185 5.73611 96.2611 6.10174 94.1426C6.10174 94.1426 6.10174 94.1222 6.10174 94.1018C6.12205 93.9389 6.16267 93.7759 6.18299 93.6129C7.97049 83.8352 11.7892 72.8759 15.9533 62.2018C17.1924 59.0444 18.4517 55.9278 19.7111 52.8518C20.0767 51.9759 20.4424 51.0796 20.7877 50.2037L24.4033 48.1259L24.4642 47.9426L25.2361 45.0704C25.5814 43.8278 26.4345 42.7889 27.5924 42.2389C32.7721 39.7741 38.1142 37.9611 43.6596 36.9018C43.8017 36.8815 43.9439 36.8407 44.0861 36.8204C45.1424 36.637 46.2596 36.8407 47.1736 37.4111L51.2564 39.8963L48.9205 44.4796C48.6564 45.0093 48.8596 45.6407 49.3877 45.9259C49.5502 46.0074 49.7127 46.0481 49.8752 46.0481C50.2611 46.0481 50.6267 45.8444 50.8299 45.4574L53.2267 40.7722C53.9783 40.9963 54.7705 41.1185 55.583 41.1185H84.8533C86.0517 41.1185 87.2502 40.8537 88.3471 40.3444L90.9674 45.4778C91.1502 45.8444 91.5361 46.0685 91.9221 46.0685C92.0846 46.0685 92.2471 46.0278 92.4096 45.9463C92.9377 45.6815 93.1408 45.0296 92.8767 44.5L90.2158 39.2852L93.2627 37.4315C94.1767 36.8611 95.2939 36.6574 96.3705 36.8407C102.058 37.8796 107.542 39.7333 112.864 42.2593C114.022 42.8093 114.895 43.8481 115.241 45.0907L116.074 48.1463L119.689 50.2241C120.075 51.1407 120.461 52.0981 120.847 53.0352C126.392 66.5611 132.141 81.3907 134.395 94.1222C134.944 97.1778 135.289 100.111 135.371 102.881C135.452 99.2963 135.086 95.4056 134.355 91.2907Z" fill="white" stroke="#1C0606" stroke-width="8" stroke-miterlimit="10"/>
</g>
<g opacity="0.3">
<path d="M83.2485 38.3684C83.3095 38.6333 83.3298 38.7758 83.3298 38.7758L88.5704 47.4536L90.236 46.6592C93.3235 40.5277 99.2142 41.3629 99.2142 41.3629L96.8579 34.5388L96.6954 34.1518C96.5532 34.1314 96.411 34.0907 96.2689 34.0703C95.2126 33.887 94.0954 34.0907 93.1814 34.661L89.0985 37.1462C87.7985 37.9407 86.3157 38.3684 84.7923 38.3684H83.2485Z" fill="#0F227A"/>
</g>
<g opacity="0.3">
<path d="M57.1468 38.3684C57.0858 38.6333 57.0655 38.7758 57.0655 38.7758L51.8249 47.4536L50.1593 46.6592C47.0718 40.5277 41.1812 41.3629 41.1812 41.3629L43.5374 34.5388L43.6999 34.1518C43.8421 34.1314 43.9843 34.0907 44.1265 34.0703C45.1827 33.887 46.2999 34.0907 47.214 34.661L51.2968 37.1462C52.5968 37.9407 54.0796 38.3684 55.603 38.3684H57.1468Z" fill="#0F227A"/>
</g>
<path d="M134.355 91.3518C132.1 78.6407 126.352 63.7907 120.806 50.2647C120.42 49.3277 120.034 48.3703 119.649 47.4536L116.033 45.3759L101.489 41.6685C97.772 40.7314 93.8517 41.8722 91.2314 44.6833L85.3001 51.0185C83.7767 52.6481 81.6235 53.5851 79.3892 53.5851H70.2079H61.0267C58.7923 53.5851 56.6595 52.6481 55.1157 51.0185L49.2048 44.6833C46.5845 41.8925 42.6642 40.7314 38.947 41.6685L24.4032 45.3759L20.7876 47.4536C20.422 48.3296 20.0767 49.2055 19.711 50.1018C18.4517 53.1573 17.1923 56.2944 15.9532 59.4518C11.7892 70.1055 7.97042 81.0851 6.18292 90.8629C6.16261 91.0259 6.12198 91.1888 6.10167 91.3518C6.10167 91.3518 6.10167 91.3722 6.10167 91.3925C5.71573 93.5111 5.43136 95.5685 5.28917 97.5444C5.28917 97.6462 5.26886 97.7277 5.26886 97.8296C4.49698 107.567 6.50792 115.47 13.3126 119.687C16.0751 121.398 19.5689 121.215 22.1485 119.259C26.7798 115.735 32.1423 110.031 37.647 103.9C37.8095 103.737 37.9517 103.554 38.1142 103.391C40.9376 99.9481 44.5126 97.9518 49.3673 98.5222H91.1095C95.9642 97.9518 99.5392 99.9481 102.363 103.391C108.03 109.705 113.555 115.633 118.328 119.259C120.908 121.215 124.422 121.398 127.164 119.687C135.411 114.554 136.609 104.002 134.355 91.3518Z" fill="white" stroke="#1C0606" stroke-width="10" stroke-miterlimit="10"/>
<g opacity="0.3">
<path d="M127.144 119.667C124.401 121.378 120.887 121.195 118.308 119.239C113.534 115.613 108.009 109.686 102.342 103.371C99.4983 99.9485 95.9437 97.9522 91.089 98.5022H49.3468C44.4921 97.9318 40.9171 99.9281 38.0937 103.371C37.9515 103.534 37.789 103.717 37.6265 103.88C32.1218 110.011 26.7593 115.715 22.128 119.239C19.5483 121.195 16.0343 121.378 13.2921 119.667C6.48741 115.45 4.47647 107.547 5.24835 97.8096C5.24835 97.7281 5.26866 97.6263 5.26866 97.5448C5.28897 97.2392 5.30929 96.954 5.34991 96.6485C6.10147 102.617 8.49835 107.404 13.2921 110.358C16.0546 112.069 19.5483 111.886 22.128 109.93C26.7593 106.406 32.1218 100.702 37.6265 94.5707C37.789 94.4077 37.9312 94.2244 38.0937 94.0614C40.9171 90.6392 44.4921 88.6429 49.3468 89.1929H91.089C92.5718 89.03 93.9327 89.0911 95.2124 89.3559C98.0359 86.8096 99.2749 82.7355 98.0968 78.9466C98.0359 78.7837 97.9952 78.6003 97.9343 78.4374C97.3858 76.93 99.1124 75.6263 100.372 76.6244C100.453 76.6855 100.514 76.7466 100.595 76.8077C102.058 78.0503 103.175 79.7207 103.764 81.717C104.617 84.7522 103.967 87.9707 102.159 90.4152C101.367 91.4948 101.469 93.0022 102.322 94.0411L102.342 94.0614C108.009 100.397 113.534 106.304 118.308 109.93C120.887 111.886 124.401 112.069 127.144 110.358C131.937 107.404 134.355 102.597 135.086 96.6281C136.122 106.895 134.233 115.287 127.144 119.667Z" fill="#0F227A"/>
</g>
<path d="M79.4091 55.0115H61.0263C58.406 55.0115 55.8873 53.9115 54.0795 51.9967L48.1685 45.6615C45.8935 43.2375 42.5013 42.2393 39.292 43.0541L24.7482 46.7615C23.9966 46.9449 23.2045 46.4967 23.0216 45.7226C22.8185 44.9689 23.2857 44.1745 24.0576 43.9912L38.6013 40.2837C42.806 39.2041 47.2748 40.5282 50.2404 43.706L56.1513 50.0412C57.4107 51.3856 59.1779 52.1597 61.0263 52.1597H79.4091C81.2373 52.1597 83.0248 51.3856 84.2841 50.0412L90.1951 43.706C93.1607 40.5282 97.6294 39.2245 101.834 40.2837L116.378 43.9912C117.129 44.1949 117.597 44.9689 117.414 45.7226C117.231 46.4763 116.439 46.9449 115.687 46.7615L101.144 43.0745C97.9341 42.2597 94.542 43.2578 92.267 45.6819L86.356 52.0171C84.5482 53.9115 82.0295 55.0115 79.4091 55.0115Z" fill="#1C0606"/>
<path d="M49.2043 45.7633C49.0418 45.7633 48.8793 45.7226 48.7168 45.6411C48.1887 45.3763 47.9856 44.7244 48.2497 44.1948L51.7434 37.3503C52.0075 36.8207 52.6575 36.617 53.1856 36.8818C53.7137 37.1466 53.9168 37.7985 53.6528 38.3281L50.159 45.1726C49.9762 45.5596 49.5903 45.7633 49.2043 45.7633Z" fill="#1C0606"/>
<path d="M91.2308 45.7633C90.8449 45.7633 90.4792 45.5596 90.2761 45.1726L86.7824 38.3281C86.5183 37.7985 86.7214 37.167 87.2496 36.8818C87.7777 36.617 88.4074 36.8207 88.6917 37.3503L92.1855 44.1948C92.4496 44.7244 92.2464 45.3559 91.7183 45.6411C91.5558 45.7226 91.3933 45.7633 91.2308 45.7633Z" fill="#1C0606"/>
<path d="M53.308 91.3521C59.0069 91.3521 63.6268 86.719 63.6268 81.0039C63.6268 75.2888 59.0069 70.6558 53.308 70.6558C47.6091 70.6558 42.9893 75.2888 42.9893 81.0039C42.9893 86.719 47.6091 91.3521 53.308 91.3521Z" fill="#D0D4D8"/>
<path d="M53.3078 91.4944C47.5391 91.4944 42.8672 86.7889 42.8672 81.0241C42.8672 75.2593 47.5594 70.5537 53.3078 70.5537C59.0562 70.5537 63.7484 75.2593 63.7484 81.0241C63.7484 86.7889 59.0562 91.4944 53.3078 91.4944ZM53.3078 70.7981C47.7016 70.7981 43.1312 75.3815 43.1312 81.0037C43.1312 86.6259 47.7016 91.2093 53.3078 91.2093C58.9141 91.2093 63.4844 86.6259 63.4844 81.0037C63.4844 75.3815 58.9141 70.7981 53.3078 70.7981Z" fill="#0F227A"/>
<g opacity="0.3">
<path d="M61.6359 74.9332C60.4375 74.4443 59.1375 74.1795 57.7562 74.1795C52.0687 74.1795 47.4375 78.8036 47.4375 84.5276C47.4375 86.7887 48.1688 88.9073 49.4078 90.598C45.6297 89.0702 42.9688 85.3628 42.9688 81.0239C42.9688 75.3202 47.5797 70.6758 53.2875 70.6758C56.7406 70.6758 59.7672 72.3462 61.6359 74.9332Z" fill="#102770"/>
<path d="M49.9157 90.9649L49.3673 90.7408C45.4064 89.1316 42.8267 85.3019 42.8267 81.0038C42.8267 75.2186 47.5188 70.4927 53.3079 70.4927C56.6392 70.4927 59.8079 72.1223 61.7782 74.8316L62.1235 75.3205L61.5751 75.0964C60.3563 74.6075 59.0767 74.3427 57.7563 74.3427C52.1704 74.3427 47.6204 78.9056 47.6204 84.5075C47.6204 86.6668 48.2907 88.7445 49.5501 90.476L49.9157 90.9649ZM53.3079 70.839C47.722 70.839 43.172 75.4019 43.172 81.0038C43.172 84.976 45.4267 88.5205 48.961 90.1908C47.8642 88.5001 47.2954 86.5445 47.2954 84.5075C47.2954 78.7223 51.9876 73.9964 57.7767 73.9964C58.9345 73.9964 60.072 74.1797 61.1688 74.5667C59.2188 72.2242 56.3345 70.839 53.3079 70.839Z" fill="#0F227A"/>
</g>
<path d="M53.3077 92.3703C47.0718 92.3703 41.9937 87.2777 41.9937 81.024C41.9937 74.7703 47.0718 69.6777 53.3077 69.6777C59.5436 69.6777 64.6218 74.7703 64.6218 81.024C64.6218 87.2777 59.5436 92.3703 53.3077 92.3703ZM53.3077 71.6944C48.189 71.6944 44.0046 75.8703 44.0046 81.024C44.0046 86.1574 48.1686 90.3537 53.3077 90.3537C58.4265 90.3537 62.6108 86.1777 62.6108 81.024C62.5905 75.8703 58.4265 71.6944 53.3077 71.6944Z" fill="#1C0606"/>
<path d="M87.7374 88.378C91.7984 88.378 95.0905 85.0765 95.0905 81.004C95.0905 76.9314 91.7984 73.6299 87.7374 73.6299C83.6764 73.6299 80.3843 76.9314 80.3843 81.004C80.3843 85.0765 83.6764 88.378 87.7374 88.378Z" fill="#5E6C7A"/>
<path d="M87.7373 88.5409C83.5936 88.5409 80.2217 85.1594 80.2217 81.0038C80.2217 76.8483 83.5936 73.4668 87.7373 73.4668C91.8811 73.4668 95.2529 76.8483 95.2529 81.0038C95.2529 85.1594 91.8811 88.5409 87.7373 88.5409ZM87.7373 73.8131C83.7764 73.8131 80.567 77.052 80.567 81.0038C80.567 84.9761 83.7967 88.1946 87.7373 88.1946C91.6779 88.1946 94.9076 84.9557 94.9076 81.0038C94.9279 77.052 91.6982 73.8131 87.7373 73.8131Z" fill="#0F227A"/>
<path d="M87.7374 88.378C91.7984 88.378 95.0905 85.0765 95.0905 81.004C95.0905 76.9314 91.7984 73.6299 87.7374 73.6299C83.6764 73.6299 80.3843 76.9314 80.3843 81.004C80.3843 85.0765 83.6764 88.378 87.7374 88.378Z" fill="#D0D4D8"/>
<path d="M87.7372 88.5204C83.6138 88.5204 80.2622 85.1593 80.2622 81.0241C80.2622 76.8889 83.6138 73.5278 87.7372 73.5278C91.8607 73.5278 95.2122 76.8889 95.2122 81.0241C95.2325 85.1389 91.8607 88.5204 87.7372 88.5204ZM87.7372 73.7723C83.756 73.7723 80.5263 77.0112 80.5263 81.0038C80.5263 84.9964 83.756 88.2352 87.7372 88.2352C91.7185 88.2352 94.9482 84.9964 94.9482 81.0038C94.9482 77.0112 91.7185 73.7723 87.7372 73.7723Z" fill="#0F227A"/>
<path d="M87.7374 89.3965C83.1265 89.3965 79.3687 85.628 79.3687 81.0039C79.3687 76.3798 83.1265 72.6113 87.7374 72.6113C92.3483 72.6113 96.1061 76.3798 96.1061 81.0039C96.1061 85.628 92.3483 89.3965 87.7374 89.3965ZM87.7374 74.6687C84.2437 74.6687 81.3999 77.5206 81.3999 81.0243C81.3999 84.528 84.2437 87.3798 87.7374 87.3798C91.2312 87.3798 94.0749 84.528 94.0749 81.0243C94.0749 77.5002 91.2312 74.6687 87.7374 74.6687Z" fill="#1C0606"/>
<path d="M87.7374 84.5074C89.6669 84.5074 91.2311 82.9387 91.2311 81.0037C91.2311 79.0687 89.6669 77.5 87.7374 77.5C85.8079 77.5 84.2437 79.0687 84.2437 81.0037C84.2437 82.9387 85.8079 84.5074 87.7374 84.5074Z" fill="#1C0606"/>
<path d="M37.1393 67.6207C41.2003 67.6207 44.4924 64.3192 44.4924 60.2466C44.4924 56.174 41.2003 52.8726 37.1393 52.8726C33.0782 52.8726 29.7861 56.174 29.7861 60.2466C29.7861 64.3192 33.0782 67.6207 37.1393 67.6207Z" fill="#5E6C7A"/>
<path d="M37.1392 67.7835C32.9954 67.7835 29.6235 64.4021 29.6235 60.2465C29.6235 56.091 32.9954 52.7095 37.1392 52.7095C41.2829 52.7095 44.6548 56.091 44.6548 60.2465C44.6548 64.4021 41.2829 67.7835 37.1392 67.7835ZM37.1392 53.0354C33.1782 53.0354 29.9689 56.2743 29.9689 60.2261C29.9689 64.1984 33.1985 67.4169 37.1392 67.4169C41.0798 67.4169 44.3095 64.178 44.3095 60.2261C44.3298 56.2743 41.1001 53.0354 37.1392 53.0354Z" fill="#0F227A"/>
<g opacity="0.3">
<path d="M51.4593 65.3594C51.0937 70.1261 47.3156 74.0372 42.5624 74.5465C39.5156 74.8724 36.7124 73.7928 34.6812 71.8983C34.0109 70.8594 34.6609 70.1261 35.6562 70.1465C36.3062 70.2483 36.9765 70.2891 37.6671 70.2483C42.7249 70.0039 46.8687 65.8687 47.1328 60.7965C47.1328 60.6131 47.1531 60.4298 47.1531 60.2669C47.1531 58.6576 49.2453 58.0465 50.0578 59.4113C50.1187 59.4928 50.1593 59.5743 50.1999 59.6557C51.1343 61.3057 51.6218 63.2817 51.4593 65.3594Z" fill="#0F227A"/>
</g>
<path d="M37.1388 67.6207C41.1998 67.6207 44.4919 64.3192 44.4919 60.2466C44.4919 56.174 41.1998 52.8726 37.1388 52.8726C33.0777 52.8726 29.7856 56.174 29.7856 60.2466C29.7856 64.3192 33.0777 67.6207 37.1388 67.6207Z" fill="#D0D4D8"/>
<path d="M37.1388 69.0463C32.3044 69.0463 28.3638 65.0944 28.3638 60.2463C28.3638 55.3981 32.3044 51.4463 37.1388 51.4463C41.9731 51.4463 45.9138 55.3981 45.9138 60.2463C45.9341 65.0944 41.9935 69.0463 37.1388 69.0463ZM37.1388 54.3185C33.8888 54.3185 31.2278 56.987 31.2278 60.2463C31.2278 63.5056 33.8888 66.1741 37.1388 66.1741C40.3888 66.1741 43.0497 63.5056 43.0497 60.2463C43.0497 56.9667 40.4091 54.3185 37.1388 54.3185Z" fill="#1C0606"/>
<path d="M37.1388 63.7501C39.0683 63.7501 40.6325 62.1814 40.6325 60.2464C40.6325 58.3113 39.0683 56.7427 37.1388 56.7427C35.2092 56.7427 33.645 58.3113 33.645 60.2464C33.645 62.1814 35.2092 63.7501 37.1388 63.7501Z" fill="#1C0606"/>
<path d="M103.744 57.0891C105.987 57.0891 107.806 55.265 107.806 53.015C107.806 50.7649 105.987 48.9409 103.744 48.9409C101.5 48.9409 99.6812 50.7649 99.6812 53.015C99.6812 55.265 101.5 57.0891 103.744 57.0891Z" fill="#E5C62C"/>
<path d="M60.4375 79.1907V82.837C60.4375 83.2852 60.0719 83.6519 59.625 83.6519H56.1719V87.1148C56.1719 87.563 55.8063 87.9296 55.3594 87.9296H51.7031C51.2562 87.9296 50.8906 87.563 50.8906 87.1148V83.6519H47.4375C46.9906 83.6519 46.625 83.2852 46.625 82.837V79.1907C46.625 78.7426 46.9906 78.3759 47.4375 78.3759H50.8906V74.913C50.8906 74.4648 51.2562 74.0981 51.7031 74.0981H55.3391C55.7859 74.0981 56.1516 74.4648 56.1516 74.913V78.3759H59.6047C60.0719 78.3759 60.4375 78.7426 60.4375 79.1907Z" fill="#1C0606"/>
<path d="M112.092 65.4611C114.336 65.4611 116.155 63.6371 116.155 61.3871C116.155 59.137 114.336 57.313 112.092 57.313C109.849 57.313 108.03 59.137 108.03 61.3871C108.03 63.6371 109.849 65.4611 112.092 65.4611Z" fill="#EA2C2A"/>
<path d="M95.375 65.4611C97.6187 65.4611 99.4375 63.6371 99.4375 61.3871C99.4375 59.137 97.6187 57.313 95.375 57.313C93.1313 57.313 91.3125 59.137 91.3125 61.3871C91.3125 63.6371 93.1313 65.4611 95.375 65.4611Z" fill="#EF6925"/>
<g opacity="0.3">
<path d="M110.244 55.887C110.244 58.1481 108.416 59.961 106.181 59.961C104.414 59.961 102.891 58.8203 102.342 57.2314C102.931 57.5573 103.581 57.7203 104.292 57.7203C106.547 57.7203 108.355 55.887 108.355 53.6462C108.355 53.1777 108.274 52.7295 108.131 52.3018C109.391 52.9944 110.244 54.3388 110.244 55.887Z" fill="#0F227A"/>
<path d="M110.244 72.6316C110.244 74.8927 108.416 76.7056 106.181 76.7056C104.414 76.7056 102.891 75.5649 102.342 73.976C102.931 74.3019 103.581 74.4649 104.292 74.4649C106.547 74.4649 108.355 72.6316 108.355 70.3908C108.355 69.9223 108.274 69.4538 108.131 69.0464C109.391 69.739 110.244 71.0834 110.244 72.6316Z" fill="#0F227A"/>
<path d="M118.592 64.259C118.592 66.4997 116.764 68.3331 114.529 68.3331C112.762 68.3331 111.239 67.1923 110.69 65.6034C111.259 65.9294 111.929 66.0923 112.64 66.0923C114.895 66.0923 116.703 64.259 116.703 62.0183C116.703 61.5497 116.622 61.0812 116.479 60.6738C117.739 61.3664 118.592 62.7109 118.592 64.259Z" fill="#0F227A"/>
<path d="M101.895 64.259C101.895 66.4997 100.067 68.3331 97.8327 68.3331C96.0655 68.3331 94.5421 67.1923 93.9937 65.6034C94.5624 65.9294 95.2327 66.0923 95.9436 66.0923C98.1983 66.0923 100.006 64.259 100.006 62.0183C100.006 61.5497 99.9249 61.0812 99.7827 60.6738C101.022 61.3664 101.895 62.7109 101.895 64.259Z" fill="#0F227A"/>
</g>
<path d="M103.744 73.8537C105.987 73.8537 107.806 72.0297 107.806 69.7796C107.806 67.5296 105.987 65.7056 103.744 65.7056C101.5 65.7056 99.6812 67.5296 99.6812 69.7796C99.6812 72.0297 101.5 73.8537 103.744 73.8537Z" fill="#00CC05"/>
<g opacity="0.55">
<path d="M106.689 50.2039C106.344 50.102 105.978 50.0613 105.612 50.0613C103.358 50.0613 101.55 51.8946 101.55 54.1354C101.55 55.2354 101.976 56.2131 102.667 56.9465C100.941 56.478 99.6812 54.8891 99.6812 53.015C99.6812 50.7539 101.509 48.9409 103.744 48.9409C104.901 48.9409 105.937 49.4298 106.689 50.2039Z" fill="white"/>
</g>
<g opacity="0.55">
<path d="M115.038 58.5759C114.692 58.4741 114.327 58.4334 113.961 58.4334C111.706 58.4334 109.899 60.2667 109.899 62.5074C109.899 63.6074 110.325 64.5852 111.016 65.3185C109.289 64.85 108.03 63.2611 108.03 61.3871C108.03 59.1463 109.858 57.313 112.092 57.313C113.25 57.313 114.306 57.8019 115.038 58.5759Z" fill="white"/>
</g>
<g opacity="0.55">
<path d="M98.3203 58.5759C97.975 58.4741 97.6094 58.4334 97.2438 58.4334C94.9891 58.4334 93.1813 60.2667 93.1813 62.5074C93.1813 63.6074 93.6078 64.5852 94.2984 65.3185C92.5719 64.85 91.3125 63.2611 91.3125 61.3871C91.3125 59.1463 93.1406 57.313 95.375 57.313C96.5328 57.313 97.5891 57.8019 98.3203 58.5759Z" fill="white"/>
</g>
<g opacity="0.55">
<path d="M106.689 66.9685C106.344 66.8667 105.978 66.8259 105.612 66.8259C103.358 66.8259 101.55 68.6593 101.55 70.9C101.55 72 101.976 72.9778 102.667 73.7111C100.941 73.2426 99.6812 71.6537 99.6812 69.7796C99.6812 67.5185 101.509 65.7056 103.744 65.7056C104.901 65.7056 105.937 66.1945 106.689 66.9685Z" fill="white"/>
</g>
<path d="M103.744 75.0558C100.839 75.0558 98.4829 72.6928 98.4829 69.7798C98.4829 66.8669 100.839 64.5039 103.744 64.5039C106.649 64.5039 109.005 66.8669 109.005 69.7798C109.005 72.6928 106.649 75.0558 103.744 75.0558ZM103.744 66.9076C102.159 66.9076 100.88 68.1909 100.88 69.7798C100.88 71.3687 102.159 72.6521 103.744 72.6521C105.328 72.6521 106.608 71.3687 106.608 69.7798C106.608 68.1909 105.328 66.9076 103.744 66.9076Z" fill="#1C0606"/>
<path d="M103.744 58.2911C100.839 58.2911 98.4829 55.9281 98.4829 53.0152C98.4829 50.1022 100.839 47.7393 103.744 47.7393C106.649 47.7393 109.005 50.1022 109.005 53.0152C109.005 55.9281 106.649 58.2911 103.744 58.2911ZM103.744 50.143C102.159 50.143 100.88 51.4263 100.88 53.0152C100.88 54.6041 102.159 55.8874 103.744 55.8874C105.328 55.8874 106.608 54.6041 106.608 53.0152C106.608 51.4263 105.328 50.143 103.744 50.143Z" fill="#1C0606"/>
<path d="M112.092 66.6837C109.187 66.6837 106.831 64.3207 106.831 61.4078C106.831 58.4948 109.187 56.1318 112.092 56.1318C114.997 56.1318 117.353 58.4948 117.353 61.4078C117.353 64.3004 114.997 66.6837 112.092 66.6837ZM112.092 58.5152C110.508 58.5152 109.228 59.7985 109.228 61.3874C109.228 62.9763 110.508 64.2596 112.092 64.2596C113.676 64.2596 114.956 62.9763 114.956 61.3874C114.956 59.7985 113.676 58.5152 112.092 58.5152Z" fill="#1C0606"/>
<path d="M95.3747 66.6837C92.47 66.6837 90.1138 64.3207 90.1138 61.4078C90.1138 58.4948 92.47 56.1318 95.3747 56.1318C98.2794 56.1318 100.636 58.4948 100.636 61.4078C100.656 64.3004 98.2794 66.6837 95.3747 66.6837ZM95.3747 58.5152C93.7903 58.5152 92.5107 59.7985 92.5107 61.3874C92.5107 62.9763 93.7903 64.2596 95.3747 64.2596C96.9591 64.2596 98.2388 62.9763 98.2388 61.3874C98.2591 59.7985 96.9591 58.5152 95.3747 58.5152Z" fill="#1C0606"/>
<path d="M66.5439 64.7132C66.8842 63.268 65.9918 61.8197 64.5507 61.4785C63.1096 61.1372 61.6654 62.0322 61.3251 63.4774C60.9848 64.9226 61.8773 66.3709 63.3184 66.7121C64.7595 67.0534 66.2036 66.1585 66.5439 64.7132Z" fill="#1C0606"/>
<path d="M76.5045 66.785C77.9853 66.785 79.1857 65.5812 79.1857 64.0961C79.1857 62.6111 77.9853 61.4072 76.5045 61.4072C75.0237 61.4072 73.8232 62.6111 73.8232 64.0961C73.8232 65.5812 75.0237 66.785 76.5045 66.785Z" fill="#1C0606"/>
<g opacity="0.3">
<path d="M68.3188 65.6853C68.3188 67.1724 67.1204 68.3742 65.6376 68.3742C64.5001 68.3742 63.5251 67.6612 63.1392 66.6427C63.3829 66.7242 63.647 66.7649 63.9314 66.7649C65.4142 66.7649 66.6126 65.5631 66.6126 64.076C66.6126 63.7298 66.5517 63.4038 66.4298 63.1187C67.5267 63.4649 68.3188 64.4835 68.3188 65.6853Z" fill="#0F227A"/>
<path d="M80.9126 65.6853C80.9126 67.1724 79.7142 68.3742 78.2313 68.3742C77.0938 68.3742 76.1188 67.6612 75.7329 66.6427C75.9767 66.7242 76.2407 66.7649 76.5251 66.7649C78.0079 66.7649 79.2064 65.5631 79.2064 64.076C79.2064 63.7298 79.1454 63.4038 79.0235 63.1187C80.1204 63.4649 80.9126 64.4835 80.9126 65.6853Z" fill="#0F227A"/>
</g>
</svg>
