<svg width="180" height="180" viewBox="0 0 180 180" fill="none" xmlns="http://www.w3.org/2000/svg">
<path d="M90.3339 179.316C139.804 179.316 179.907 139.212 179.907 89.7423C179.907 40.2723 139.804 0.168945 90.3339 0.168945C40.8639 0.168945 0.760498 40.2723 0.760498 89.7423C0.760498 139.212 40.8639 179.316 90.3339 179.316Z" fill="#EF6925"/>
<path d="M139.7 115.233C139.7 115.233 135.144 125.77 135.818 136.847C135.818 136.847 138.129 139.352 144.872 139.352C144.872 139.352 144.486 134.536 145.74 136.173C146.991 137.811 146.029 139.449 146.896 139.352C147.763 139.255 150.171 138.195 149.979 134.728C149.787 131.26 148.492 120.812 143.524 113.521L139.7 115.233Z" fill="#FFD400" stroke="black" stroke-width="2" stroke-miterlimit="10"/>
<path d="M149.972 134.887C149.779 131.419 148.484 120.972 143.516 113.681L139.693 115.392C139.693 115.392 141.169 117.933 143.547 119.282C145.924 120.63 148.814 130.36 148.236 132.479C147.967 133.463 147.222 132.805 146.414 132.206C146.227 132.068 144.819 130.449 143.933 126.599C143.933 126.599 144.181 132.263 143.683 133.953C142.445 136.987 139.715 137.596 136.393 136.809C136.393 136.809 138.122 139.512 144.863 139.512C144.863 139.512 144.146 134.007 145.736 136.175C146.955 137.837 146.081 139.176 146.948 139.079C147.818 138.98 150.164 138.355 149.972 134.887Z" fill="#C49E00"/>
<path d="M139.7 115.233C139.7 115.233 135.144 125.77 135.818 136.847C135.818 136.847 138.129 139.352 144.872 139.352C144.872 139.352 144.486 134.536 145.74 136.173C146.991 137.811 146.029 139.449 146.896 139.352C147.763 139.255 150.171 138.195 149.979 134.728C149.787 131.26 148.492 120.812 143.524 113.521L139.7 115.233Z" stroke="black" stroke-width="2" stroke-miterlimit="10"/>
<path d="M4.81348 85.6446L86.8589 53.9414L175.854 84.0835V85.3916L84.0345 102.419L4.81348 86.9541V85.6446Z" fill="#454545" stroke="black" stroke-width="5" stroke-miterlimit="10"/>
<path d="M4.81348 86.9541L86.8589 55.251L175.854 85.3916L84.0345 103.729L4.81348 86.9541Z" fill="#0B0B0D"/>
<path d="M39.4395 116.917L44.9466 90.9231C45.7098 87.3211 48.5299 84.5024 52.1378 83.7667C59.3144 82.3053 72.7904 80.2427 91.6782 80.2427C108.25 80.2427 118.384 81.4973 124.055 82.5829C127.684 83.2781 130.544 86.0809 131.337 89.6902L137.324 116.915C137.324 116.915 119.849 110.096 91.3053 110.096C60.4593 110.096 39.4395 116.917 39.4395 116.917Z" fill="#454545" stroke="black" stroke-width="5" stroke-miterlimit="10"/>
<path d="M130.617 90.1513L130.762 89.8622C130.328 86.3931 127.619 83.8954 124.113 83.2131C118.482 82.1175 108.663 80.6113 91.8904 80.6113C72.8466 80.6113 59.3041 82.7087 52.1737 84.1715C48.6771 84.8884 45.938 87.6102 45.1979 91.1024L42.4443 104.097C55.452 97.5521 86.5394 85.085 130.617 90.1513Z" fill="#333333"/>
<path d="M139.363 112.284H142.078C140.67 106.388 140.699 89.0413 140.713 81.0002C140.729 71.6987 140.682 70.4368 140.29 69.743C139.242 67.8885 135.708 67.9477 133.255 69.6548L135.998 70.5842C136.731 70.8329 137.61 70.4209 137.875 71.0656C138.019 72.2422 138.012 76.687 138.005 80.9959C137.973 98.0667 138.317 107.458 139.363 112.284Z" fill="#FFD400" stroke="black" stroke-width="2" stroke-miterlimit="10"/>
<path d="M137.989 105.534C137.989 105.534 137.647 106.903 137.989 109.984C138.332 113.065 138.987 115.136 139.701 115.233C140.415 115.33 143.923 114.548 143.524 113.521C143.125 112.495 142.996 106.52 142.1 105.414C141.204 104.308 137.989 105.534 137.989 105.534Z" fill="#FFD400" stroke="black" stroke-width="2" stroke-miterlimit="10"/>
<path d="M142.098 105.414C141.202 104.308 137.987 105.534 137.987 105.534C137.987 105.534 137.896 105.905 137.854 106.687C138.227 106.934 138.686 107.167 139.242 107.302C140.897 107.701 141.809 108.728 141.981 111.981C142.067 113.612 141.764 114.497 141.442 114.973C142.577 114.671 143.764 114.141 143.522 113.52C143.123 112.494 142.996 106.52 142.098 105.414Z" fill="#EABD00"/>
<path d="M137.989 105.534C137.989 105.534 137.647 106.903 137.989 109.984C138.332 113.065 138.987 115.136 139.701 115.233C140.415 115.33 143.923 114.548 143.524 113.521C143.125 112.495 142.996 106.52 142.1 105.414C141.204 104.308 137.989 105.534 137.989 105.534Z" stroke="black" stroke-width="2" stroke-miterlimit="10"/>
<path d="M139.7 106.446C141.528 106.446 143.009 104.965 143.009 103.137C143.009 101.31 141.528 99.8286 139.7 99.8286C137.873 99.8286 136.392 101.31 136.392 103.137C136.392 104.965 137.873 106.446 139.7 106.446Z" fill="#E0B500" stroke="black" stroke-width="2" stroke-miterlimit="10"/>
<path d="M138.554 106.229C138.913 106.362 139.296 106.444 139.699 106.444C141.526 106.444 143.008 104.963 143.008 103.136C143.008 102.105 142.528 101.197 141.789 100.59C142.133 102.146 142.13 104.859 138.554 106.229Z" fill="#C49E00"/>
<path d="M137.132 116.843C135.175 116.117 118.128 110.096 91.3066 110.096C60.4591 110.096 38.9753 117.251 38.9753 117.251C38.9753 117.251 60.4591 123.736 91.3066 123.736C118.128 123.736 135.743 118.121 137.7 117.395L137.324 116.917L137.132 116.843Z" fill="#0B0B0D"/>
<path d="M139.7 106.446C141.528 106.446 143.009 104.965 143.009 103.137C143.009 101.31 141.528 99.8286 139.7 99.8286C137.873 99.8286 136.392 101.31 136.392 103.137C136.392 104.965 137.873 106.446 139.7 106.446Z" stroke="black" stroke-width="2" stroke-miterlimit="10"/>
</svg>
