<svg width="187" height="91" viewBox="0 0 187 91" fill="none" xmlns="http://www.w3.org/2000/svg">
<path d="M179.387 34.2825L152.548 39.6605L39.1111 46.5608L6.59863 34.1531L96.0496 4.81934L179.387 34.2825Z" fill="#143753" stroke="black" stroke-width="4" stroke-miterlimit="10"/>
<path d="M180.059 29.8789L97.3955 2.72388C97.346 2.69849 97.2928 2.68519 97.242 2.66342C97.1646 2.62957 97.0884 2.59451 97.0062 2.57033C96.9361 2.54857 96.8647 2.53526 96.7934 2.52075C96.716 2.50503 96.6399 2.4869 96.5613 2.47844C96.4839 2.46997 96.4077 2.47118 96.3303 2.47118C96.2566 2.47118 96.1828 2.46876 96.1091 2.47481C96.0208 2.48327 95.9362 2.50141 95.8503 2.51834C95.7995 2.52922 95.7488 2.53043 95.698 2.54494L5.97981 29.5693C4.73686 29.9115 4.00657 31.1956 4.34995 32.4385C4.63409 33.4735 5.57476 34.153 6.59886 34.153C6.8032 34.153 7.01237 34.1264 7.21912 34.0684L96.0535 7.28699L177.904 34.0188C178.249 34.1977 178.616 34.2824 178.98 34.2824C179.823 34.2824 180.635 33.8253 181.053 33.0261C181.646 31.8835 181.201 30.4749 180.059 29.8789Z" fill="#F8BD20" stroke="black" stroke-width="4" stroke-miterlimit="10"/>
<path d="M82.7208 12.052V7.17334L79.2192 8.42112V13.3034L82.7208 12.052Z" fill="#F5AB00" stroke="black" stroke-width="4" stroke-miterlimit="10"/>
<path d="M152.548 82.6231C152.548 82.6231 118.596 86.2879 96.0486 86.2879C69.5212 86.2879 39.1113 82.6231 39.1113 82.6231V34.54C39.1113 34.54 64.5603 25.1792 96.0486 25.1792C125.821 25.1792 152.548 34.54 152.548 34.54V82.6231Z" fill="#21557F" stroke="black" stroke-width="4" stroke-miterlimit="10"/>
<path d="M65.75 85.0835C49.2931 83.9989 39.5708 79.3681 39.5708 79.3681V34.7527C39.5708 34.7527 48.8808 31.2463 66.8963 27.8608L65.75 85.0835Z" fill="#143753"/>
<path d="M96.1514 87.1053C59.3684 87.1053 43.504 84.5118 39.1113 83.6122V79.4759C41.3143 79.9741 56.5766 83.0645 96.1514 83.0645C116.786 83.0645 147.294 79.9825 152.548 79.436V83.4974C146.205 84.1527 116.48 87.1053 96.1514 87.1053Z" fill="#F5AB00" stroke="black" stroke-width="4" stroke-miterlimit="10"/>
<path d="M96.0498 88.2756C53.1827 88.2756 39.1778 84.6967 38.6035 84.5443C37.5419 84.2626 36.9095 83.1744 37.1901 82.1128C37.4706 81.0512 38.56 80.4201 39.6215 80.6994C39.757 80.7345 53.884 84.2989 96.051 84.2989C118.231 84.2989 151.999 80.6813 152.337 80.645C153.424 80.5289 154.409 81.316 154.526 82.4079C154.645 83.4997 153.854 84.4802 152.763 84.5975C152.421 84.6362 118.443 88.2756 96.0498 88.2756Z" fill="#F8BD20" stroke="black" stroke-width="4" stroke-miterlimit="10"/>
<path d="M82.1562 30.3298C81.808 29.3069 81.4127 28.1486 81.4127 27.5235C81.4127 27.5211 81.4115 27.5187 81.4115 27.5162V7.82498C81.4115 6.85892 80.6279 6.07422 79.6607 6.07422C78.6946 6.07422 77.9099 6.85771 77.9099 7.82498V27.5235C77.9099 27.5513 77.9172 27.5779 77.9184 27.6045C77.8966 28.3215 77.5883 29.8449 77.3114 31.2003C76.9777 32.8314 76.6646 34.3706 76.6646 35.229C76.6646 35.7127 77.0563 36.1044 77.5399 36.1044C78.0236 36.1044 78.4153 35.7127 78.4153 35.229C78.4153 34.5894 78.7007 33.1494 78.9727 31.8133C78.9727 31.823 78.9739 31.8327 78.9739 31.8424C79.0646 33.552 79.1589 35.3197 79.1589 36.0669C79.1589 36.5506 79.5507 36.9423 80.0343 36.9423C80.5179 36.9423 80.9097 36.5506 80.9097 36.0669C80.9097 35.2738 80.8178 33.5617 80.721 31.7493C80.7174 31.6695 80.7126 31.5909 80.709 31.5111C80.9895 32.3538 81.2458 33.199 81.2458 33.7007C81.2458 34.1844 81.6375 34.5761 82.1212 34.5761C82.6048 34.5761 82.9966 34.1844 82.9966 33.7007C82.9941 32.7855 82.5867 31.5933 82.1562 30.3298Z" fill="#F8BD20" stroke="black" stroke-width="4" stroke-miterlimit="10"/>
<path d="M95.83 63.9425C95.5555 63.9425 95.333 63.7201 95.333 63.4456V48.3392C95.333 48.0648 95.5555 47.8423 95.83 47.8423C96.1044 47.8423 96.3269 48.0648 96.3269 48.3392V63.4456C96.3269 63.7201 96.1056 63.9425 95.83 63.9425Z" fill="#143753"/>
</svg>
