<svg width="85" height="94" viewBox="0 0 85 94" fill="none" xmlns="http://www.w3.org/2000/svg">
<path d="M42.6055 72.5332C22.9627 72.5332 7.03907 56.6096 7.03907 36.9668C7.03907 17.324 22.9627 1.40039 42.6055 1.40039C62.2483 1.40039 78.1719 17.324 78.1719 36.9668C78.1719 56.6096 62.2483 72.5332 42.6055 72.5332Z" fill="#89C477" stroke="#89C477" stroke-miterlimit="10"/>
<path d="M15.5689 78.1004C20.9185 80.5142 25.8022 81.2579 26.4769 79.7622C27.1516 78.2666 23.3623 75.097 18.0134 72.6832C12.6638 70.2694 7.78008 69.5257 7.1054 71.0214C6.43008 72.5171 10.2194 75.6867 15.5689 78.1004Z" fill="#2E2E2E" stroke="#1E0606" stroke-width="5" stroke-miterlimit="10"/>
<path d="M17.7875 91.2535L20.3368 85.189L22.3774 80.3295L24.0973 76.2297L27.8765 67.2333C29.8666 62.4997 27.9831 57.2262 23.7766 55.751C23.0419 55.4935 22.2886 55.374 21.5417 55.374C21.4727 55.374 21.4037 55.374 21.3347 55.3804C18.0642 55.4743 14.8869 57.8792 13.5938 61.5771L10.5239 70.3416L9.14895 74.2715L3.20972 91.2535" fill="#8C4844"/>
<path d="M17.7875 91.2535L20.3368 85.189L22.3774 80.3295L24.0973 76.2297L27.8765 67.2333C29.8666 62.4997 27.9831 57.2262 23.7766 55.751C23.0419 55.4935 22.2886 55.374 21.5417 55.374C21.4727 55.374 21.4037 55.374 21.3347 55.3804C18.0642 55.4743 14.8869 57.8792 13.5938 61.5771L10.5239 70.3416L9.14895 74.2715L3.20972 91.2535" stroke="#1E0606" stroke-width="5" stroke-miterlimit="10" stroke-linecap="round" stroke-linejoin="round"/>
<path d="M7.22092 70.8393C8.20994 69.5908 12.8957 70.3773 18.0107 72.6793C23.3609 75.095 27.1553 78.2646 26.4742 79.7647C26.4583 79.7973 26.4417 79.8216 26.4174 79.8535L26.4742 79.8778L32.3841 66.0232C34.7027 60.5836 32.1975 54.3818 26.9285 52.5417C25.9312 52.1929 24.9179 52.0229 23.9046 52.0229C20.2973 52.0229 16.8358 54.1633 15.0603 57.6332L7.22092 70.8393Z" fill="#2E2E2E" stroke="#1E0606" stroke-width="5" stroke-miterlimit="10"/>
<path d="M69.6417 78.1004C64.2921 80.5142 59.4084 81.2579 58.7337 79.7622C58.059 78.2666 61.8483 75.097 67.1972 72.6832C72.5467 70.2694 77.4305 69.5257 78.1052 71.0214C78.7805 72.5171 74.9912 75.6867 69.6417 78.1004Z" fill="#2E2E2E" stroke="#1E0606" stroke-width="5" stroke-miterlimit="10"/>
<path d="M82 91.2533L76.0608 74.2777L74.6858 70.3414L71.6159 61.577C70.2972 57.8036 67.0139 55.3745 63.6744 55.3745H63.6303C62.8955 55.3809 62.1615 55.5004 61.4395 55.7515C57.233 57.2267 55.3437 62.5002 57.3339 67.2338L61.113 76.2302V76.2366L62.8329 80.3294L64.6659 84.6924L67.4222 91.2533" fill="#8C4844"/>
<path d="M82 91.2533L76.0608 74.2777L74.6858 70.3414L71.6159 61.577C70.2972 57.8036 67.0139 55.3745 63.6744 55.3745H63.6303C62.8955 55.3809 62.1615 55.5004 61.4395 55.7515C57.233 57.2267 55.3437 62.5002 57.3339 67.2338L61.113 76.2302V76.2366L62.8329 80.3294L64.6659 84.6924L67.4222 91.2533" stroke="#1E0606" stroke-width="5" stroke-miterlimit="10" stroke-linecap="round" stroke-linejoin="round"/>
<path d="M77.9897 70.8393C77.0007 69.5908 72.315 70.3773 67.2 72.6793C61.8492 75.095 58.0554 78.2646 58.7364 79.7647C58.7524 79.7973 58.769 79.8216 58.7933 79.8535L58.7364 79.8778L52.8266 66.0232C50.508 60.5836 53.0132 54.3818 58.2822 52.5417C59.2795 52.1929 60.2928 52.0229 61.3061 52.0229C64.9133 52.0229 68.3756 54.1633 70.1504 57.6332L77.9897 70.8393Z" fill="#2E2E2E" stroke="#1E0606" stroke-width="5" stroke-miterlimit="10"/>
<path d="M33.1427 24.3943C34.5936 26.725 34.4537 29.4864 32.8296 30.5616C31.2055 31.6369 28.7119 30.6191 27.2603 28.2878C25.8087 25.9571 25.9492 23.1957 27.5733 22.1205C29.1974 21.0452 31.6911 22.063 33.1427 24.3943Z" fill="#8C4844" stroke="#1E0606" stroke-width="5" stroke-miterlimit="10" stroke-linecap="round" stroke-linejoin="round"/>
<path d="M28.7954 23.2393C28.092 23.514 27.5572 24.1823 27.4435 24.9285C27.3298 25.6754 27.6403 26.4721 28.23 26.9443" stroke="#1E0606" stroke-width="5" stroke-miterlimit="10" stroke-linecap="round" stroke-linejoin="round"/>
<path d="M52.7346 24.3943C51.2837 26.725 51.4236 29.4864 53.0477 30.5616C54.6718 31.6369 57.1654 30.6191 58.617 28.2878C60.0686 25.9571 59.928 23.1957 58.3039 22.1205C56.6792 21.0452 54.1862 22.063 52.7346 24.3943Z" fill="#8C4844" stroke="#1E0606" stroke-width="5" stroke-miterlimit="10" stroke-linecap="round" stroke-linejoin="round"/>
<path d="M57.0814 23.2393C57.7848 23.514 58.3196 24.1823 58.4333 24.9285C58.547 25.6754 58.2365 26.4721 57.6468 26.9443" stroke="#1E0606" stroke-width="5" stroke-miterlimit="10" stroke-linecap="round" stroke-linejoin="round"/>
<path d="M35.737 50.5164C35.606 54.4578 38.7603 57.7174 42.7016 57.7174C46.5644 57.7174 49.6733 54.5824 49.6733 50.7528C49.6733 50.6742 49.6733 50.5956 49.6669 50.5164L48.8932 40.1278L48.6965 37.4981L48.3093 32.3364H37.101L36.4845 40.4952L36.0449 46.4306L35.737 50.5164Z" fill="#8C4844" stroke="#1E0606" stroke-width="5" stroke-miterlimit="10" stroke-linecap="round" stroke-linejoin="round"/>
<path d="M36.0449 46.4306C39.7243 46.6932 43.7769 44.8634 46.558 41.3085C47.4959 40.1151 48.2109 38.8232 48.6958 37.4981L48.3086 32.3364H37.1004L36.4838 40.4952L36.0449 46.4306Z" fill="#2E2E2E"/>
<path d="M30.6637 30.8043C31.0968 31.9281 31.7306 33.096 32.4903 34.232C33.9534 36.4106 35.8867 38.457 37.8206 39.7566C39.9424 41.182 42.7236 41.6464 45.1412 40.8178C47.0432 40.1712 48.613 38.8091 50.0128 37.3709C51.7647 35.5756 53.3651 33.5663 54.2628 31.2183C54.9534 29.3974 55.255 27.3695 55.3361 25.2982C55.3738 24.2121 55.3547 23.1196 55.3048 22.027C55.2167 20.2317 55.0473 18.4549 54.8902 16.8098C54.5324 12.9176 52.1717 9.21961 48.8066 7.23582C45.5041 5.29611 41.2918 5.00733 37.7574 6.48256C34.223 7.95778 31.4604 11.16 30.525 14.8701C29.897 17.3624 30.0605 19.9429 30.0541 22.4794C30.0541 22.6366 30.0541 22.7867 30.0478 22.9439C30.035 23.7035 29.9973 24.4632 29.9851 25.2292C29.9289 27.1248 29.9666 29.0147 30.6637 30.8043Z" fill="#8C4844" stroke="#1E0606" stroke-width="5" stroke-miterlimit="10" stroke-linecap="round" stroke-linejoin="round"/>
<path d="M20.1293 91.2534H64.8984L64.6659 84.6925L64.503 79.9589L64.296 74.1455L63.6302 55.3739L63.5299 52.58L62.086 52.0593L53.6921 49.0271L52.0725 48.4431L51.2687 48.1479L49.1719 47.3947L48.5374 47.1621H36.4213L36.1702 47.256L33.8158 48.1039L33.0185 48.3926L31.3989 48.9766L22.7597 52.097L21.4288 52.58L21.3349 55.3803L20.9771 65.9522L20.7069 74.0324L20.5126 79.8771V79.9084L20.3363 85.1883L20.1293 91.2534Z" fill="#2E2E2E" stroke="#1E0606" stroke-width="5" stroke-miterlimit="10"/>
</svg>
