<svg width="115" height="115" viewBox="0 0 115 115" fill="none" xmlns="http://www.w3.org/2000/svg">
<path d="M101.337 91.5519C102.237 88.8519 99.6372 87.1519 98.0372 85.6519C92.9372 80.6519 96.3372 78.5519 94.8372 80.9519C98.8372 71.9519 98.9372 68.4519 100.637 66.6519C105.537 61.2519 117.137 71.4519 112.637 50.5519C111.637 45.8519 109.037 47.8519 104.237 47.7519C97.4372 47.5519 97.9372 42.4519 94.8372 35.5519C91.3372 27.8519 102.137 26.4519 99.3372 20.6519C98.4372 18.7519 96.6372 17.5519 92.2372 13.9519C84.3372 7.45187 85.4372 22.2519 74.7372 17.4519C71.7372 16.0519 66.0372 14.9519 63.9372 12.1519C61.9372 9.45187 64.0372 3.15187 62.1372 1.75187C60.9372 0.851866 48.5372 0.651866 47.3372 1.75187C44.6372 4.65187 49.5372 11.9519 43.7372 14.5519C31.0372 20.2519 31.0372 20.4519 29.6372 20.2519C26.5372 19.6519 23.5372 12.8519 20.2372 14.0519C19.3372 14.3519 19.2372 14.5519 12.8372 20.7519C6.3372 27.0519 16.6372 29.1519 17.6372 34.4519C18.0372 36.8519 16.2372 39.4519 13.2372 47.2519C11.1372 52.6519 2.3372 50.3519 1.2372 52.3519C0.737202 53.3519 1.1372 61.2519 1.4372 63.5519C2.0372 67.9519 5.9372 66.1519 9.5372 67.1519C15.0372 68.6519 14.1372 73.1519 16.5372 77.0519C18.6372 80.3519 19.3372 78.9519 24.8372 73.3519C27.2372 70.9519 28.4372 71.5519 26.8372 66.3519C18.4372 40.1519 46.5372 13.1519 73.7372 31.1519C94.1372 44.5519 90.2372 69.1519 78.9372 79.7519C62.1372 95.4519 49.8372 86.4519 46.9372 87.0519C46.1372 87.2519 37.4372 96.3519 37.6372 97.4519C38.1372 100.852 47.9372 98.2519 49.7372 105.252C50.8372 109.652 47.0372 113.452 56.7372 113.652C59.3372 113.752 65.3372 115.252 65.7372 111.352C67.6372 95.8519 69.8372 101.852 81.0372 94.7519C84.7372 92.4519 88.1372 100.452 91.5372 100.652C94.0372 100.852 100.437 94.1519 101.337 91.5519Z" fill="#646C7B" stroke="#00031D" stroke-miterlimit="10" stroke-linecap="round" stroke-linejoin="round"/>
<path d="M48.5373 79.3518C49.8373 78.9518 51.4373 79.6518 52.8373 79.7518C59.4373 80.3518 66.3373 78.1518 71.2373 73.5518C77.2373 67.9518 79.4373 58.9518 77.5373 51.0518C73.2373 55.2518 69.2373 59.6518 65.4373 64.2518C61.1373 63.7518 56.7373 63.1518 52.4373 62.6518C51.0373 57.9518 49.6373 53.1518 48.1373 48.4518C52.5373 44.1518 57.2373 40.1518 61.5373 35.7518C53.4373 34.3518 44.3373 36.8518 38.7373 42.8518C33.1373 48.8518 31.5373 58.4518 35.6373 65.5518C37.3373 68.3518 30.1373 73.8518 28.5373 75.5518C25.1373 79.0518 21.7373 82.5518 18.3373 86.1518C16.0373 88.6518 12.8373 90.9518 15.6373 94.4518C17.4373 96.7518 19.2373 98.9518 21.3373 100.952C21.9373 101.552 22.7373 102.152 23.5373 102.352C25.4373 102.752 27.3373 100.152 28.5373 99.0518C30.3373 97.2518 32.1373 95.3518 33.9373 93.5518C37.4373 89.9518 40.8373 86.2518 44.5373 82.8518C45.6373 81.7518 47.1373 79.8518 48.5373 79.3518Z" fill="#FFAB00" stroke="#00031D" stroke-miterlimit="10" stroke-linecap="round" stroke-linejoin="round"/>
<path d="M35.9375 65.8518C37.5375 68.4518 39.4375 70.1518 41.9375 71.7518" stroke="#00031D" stroke-miterlimit="10" stroke-linecap="round" stroke-linejoin="round"/>
</svg>
