<svg width="18" height="18" viewBox="0 0 18 18" fill="none" xmlns="http://www.w3.org/2000/svg">
<path d="M8.01 0.04952C3.51 0.53952 0 4.35952 0 8.99952C0 11.3865 0.948211 13.6757 2.63604 15.3635C4.32387 17.0513 6.61305 17.9995 9 17.9995C13.63 17.9995 17.45 14.4995 17.95 9.99952C18.04 9.20952 17.17 8.57952 16.41 9.04952C15.5937 9.57058 14.6523 9.86265 13.6844 9.89516C12.7165 9.92768 11.7576 9.69944 10.9082 9.23433C10.0587 8.76923 9.34988 8.08435 8.85586 7.25138C8.36183 6.41841 8.10077 5.46797 8.1 4.49952C8.1 3.43952 8.41 2.43952 8.94 1.60952C9.39 0.93952 8.9 -0.02048 8.01 0.04952Z" fill="#606DB6"/>
</svg>
