<svg width="27" height="28" viewBox="0 0 27 28" fill="none" xmlns="http://www.w3.org/2000/svg">
<path d="M10.6143 0.711799C10.7637 0.762466 10.9103 0.823799 11.053 0.893132L12.7637 1.7358C12.9927 1.8485 13.2445 1.90711 13.4997 1.90711C13.7549 1.90711 14.0067 1.8485 14.2357 1.7358L15.9463 0.893132C16.8188 0.464009 17.8259 0.39894 18.7463 0.712234C19.6666 1.02553 20.4249 1.69153 20.8543 2.5638L20.953 2.7798L21.037 3.00247L21.6503 4.80647C21.817 5.29713 22.2023 5.68113 22.6917 5.8478L24.497 6.46113C24.9908 6.62915 25.4431 6.90059 25.8237 7.25734C26.2042 7.61409 26.5043 8.04793 26.7038 8.52989C26.9033 9.01184 26.9977 9.53083 26.9807 10.0522C26.9637 10.5735 26.8356 11.0852 26.605 11.5531L25.7637 13.2638C25.651 13.4928 25.5924 13.7446 25.5924 13.9998C25.5924 14.255 25.651 14.5068 25.7637 14.7358L26.605 16.4465C26.8353 16.9143 26.9632 17.4259 26.9802 17.9471C26.9971 18.4683 26.9026 18.9871 26.7031 19.4689C26.5036 19.9507 26.2036 20.3844 25.8232 20.741C25.4428 21.0977 24.9907 21.3691 24.497 21.5371L22.6917 22.1505C22.4502 22.2328 22.2308 22.3696 22.0505 22.5501C21.8702 22.7307 21.7337 22.9502 21.6517 23.1918L21.037 24.9971C20.869 25.4908 20.5976 25.9429 20.2409 26.3233C19.8843 26.7038 19.4506 27.0038 18.9688 27.2033C18.487 27.4028 17.9682 27.4972 17.447 27.4803C16.9258 27.4634 16.4142 27.3355 15.9463 27.1051L14.2357 26.2638C14.0067 26.1511 13.7549 26.0925 13.4997 26.0925C13.2445 26.0925 12.9927 26.1511 12.7637 26.2638L11.053 27.1051C10.5852 27.3355 10.0736 27.4634 9.55239 27.4803C9.03119 27.4972 8.51238 27.4028 8.03059 27.2033C7.5488 27.0038 7.1151 26.7038 6.75844 26.3233C6.40179 25.9429 6.13038 25.4908 5.96234 24.9971L5.34901 23.1918C5.26649 22.9502 5.12956 22.7307 4.94877 22.5504C4.76799 22.3701 4.54819 22.2337 4.30634 22.1518L2.50234 21.5371C2.00857 21.3692 1.55631 21.0979 1.17573 20.7413C0.795154 20.3847 0.495028 19.9511 0.295389 19.4693C0.0957494 18.9874 0.00119017 18.4686 0.018024 17.9473C0.0348578 17.4261 0.162697 16.9144 0.393008 16.4465L1.23567 14.7358C1.34838 14.5068 1.40699 14.255 1.40699 13.9998C1.40699 13.7446 1.34838 13.4928 1.23567 13.2638L0.393008 11.5531C0.162697 11.0852 0.0348578 10.5735 0.018024 10.0523C0.00119017 9.53101 0.0957494 9.01216 0.295389 8.53035C0.495028 8.04854 0.795154 7.61486 1.17573 7.25826C1.55631 6.90167 2.00857 6.63037 2.50234 6.46247L4.30634 5.84913C4.54823 5.76679 4.76794 5.62993 4.9485 5.44914C5.12907 5.26835 5.26564 5.04846 5.34767 4.80647L5.96101 3.00247C6.11605 2.54645 6.35942 2.12546 6.67721 1.76353C6.995 1.40159 7.38099 1.10582 7.81312 0.893097C8.24524 0.680376 8.71505 0.554877 9.19569 0.523769C9.67633 0.492661 10.1584 0.556555 10.6143 0.711799ZM18.125 9.95847L10.8997 17.1851L8.26768 14.0251C8.18479 13.9207 8.08186 13.8339 7.96493 13.7698C7.848 13.7057 7.71943 13.6656 7.58679 13.652C7.45415 13.6383 7.32012 13.6513 7.19258 13.6902C7.06504 13.7291 6.94656 13.7931 6.84413 13.8785C6.74169 13.9638 6.65736 14.0688 6.5961 14.1873C6.53484 14.3057 6.49788 14.4352 6.4874 14.5681C6.47692 14.701 6.49314 14.8347 6.53509 14.9613C6.57704 15.0879 6.64388 15.2048 6.73167 15.3051L10.065 19.3051C10.1539 19.4118 10.264 19.4989 10.3884 19.5607C10.5127 19.6225 10.6486 19.6577 10.7874 19.6641C10.9261 19.6705 11.0646 19.6479 11.1942 19.5978C11.3237 19.5477 11.4414 19.4712 11.5397 19.3731L19.5397 11.3731C19.6379 11.2816 19.7167 11.1712 19.7714 11.0485C19.826 10.9259 19.8554 10.7934 19.8578 10.6592C19.8602 10.5249 19.8355 10.3915 19.7852 10.267C19.7349 10.1425 19.66 10.0294 19.5651 9.93442C19.4701 9.83946 19.357 9.7646 19.2325 9.7143C19.108 9.66401 18.9746 9.63931 18.8403 9.64168C18.706 9.64405 18.5736 9.67344 18.451 9.72809C18.3283 9.78275 18.2179 9.86155 18.1263 9.9598L18.125 9.95847Z" fill="#E9AD21"/>
</svg>
