<svg width="175" height="167" viewBox="0 0 175 167" fill="none" xmlns="http://www.w3.org/2000/svg">
<path d="M169.44 1.56836H5.4705C3.66206 1.56836 2.19385 3.03657 2.19385 4.84502V127.723C2.19385 129.532 3.66206 131 5.4705 131H169.44C171.249 131 172.717 129.532 172.717 127.723V4.84502C172.721 3.03657 171.252 1.56836 169.44 1.56836Z" fill="#4900BF"/>
<path d="M169.2 13.3066H5.71826V127.479H169.2V13.3066Z" fill="white"/>
<mask id="mask0_765_194" style="mask-type:luminance" maskUnits="userSpaceOnUse" x="5" y="13" width="165" height="115">
<path d="M169.2 13.3066H5.71826V127.479H169.2V13.3066Z" fill="white"/>
</mask>
<g mask="url(#mask0_765_194)">
<path d="M177.244 112.242H-3.56055V138.119H177.244V112.242Z" fill="#AE785E"/>
</g>
<mask id="mask1_765_194" style="mask-type:luminance" maskUnits="userSpaceOnUse" x="5" y="13" width="165" height="115">
<path d="M169.2 13.3066H5.71826V127.479H169.2V13.3066Z" fill="white"/>
</mask>
<g mask="url(#mask1_765_194)">
<path d="M177.244 117.524H-3.56055V138.119H177.244V117.524Z" fill="#A2665A"/>
</g>
<path d="M2.19385 4.84502V127.723C2.19385 129.532 3.66206 131 5.4705 131H169.44C171.249 131 172.717 129.532 172.717 127.723V4.84502C172.717 3.03657 171.249 1.56836 169.44 1.56836H5.4705C3.66206 1.56836 2.19385 3.03657 2.19385 4.84502ZM169.196 127.479H5.71829V13.3066H169.196V127.479Z" fill="#333232" stroke="white" stroke-width="3" stroke-miterlimit="10"/>
<path d="M13.4106 7.14899C13.4106 6.15046 14.2169 5.34424 15.2154 5.34424C16.2139 5.34424 17.0201 6.15416 17.0201 7.14899C17.0201 8.14752 16.2102 8.95374 15.2154 8.95374C14.2169 8.95374 13.4106 8.14752 13.4106 7.14899Z" fill="#ED7C15"/>
<path d="M21.103 7.14899C21.103 6.15046 21.9092 5.34424 22.9078 5.34424C23.9063 5.34424 24.7125 6.15416 24.7125 7.14899C24.7125 8.14752 23.9026 8.95374 22.9078 8.95374C21.9129 8.95374 21.103 8.14752 21.103 7.14899Z" fill="white"/>
<path opacity="0.44" d="M169.2 119.066H5.71826V127.479H169.2V119.066Z" fill="#A2665A"/>
<path d="M5.71826 119.066H123.415" stroke="white" stroke-width="1.3439" stroke-linecap="round" stroke-linejoin="round"/>
<path d="M123.416 120.612C124.269 120.612 124.961 119.92 124.961 119.066C124.961 118.212 124.269 117.52 123.416 117.52C122.562 117.52 121.87 118.212 121.87 119.066C121.87 119.92 122.562 120.612 123.416 120.612Z" fill="white" stroke="white" stroke-width="0.8688" stroke-miterlimit="10" stroke-linecap="round" stroke-linejoin="round"/>
<path d="M160.85 124.073V124.987H161.763" stroke="white" stroke-width="1.3439" stroke-linecap="round" stroke-linejoin="round"/>
<path d="M164.237 124.073V124.987H163.327" stroke="white" stroke-width="1.3439" stroke-linecap="round" stroke-linejoin="round"/>
<path d="M160.85 122.513V121.599H161.763" stroke="white" stroke-width="1.3439" stroke-linecap="round" stroke-linejoin="round"/>
<path d="M163.327 121.599H164.237V122.513" stroke="white" stroke-width="1.3439" stroke-linecap="round" stroke-linejoin="round"/>
<path d="M23.3482 123.274L19.7905 121.218V125.327L23.3482 123.274Z" fill="white" stroke="white" stroke-width="0.8688" stroke-miterlimit="10" stroke-linecap="round" stroke-linejoin="round"/>
<path d="M36.7029 123.274L34.876 122.22V124.328L36.7029 123.274Z" fill="white" stroke="white" stroke-width="0.8688" stroke-miterlimit="10" stroke-linecap="round" stroke-linejoin="round"/>
<path d="M36.7021 124.328V122.22" stroke="white" stroke-width="1.3439" stroke-linecap="round" stroke-linejoin="round"/>
<path d="M50.1197 122.572H48.792V123.899H50.1197V122.572Z" stroke="white" stroke-width="1.3439" stroke-linecap="round" stroke-linejoin="round"/>
<path d="M51.8795 125.083L50.1191 123.899V122.572L51.8795 121.385V125.083Z" stroke="white" stroke-width="1.3439" stroke-linecap="round" stroke-linejoin="round"/>
<path d="M53.252 124.413C53.644 124.169 53.9065 123.733 53.9065 123.234C53.9065 122.734 53.644 122.302 53.252 122.054" stroke="white" stroke-width="1.3439" stroke-linecap="round" stroke-linejoin="round"/>
<path d="M71.2841 123.608V130.769H70.417V124.517H70.3751L68.6268 125.678V124.797L70.417 123.608H71.2841ZM73.3436 130.769V130.14L75.7072 127.552C75.9846 127.249 76.2131 126.986 76.3926 126.762C76.5721 126.536 76.7049 126.324 76.7912 126.126C76.8797 125.925 76.924 125.716 76.924 125.496C76.924 125.245 76.8634 125.027 76.7422 124.843C76.6233 124.658 76.4602 124.516 76.2527 124.416C76.0452 124.316 75.8121 124.266 75.5534 124.266C75.2783 124.266 75.0382 124.323 74.8331 124.437C74.6303 124.549 74.473 124.706 74.3611 124.909C74.2515 125.112 74.1967 125.35 74.1967 125.622H73.3716C73.3716 125.203 73.4683 124.834 73.6618 124.517C73.8553 124.2 74.1187 123.953 74.452 123.776C74.7877 123.599 75.1641 123.51 75.5814 123.51C76.001 123.51 76.3727 123.599 76.6968 123.776C77.0208 123.953 77.2749 124.192 77.459 124.493C77.6432 124.794 77.7352 125.128 77.7352 125.496C77.7352 125.76 77.6874 126.017 77.5919 126.269C77.4986 126.519 77.3355 126.797 77.1024 127.105C76.8716 127.41 76.5511 127.783 76.1408 128.224L74.5324 129.944V130H77.8611V130.769H73.3436ZM79.9206 129.853C79.7481 129.853 79.6 129.791 79.4765 129.668C79.3529 129.544 79.2912 129.396 79.2912 129.224C79.2912 129.051 79.3529 128.903 79.4765 128.78C79.6 128.656 79.7481 128.594 79.9206 128.594C80.093 128.594 80.2411 128.656 80.3646 128.78C80.4882 128.903 80.5499 129.051 80.5499 129.224C80.5499 129.338 80.5208 129.443 80.4625 129.538C80.4066 129.634 80.3308 129.711 80.2352 129.769C80.142 129.825 80.0371 129.853 79.9206 129.853ZM79.9206 126.231C79.7481 126.231 79.6 126.169 79.4765 126.045C79.3529 125.922 79.2912 125.774 79.2912 125.601C79.2912 125.429 79.3529 125.281 79.4765 125.157C79.6 125.034 79.7481 124.972 79.9206 124.972C80.093 124.972 80.2411 125.034 80.3646 125.157C80.4882 125.281 80.5499 125.429 80.5499 125.601C80.5499 125.716 80.5208 125.82 80.4625 125.916C80.4066 126.012 80.3308 126.088 80.2352 126.147C80.142 126.203 80.0371 126.231 79.9206 126.231ZM82.0167 130.769V130.14L84.3804 127.552C84.6578 127.249 84.8862 126.986 85.0657 126.762C85.2452 126.536 85.378 126.324 85.4643 126.126C85.5529 125.925 85.5972 125.716 85.5972 125.496C85.5972 125.245 85.5365 125.027 85.4153 124.843C85.2965 124.658 85.1333 124.516 84.9258 124.416C84.7184 124.316 84.4853 124.266 84.2265 124.266C83.9515 124.266 83.7114 124.323 83.5062 124.437C83.3034 124.549 83.1461 124.706 83.0342 124.909C82.9246 125.112 82.8699 125.35 82.8699 125.622H82.0447C82.0447 125.203 82.1414 124.834 82.3349 124.517C82.5284 124.2 82.7918 123.953 83.1251 123.776C83.4608 123.599 83.8372 123.51 84.2545 123.51C84.6741 123.51 85.0459 123.599 85.3699 123.776C85.6939 123.953 85.948 124.192 86.1321 124.493C86.3163 124.794 86.4083 125.128 86.4083 125.496C86.4083 125.76 86.3606 126.017 86.265 126.269C86.1717 126.519 86.0086 126.797 85.7755 127.105C85.5447 127.41 85.2242 127.783 84.8139 128.224L83.2055 129.944V130H86.5342V130.769H82.0167ZM71.0604 142.867C70.5802 142.867 70.1559 142.782 69.7876 142.612C69.4217 142.439 69.1361 142.203 68.931 141.902C68.7259 141.599 68.6245 141.254 68.6268 140.867C68.6245 140.564 68.6839 140.284 68.8051 140.028C68.9263 139.769 69.0918 139.554 69.3016 139.381C69.5137 139.206 69.7503 139.095 70.0114 139.049V139.007C69.6688 138.918 69.396 138.726 69.1932 138.43C68.9904 138.132 68.8902 137.792 68.8925 137.412C68.8902 137.049 68.9823 136.724 69.1688 136.437C69.3552 136.15 69.6116 135.924 69.938 135.759C70.2667 135.593 70.6408 135.51 71.0604 135.51C71.4753 135.51 71.8459 135.593 72.1723 135.759C72.4986 135.924 72.755 136.15 72.9415 136.437C73.1303 136.724 73.2259 137.049 73.2282 137.412C73.2259 137.792 73.1222 138.132 72.917 138.43C72.7142 138.726 72.445 138.918 72.1093 139.007V139.049C72.3681 139.095 72.6012 139.206 72.8086 139.381C73.0161 139.554 73.1816 139.769 73.3051 140.028C73.4287 140.284 73.4916 140.564 73.4939 140.867C73.4916 141.254 73.3867 141.599 73.1793 141.902C72.9741 142.203 72.6886 142.439 72.3226 142.612C71.959 142.782 71.5382 142.867 71.0604 142.867ZM71.0604 142.098C71.3844 142.098 71.6641 142.045 71.8995 141.94C72.135 141.836 72.3168 141.688 72.445 141.496C72.5732 141.305 72.6385 141.082 72.6408 140.825C72.6385 140.555 72.5685 140.316 72.431 140.108C72.2935 139.901 72.1058 139.738 71.8681 139.619C71.6326 139.5 71.3634 139.44 71.0604 139.44C70.755 139.44 70.4823 139.5 70.2422 139.619C70.0044 139.738 69.8168 139.901 69.6792 140.108C69.544 140.316 69.4776 140.555 69.4799 140.825C69.4776 141.082 69.5394 141.305 69.6653 141.496C69.7935 141.688 69.9764 141.836 70.2142 141.94C70.452 142.045 70.734 142.098 71.0604 142.098ZM71.0604 138.699C71.3168 138.699 71.5441 138.648 71.7422 138.545C71.9427 138.443 72.1 138.299 72.2142 138.115C72.3284 137.931 72.3867 137.716 72.389 137.468C72.3867 137.226 72.3296 137.015 72.2177 136.836C72.1058 136.654 71.9508 136.514 71.7527 136.416C71.5545 136.316 71.3238 136.266 71.0604 136.266C70.7923 136.266 70.558 136.316 70.3576 136.416C70.1571 136.514 70.0021 136.654 69.8925 136.836C69.783 137.015 69.7294 137.226 69.7317 137.468C69.7294 137.716 69.7841 137.931 69.896 138.115C70.0102 138.299 70.1676 138.443 70.3681 138.545C70.5685 138.648 70.7993 138.699 71.0604 138.699ZM80.1487 135.273L77.841 143.846H77.0857L79.3935 135.273H80.1487ZM71.2841 147.608V154.769H70.417V148.517H70.3751L68.6268 149.678V148.797L70.417 147.608H71.2841ZM73.5674 154.769L76.7702 148.433V148.378H73.0779V147.608H77.6653V148.419L74.4765 154.769H73.5674ZM79.2475 153.853C79.075 153.853 78.927 153.791 78.8034 153.668C78.6799 153.544 78.6181 153.396 78.6181 153.224C78.6181 153.051 78.6799 152.903 78.8034 152.78C78.927 152.656 79.075 152.594 79.2475 152.594C79.42 152.594 79.568 152.656 79.6915 152.78C79.8151 152.903 79.8768 153.051 79.8768 153.224C79.8768 153.338 79.8477 153.443 79.7894 153.538C79.7335 153.634 79.6577 153.711 79.5622 153.769C79.4689 153.825 79.364 153.853 79.2475 153.853ZM79.2475 150.231C79.075 150.231 78.927 150.169 78.8034 150.045C78.6799 149.922 78.6181 149.774 78.6181 149.601C78.6181 149.429 78.6799 149.281 78.8034 149.157C78.927 149.034 79.075 148.972 79.2475 148.972C79.42 148.972 79.568 149.034 79.6915 149.157C79.8151 149.281 79.8768 149.429 79.8768 149.601C79.8768 149.716 79.8477 149.82 79.7894 149.916C79.7335 150.012 79.6577 150.088 79.5622 150.147C79.4689 150.203 79.364 150.231 79.2475 150.231ZM83.7632 154.867C83.3017 154.867 82.8903 154.788 82.529 154.629C82.17 154.471 81.8844 154.251 81.6723 153.968C81.4625 153.684 81.3483 153.354 81.3296 152.979H82.2108C82.2294 153.21 82.3087 153.409 82.4485 153.577C82.5884 153.742 82.7714 153.871 82.9975 153.961C83.2236 154.052 83.4742 154.098 83.7492 154.098C84.0569 154.098 84.3297 154.044 84.5674 153.937C84.8052 153.83 84.9917 153.681 85.1269 153.489C85.2621 153.298 85.3297 153.077 85.3297 152.825C85.3297 152.562 85.2644 152.33 85.1339 152.129C85.0033 151.926 84.8122 151.768 84.5604 151.654C84.3087 151.54 84.001 151.482 83.6374 151.482H83.0639V150.713H83.6374C83.9217 150.713 84.1712 150.662 84.3856 150.559C84.6024 150.457 84.7714 150.312 84.8926 150.126C85.0161 149.939 85.0779 149.72 85.0779 149.468C85.0779 149.226 85.0243 149.015 84.9171 148.836C84.8099 148.656 84.6583 148.516 84.4625 148.416C84.2691 148.316 84.0406 148.266 83.7772 148.266C83.5301 148.266 83.297 148.311 83.0779 148.402C82.8611 148.491 82.684 148.62 82.5464 148.79C82.4089 148.958 82.3343 149.161 82.3227 149.399H81.4835C81.4975 149.023 81.6105 148.695 81.8227 148.412C82.0348 148.128 82.3122 147.907 82.6548 147.748C82.9998 147.59 83.3786 147.51 83.7912 147.51C84.2341 147.51 84.614 147.6 84.9311 147.78C85.2481 147.957 85.4917 148.191 85.6618 148.482C85.832 148.774 85.9171 149.088 85.9171 149.426C85.9171 149.83 85.811 150.174 85.5989 150.458C85.3891 150.742 85.1036 150.939 84.7423 151.049V151.105C85.1945 151.179 85.5476 151.372 85.8017 151.682C86.0558 151.989 86.1828 152.371 86.1828 152.825C86.1828 153.214 86.0768 153.564 85.8646 153.874C85.6548 154.182 85.3681 154.424 85.0045 154.601C84.6409 154.778 84.2271 154.867 83.7632 154.867ZM71.0604 166.867C70.5802 166.867 70.1559 166.782 69.7876 166.612C69.4217 166.439 69.1361 166.203 68.931 165.902C68.7259 165.599 68.6245 165.254 68.6268 164.867C68.6245 164.564 68.6839 164.284 68.8051 164.028C68.9263 163.769 69.0918 163.554 69.3016 163.381C69.5137 163.206 69.7503 163.095 70.0114 163.049V163.007C69.6688 162.918 69.396 162.726 69.1932 162.43C68.9904 162.132 68.8902 161.792 68.8925 161.412C68.8902 161.049 68.9823 160.724 69.1688 160.437C69.3552 160.15 69.6116 159.924 69.938 159.759C70.2667 159.593 70.6408 159.51 71.0604 159.51C71.4753 159.51 71.8459 159.593 72.1723 159.759C72.4986 159.924 72.755 160.15 72.9415 160.437C73.1303 160.724 73.2259 161.049 73.2282 161.412C73.2259 161.792 73.1222 162.132 72.917 162.43C72.7142 162.726 72.445 162.918 72.1093 163.007V163.049C72.3681 163.095 72.6012 163.206 72.8086 163.381C73.0161 163.554 73.1816 163.769 73.3051 164.028C73.4287 164.284 73.4916 164.564 73.4939 164.867C73.4916 165.254 73.3867 165.599 73.1793 165.902C72.9741 166.203 72.6886 166.439 72.3226 166.612C71.959 166.782 71.5382 166.867 71.0604 166.867ZM71.0604 166.098C71.3844 166.098 71.6641 166.045 71.8995 165.94C72.135 165.836 72.3168 165.688 72.445 165.496C72.5732 165.305 72.6385 165.082 72.6408 164.825C72.6385 164.555 72.5685 164.316 72.431 164.108C72.2935 163.901 72.1058 163.738 71.8681 163.619C71.6326 163.5 71.3634 163.44 71.0604 163.44C70.755 163.44 70.4823 163.5 70.2422 163.619C70.0044 163.738 69.8168 163.901 69.6792 164.108C69.544 164.316 69.4776 164.555 69.4799 164.825C69.4776 165.082 69.5394 165.305 69.6653 165.496C69.7935 165.688 69.9764 165.836 70.2142 165.94C70.452 166.045 70.734 166.098 71.0604 166.098ZM71.0604 162.699C71.3168 162.699 71.5441 162.648 71.7422 162.545C71.9427 162.443 72.1 162.299 72.2142 162.115C72.3284 161.931 72.3867 161.716 72.389 161.468C72.3867 161.226 72.3296 161.015 72.2177 160.836C72.1058 160.654 71.9508 160.514 71.7527 160.416C71.5545 160.316 71.3238 160.266 71.0604 160.266C70.7923 160.266 70.558 160.316 70.3576 160.416C70.1571 160.514 70.0021 160.654 69.8925 160.836C69.783 161.015 69.7294 161.226 69.7317 161.468C69.7294 161.716 69.7841 161.931 69.896 162.115C70.0102 162.299 70.1676 162.443 70.3681 162.545C70.5685 162.648 70.7993 162.699 71.0604 162.699Z" fill="white"/>
<path d="M154.203 30.0522H22.9077V102.028H154.203V30.0522Z" fill="white" stroke="black" stroke-miterlimit="10"/>
<path d="M106.61 60.4445L76.8578 43.2661C74.4429 41.8718 71.4214 43.6137 71.4214 46.4059V80.7627C71.4214 83.5512 74.4429 85.2968 76.8578 83.9025L106.61 66.7241C109.025 65.3262 109.025 61.8387 106.61 60.4445Z" fill="#EA0617" stroke="black" stroke-miterlimit="10"/>
</svg>
